<?xml version="1.0" encoding="UTF-8" standalone="no"?>
<!-- Created with Inkscape (http://www.inkscape.org/) -->

<svg
   xml:space="preserve"
   sodipodi:docname="og-background.svg"
   inkscape:version="1.3 (0e150ed6c4, 2023-07-21)"
   id="svg5"
   version="1.1"
   viewBox="0 0 1200 630"
   preserveAspectRatio="xMidYMid slice"
   width="1200"
   height="630"
   xmlns:inkscape="http://www.inkscape.org/namespaces/inkscape"
   xmlns:sodipodi="http://sodipodi.sourceforge.net/DTD/sodipodi-0.dtd"
   xmlns:xlink="http://www.w3.org/1999/xlink"
   xmlns="http://www.w3.org/2000/svg"
   xmlns:svg="http://www.w3.org/2000/svg">&#10;  <style
   id="style13121">&#10;path { &#10;}&#10;</style>&#10;  <sodipodi:namedview
   id="namedview7"
   pagecolor="#000000"
   bordercolor="#666666"
   borderopacity="1.0"
   inkscape:showpageshadow="2"
   inkscape:pageopacity="0"
   inkscape:pagecheckerboard="0"
   inkscape:deskcolor="#d1d1d1"
   inkscape:document-units="px"
   showgrid="false"
   inkscape:zoom="0.77024432"
   inkscape:cx="628.37205"
   inkscape:cy="348.59069"
   inkscape:window-width="1900"
   inkscape:window-height="1028"
   inkscape:window-x="10"
   inkscape:window-y="42"
   inkscape:window-maximized="1"
   inkscape:current-layer="svg5" />&#10;  <defs
   id="defs2"><linearGradient
     id="linearGradient1240"
     inkscape:collect="always"><stop
       style="stop-color:#1f1b20;stop-opacity:1;"
       offset="0"
       id="stop1240" /><stop
       style="stop-color:#1f1b20;stop-opacity:0;"
       offset="1"
       id="stop1241" /></linearGradient><linearGradient
     inkscape:collect="always"
     xlink:href="#linearGradient1240"
     id="linearGradient1241"
     x1="310.71997"
     y1="412.71609"
     x2="310.71997"
     y2="131.32825"
     gradientUnits="userSpaceOnUse" /></defs>&#10;  <g
   inkscape:groupmode="layer"
   id="layer3"
   inkscape:label="bg"><rect
     style="fill:#1f1b20;fill-opacity:1;stroke:none;stroke-width:8.91948;stroke-miterlimit:4;stroke-dasharray:none;stroke-opacity:1;paint-order:markers stroke fill"
     id="rect1"
     width="1200"
     height="630"
     x="0"
     y="0" /></g><g
   inkscape:groupmode="layer"
   id="cat"
   inkscape:label="cat"
   style="display:none"
   transform="translate(-441.77515,1.0000021)"
   sodipodi:insensitive="true" />&#10;  <g
   inkscape:groupmode="layer"
   id="sparkles"
   inkscape:label="sparkles"
   transform="translate(-441.77515,1.0000021)">&#10;    <path
   id="path3077-7"
   style="fill:#fff2dc;fill-opacity:1;stroke:none;stroke-width:3.21947;stroke-dasharray:none"
   d="m 1290.1461,335.38127 -1.536,-5.22919 -2.1722,-2.17237 -5.2294,-1.53604 5.2294,-1.53607 2.1722,-2.17237 1.536,-5.22919 1.536,5.22919 2.1725,2.17237 5.2294,1.53607 -5.2294,1.53604 -2.1725,2.17237 z"
   sodipodi:nodetypes="ccccccccccccc"
   inkscape:spray-origin="#use14788">&#10;      <animateTransform
   attributeName="transform"
   attributeType="XML"
   type="scale"
   additive="sum"
   fill="freeze"
   begin="-0.3536348724464704s"
   dur="0.9484289575991278s"
   keyTimes="0;0.5;1"
   values="0.5;1.0;0.5"
   keySplines="0.42 0 1 1; 0 0 0.58 1"
   calcMode="spline"
   repeatCount="indefinite" />&#10;    </path>&#10;    &#10;    &#10;    &#10;    &#10;    &#10;    &#10;    &#10;    &#10;    &#10;    &#10;    &#10;    &#10;    &#10;    &#10;    &#10;    &#10;    &#10;    &#10;    &#10;    &#10;    &#10;    &#10;    &#10;    &#10;    &#10;    &#10;    &#10;    &#10;    &#10;    &#10;    &#10;    &#10;    &#10;    &#10;    &#10;    &#10;    &#10;    &#10;    &#10;    &#10;    &#10;    &#10;    &#10;    &#10;    &#10;    &#10;    &#10;    &#10;    &#10;    &#10;    &#10;    &#10;    &#10;    &#10;    &#10;    &#10;    &#10;    &#10;    &#10;    &#10;    &#10;    &#10;    &#10;    &#10;    &#10;    &#10;    &#10;    &#10;    &#10;    &#10;    &#10;    &#10;    &#10;    &#10;    &#10;    &#10;    &#10;    &#10;    &#10;    &#10;    &#10;    &#10;    &#10;    &#10;    &#10;    &#10;    &#10;    &#10;    &#10;    &#10;    &#10;    &#10;    &#10;    &#10;    &#10;    &#10;    &#10;    &#10;    &#10;    &#10;    &#10;    &#10;    &#10;    &#10;    &#10;    &#10;    &#10;    &#10;    &#10;    &#10;    &#10;    &#10;    &#10;    &#10;    &#10;    &#10;  <use
   id="use1107"
   inkscape:spray-origin="#use14788"
   xlink:href="#path3077-7"
   transform="matrix(1.10915,0,0,1.10915,-940.73492,-309.35893)" /><use
   id="use1108"
   inkscape:spray-origin="#use14788"
   xlink:href="#path3077-7"
   transform="matrix(0.92419384,0,0,0.92419384,-639.16169,-153.18428)" /><use
   id="use1109"
   inkscape:spray-origin="#use14788"
   xlink:href="#path3077-7"
   transform="matrix(1.1910865,0,0,1.1910865,-686.90314,-183.07983)" /><use
   id="use1111"
   inkscape:spray-origin="#use14788"
   xlink:href="#path3077-7"
   transform="matrix(0.74559021,0,0,0.74559021,-198.624,-54.231756)" /><use
   id="use1112"
   inkscape:spray-origin="#use14788"
   xlink:href="#path3077-7"
   transform="matrix(1.3404177,0,0,1.3404177,-770.41878,-178.29566)" /><use
   id="use1113"
   inkscape:spray-origin="#use14788"
   xlink:href="#path3077-7"
   transform="matrix(1.2812283,0,0,1.2812283,-540.90042,-275.5008)" /><use
   id="use1114"
   inkscape:spray-origin="#use14788"
   xlink:href="#path3077-7"
   transform="matrix(0.72173439,0,0,0.72173439,48.784367,75.628813)" /><use
   id="use1115"
   inkscape:spray-origin="#use14788"
   xlink:href="#path3077-7"
   transform="matrix(1.2316047,0,0,1.2316047,-413.94051,-73.121921)" /><use
   id="use1116"
   inkscape:spray-origin="#use14788"
   xlink:href="#path3077-7"
   transform="matrix(0.85640381,0,0,0.85640381,-8.836595,78.59175)" /><use
   id="use1117"
   inkscape:spray-origin="#use14788"
   xlink:href="#path3077-7"
   transform="matrix(1.3422868,0,0,1.3422868,-380.75836,-240.78577)" /><use
   id="use1118"
   inkscape:spray-origin="#use14788"
   xlink:href="#path3077-7"
   transform="matrix(1.076456,0,0,1.076456,151.95881,-226.771)" /><use
   id="use1119"
   inkscape:spray-origin="#use14788"
   xlink:href="#path3077-7"
   transform="matrix(0.70364305,0,0,0.70364305,296.78603,-149.31922)" /><use
   id="use1120"
   inkscape:spray-origin="#use14788"
   xlink:href="#path3077-7"
   transform="matrix(1.3011933,0,0,1.3011933,-299.83455,-214.03582)" /><use
   id="use1122"
   inkscape:spray-origin="#use14788"
   xlink:href="#path3077-7"
   transform="matrix(1.1121286,0,0,1.1121286,-41.437114,-83.127248)" /><use
   id="use1123"
   inkscape:spray-origin="#use14788"
   xlink:href="#path3077-7"
   transform="matrix(0.97156337,0,0,0.97156337,274.48521,-297.68503)" /><use
   id="use1124"
   inkscape:spray-origin="#use14788"
   xlink:href="#path3077-7"
   transform="matrix(1.1327924,0,0,1.1327924,169.09083,-24.72914)" /><use
   id="use1125"
   inkscape:spray-origin="#use14788"
   xlink:href="#path3077-7"
   transform="matrix(0.85129663,0,0,0.85129663,144.83317,-256.06529)" /><use
   id="use1126"
   inkscape:spray-origin="#use14788"
   xlink:href="#path3077-7"
   transform="matrix(0.90347199,0,0,0.90347199,259.21498,95.865031)" /><use
   id="use1128"
   inkscape:spray-origin="#use14788"
   xlink:href="#path3077-7"
   transform="matrix(0.91705542,0,0,0.91705542,156.64914,-148.75264)" /><use
   id="use1129"
   inkscape:spray-origin="#use14788"
   xlink:href="#path3077-7"
   transform="matrix(1.1906274,0,0,1.1906274,-348.31231,-352.35782)" /><use
   id="use1130"
   inkscape:spray-origin="#use14788"
   xlink:href="#path3077-7"
   transform="matrix(1.1066577,0,0,1.1066577,-324.8074,-163.7495)" /><use
   id="use1131"
   inkscape:spray-origin="#use14788"
   xlink:href="#path3077-7"
   transform="matrix(1.0089194,0,0,1.0089194,-129.69736,-47.166959)" /><use
   id="use1132"
   inkscape:spray-origin="#use14788"
   xlink:href="#path3077-7"
   transform="matrix(1.3146999,0,0,1.3146999,-287.49196,-355.13274)" /><use
   id="use1133"
   inkscape:spray-origin="#use14788"
   xlink:href="#path3077-7"
   transform="matrix(1.22142,0,0,1.22142,-226.52067,-170.31411)" /><use
   id="use1134"
   inkscape:spray-origin="#use14788"
   xlink:href="#path3077-7"
   transform="matrix(0.74204082,0,0,0.74204082,-70.778672,-85.70515)" /><use
   id="use1135"
   inkscape:spray-origin="#use14788"
   xlink:href="#path3077-7"
   transform="matrix(1.2284494,0,0,1.2284494,-347.64949,-228.48593)" /><use
   id="use1136"
   inkscape:spray-origin="#use14788"
   xlink:href="#path3077-7"
   transform="matrix(1.0651325,0,0,1.0651325,-175.56165,-73.720237)" /><use
   id="use1137"
   inkscape:spray-origin="#use14788"
   xlink:href="#path3077-7"
   transform="matrix(1.2094042,0,0,1.2094042,-578.69654,-351.24011)" /><use
   id="use1138"
   inkscape:spray-origin="#use14788"
   xlink:href="#path3077-7"
   transform="matrix(1.0456108,0,0,1.0456108,-304.42389,-266.74996)" /><use
   id="use1139"
   inkscape:spray-origin="#use14788"
   xlink:href="#path3077-7"
   transform="matrix(1.3301541,0,0,1.3301541,-833.08499,80.063997)" /><use
   id="use1140"
   inkscape:spray-origin="#use14788"
   xlink:href="#path3077-7"
   transform="matrix(0.70456761,0,0,0.70456761,-341.57714,-150.7448)" /><use
   id="use1141"
   inkscape:spray-origin="#use14788"
   xlink:href="#path3077-7"
   transform="matrix(0.63600308,0,0,0.63600308,-104.49524,220.11767)" /><use
   id="use1142"
   inkscape:spray-origin="#use14788"
   xlink:href="#path3077-7"
   transform="matrix(0.66950198,0,0,0.66950198,-261.65903,67.920987)" /><use
   id="use1143"
   inkscape:spray-origin="#use14788"
   xlink:href="#path3077-7"
   transform="matrix(1.1871296,0,0,1.1871296,-737.91669,-44.343582)" /><use
   id="use1144"
   inkscape:spray-origin="#use14788"
   xlink:href="#path3077-7"
   transform="matrix(0.64668337,0,0,0.64668337,-166.91916,260.54956)" /><use
   id="use1145"
   inkscape:spray-origin="#use14788"
   xlink:href="#path3077-7"
   transform="matrix(1.1220453,0,0,1.1220453,-916.98056,-271.92383)" /><use
   id="use1148"
   inkscape:spray-origin="#use14788"
   xlink:href="#path3077-7"
   transform="matrix(1.0667783,0,0,1.0667783,-692.76189,-75.342985)" /><use
   id="use1149"
   inkscape:spray-origin="#use14788"
   xlink:href="#path3077-7"
   transform="matrix(1.0457607,0,0,1.0457607,-744.42155,-313.38603)" /><use
   id="use1150"
   inkscape:spray-origin="#use14788"
   xlink:href="#path3077-7"
   transform="matrix(0.89310815,0,0,0.89310815,-312.13199,112.50064)" /><use
   id="use1151"
   inkscape:spray-origin="#use14788"
   xlink:href="#path3077-7"
   transform="matrix(1.125086,0,0,1.125086,-625.5872,79.088531)" /><use
   id="use1152"
   inkscape:spray-origin="#use14788"
   xlink:href="#path3077-7"
   transform="matrix(1.0912998,0,0,1.0912998,-508.43788,-334.17355)" /><use
   id="use1153"
   inkscape:spray-origin="#use14788"
   xlink:href="#path3077-7"
   transform="matrix(0.73487768,0,0,0.73487768,164.37296,-64.640691)" /><use
   id="use1154"
   inkscape:spray-origin="#use14788"
   xlink:href="#path3077-7"
   transform="matrix(1.0293923,0,0,1.0293923,-672.03353,-319.52151)" /><use
   id="use1155"
   inkscape:spray-origin="#use14788"
   xlink:href="#path3077-7"
   transform="matrix(0.82271185,0,0,0.82271185,-40.306036,-139.74882)" /><use
   id="use1156"
   inkscape:spray-origin="#use14788"
   xlink:href="#path3077-7"
   transform="matrix(0.81837908,0,0,0.81837908,-233.52184,24.489679)" /><use
   id="use1157"
   inkscape:spray-origin="#use14788"
   xlink:href="#path3077-7"
   transform="matrix(0.69529629,0,0,0.69529629,-44.654185,17.260913)" /><use
   id="use1158"
   inkscape:spray-origin="#use14788"
   xlink:href="#path3077-7"
   transform="matrix(1.2292852,0,0,1.2292852,-651.77919,-191.00487)" /><use
   id="use1159"
   inkscape:spray-origin="#use14788"
   xlink:href="#path3077-7"
   transform="matrix(0.65758215,0,0,0.65758215,448.07971,-181.07208)" /><use
   id="use1160"
   inkscape:spray-origin="#use14788"
   xlink:href="#path3077-7"
   transform="matrix(1.0147504,0,0,1.0147504,304.9646,-283.26269)" /><use
   id="use1167"
   inkscape:spray-origin="#use14788"
   xlink:href="#path3077-7"
   transform="matrix(0.69673705,0,0,0.69673705,402.39406,-46.637855)" /><use
   id="use1168"
   inkscape:spray-origin="#use14788"
   xlink:href="#path3077-7"
   transform="matrix(1.2431551,0,0,1.2431551,-573.74467,-369.50312)" /><use
   id="use1169"
   inkscape:spray-origin="#use14788"
   xlink:href="#path3077-7"
   transform="matrix(1.3510067,0,0,1.3510067,-484.07374,-393.65586)" /><use
   id="use1171"
   inkscape:spray-origin="#use14788"
   xlink:href="#path3077-7"
   transform="matrix(0.69716104,0,0,0.69716104,353.07131,-137.28283)" /><use
   id="use1174"
   inkscape:spray-origin="#use14788"
   xlink:href="#path3077-7"
   transform="matrix(0.75056532,0,0,0.75056532,-96.811168,-67.366769)" /><use
   id="use1176"
   inkscape:spray-origin="#use14788"
   xlink:href="#path3077-7"
   transform="matrix(0.83582565,0,0,0.83582565,-496.08002,-175.81382)" /><use
   id="use1177"
   inkscape:spray-origin="#use14788"
   xlink:href="#path3077-7"
   transform="matrix(1.0732226,0,0,1.0732226,-581.45833,-311.94571)" /><use
   id="use1178"
   inkscape:spray-origin="#use14788"
   xlink:href="#path3077-7"
   transform="matrix(1.2225194,0,0,1.2225194,-972.60372,-233.52354)" /><use
   id="use1180"
   inkscape:spray-origin="#use14788"
   xlink:href="#path3077-7"
   transform="matrix(0.87004777,0,0,0.87004777,-268.00445,-209.2726)" /><use
   id="use1181"
   inkscape:spray-origin="#use14788"
   xlink:href="#path3077-7"
   transform="matrix(0.9574375,0,0,0.9574375,-681.46126,87.587903)" /><use
   id="use1182"
   inkscape:spray-origin="#use14788"
   xlink:href="#path3077-7"
   transform="matrix(1.0621386,0,0,1.0621386,-671.76532,-96.384793)" /><use
   id="use1183"
   inkscape:spray-origin="#use14788"
   xlink:href="#path3077-7"
   transform="matrix(0.81684779,0,0,0.81684779,-379.46569,-238.62296)" /><use
   id="use1184"
   inkscape:spray-origin="#use14788"
   xlink:href="#path3077-7"
   transform="matrix(1.3640644,0,0,1.3640644,-920.17876,-212.82909)" /><use
   id="use1185"
   inkscape:spray-origin="#use14788"
   xlink:href="#path3077-7"
   transform="matrix(0.75389772,0,0,0.75389772,76.019876,91.974152)" /><use
   id="use1186"
   inkscape:spray-origin="#use14788"
   xlink:href="#path3077-7"
   transform="matrix(0.85984378,0,0,0.85984378,153.39177,-16.485402)" /><use
   id="use1187"
   inkscape:spray-origin="#use14788"
   xlink:href="#path3077-7"
   transform="matrix(0.85689097,0,0,0.85689097,304.95805,-55.31798)" /><use
   id="use1188"
   inkscape:spray-origin="#use14788"
   xlink:href="#path3077-7"
   transform="matrix(0.97552084,0,0,0.97552084,345.43995,-248.3592)" /><use
   id="use1190"
   inkscape:spray-origin="#use14788"
   xlink:href="#path3077-7"
   transform="matrix(1.3353062,0,0,1.3353062,-161.97158,-123.54152)" /><use
   id="use1193"
   inkscape:spray-origin="#use14788"
   xlink:href="#path3077-7"
   transform="matrix(1.110325,0,0,1.110325,13.371291,35.695575)" /><use
   id="use1194"
   inkscape:spray-origin="#use14788"
   xlink:href="#path3077-7"
   transform="matrix(0.99307539,0,0,0.99307539,84.214423,-159.44583)" /><use
   id="use1195"
   inkscape:spray-origin="#use14788"
   xlink:href="#path3077-7"
   transform="matrix(1.0438795,0,0,1.0438795,-130.29695,-40.189594)" /><use
   id="use1196"
   inkscape:spray-origin="#use14788"
   xlink:href="#path3077-7"
   transform="matrix(0.81517215,0,0,0.81517215,507.15774,-249.3767)" /><use
   id="use1197"
   inkscape:spray-origin="#use14788"
   xlink:href="#path3077-7"
   transform="matrix(0.95299185,0,0,0.95299185,65.838299,-18.057415)" /><use
   id="use1198"
   inkscape:spray-origin="#use14788"
   xlink:href="#path3077-7"
   transform="matrix(1.1898657,0,0,1.1898657,-451.31613,-212.02367)" /><use
   id="use1200"
   inkscape:spray-origin="#use14788"
   xlink:href="#path3077-7"
   transform="matrix(0.84541191,0,0,0.84541191,-393.60093,-156.8785)" /><use
   id="use1201"
   inkscape:spray-origin="#use14788"
   xlink:href="#path3077-7"
   transform="matrix(1.3056311,0,0,1.3056311,-762.10887,-297.55821)" /><use
   id="use1204"
   inkscape:spray-origin="#use14788"
   xlink:href="#path3077-7"
   transform="matrix(0.92709577,0,0,0.92709577,-547.5696,-163.61812)" /><use
   id="use1205"
   inkscape:spray-origin="#use14788"
   xlink:href="#path3077-7"
   transform="matrix(1.0281596,0,0,1.0281596,-661.84745,12.708894)" /><use
   id="use1208"
   inkscape:spray-origin="#use14788"
   xlink:href="#path3077-7"
   transform="matrix(1.1881786,0,0,1.1881786,-864.76676,-305.07302)" /><use
   id="use1209"
   inkscape:spray-origin="#use14788"
   xlink:href="#path3077-7"
   transform="matrix(0.65606215,0,0,0.65606215,99.535725,138.06867)" /><use
   id="use1210"
   inkscape:spray-origin="#use14788"
   xlink:href="#path3077-7"
   transform="matrix(1.1773847,0,0,1.1773847,-344.93526,-14.052353)" /><use
   id="use1211"
   inkscape:spray-origin="#use14788"
   xlink:href="#path3077-7"
   transform="matrix(1.050528,0,0,1.050528,151.57508,173.66288)" /><use
   id="use1212"
   inkscape:spray-origin="#use14788"
   xlink:href="#path3077-7"
   transform="matrix(0.7469598,0,0,0.7469598,443.57574,51.070781)" /><use
   id="use1213"
   inkscape:spray-origin="#use14788"
   xlink:href="#path3077-7"
   transform="matrix(0.72942431,0,0,0.72942431,673.34259,-123.50272)" /><use
   id="use1214"
   inkscape:spray-origin="#use14788"
   xlink:href="#path3077-7"
   transform="matrix(0.8294052,0,0,0.8294052,549.16191,221.16251)" /><use
   id="use1217"
   inkscape:spray-origin="#use14788"
   xlink:href="#path3077-7"
   transform="matrix(0.81468566,0,0,0.81468566,541.50348,145.76374)" /><use
   id="use1219"
   inkscape:spray-origin="#use14788"
   xlink:href="#path3077-7"
   transform="matrix(1.2005323,0,0,1.2005323,-78.21114,-141.55493)" /><use
   id="use1220"
   inkscape:spray-origin="#use14788"
   xlink:href="#path3077-7"
   transform="matrix(1.1467511,0,0,1.1467511,-345.82745,70.94613)" /><use
   id="use1221"
   inkscape:spray-origin="#use14788"
   xlink:href="#path3077-7"
   transform="matrix(1.0566277,0,0,1.0566277,-101.38168,122.59599)" /><use
   id="use1222"
   inkscape:spray-origin="#use14788"
   xlink:href="#path3077-7"
   transform="matrix(0.96360918,0,0,0.96360918,-487.26207,46.387059)" /><use
   id="use1223"
   inkscape:spray-origin="#use14788"
   xlink:href="#path3077-7"
   transform="matrix(1.1381965,0,0,1.1381965,-592.11294,63.123092)" /><use
   id="use1224"
   inkscape:spray-origin="#use14788"
   xlink:href="#path3077-7"
   transform="matrix(1.2347768,0,0,1.2347768,-878.70277,-239.2396)" /><use
   id="use1225"
   inkscape:spray-origin="#use14788"
   xlink:href="#path3077-7"
   transform="matrix(0.65427684,0,0,0.65427684,-382.54659,-49.44898)" /><use
   id="use1227"
   inkscape:spray-origin="#use14788"
   xlink:href="#path3077-7"
   transform="matrix(0.71050606,0,0,0.71050606,-423.28689,-101.61257)" /><use
   id="use1228"
   inkscape:spray-origin="#use14788"
   xlink:href="#path3077-7"
   transform="matrix(1.0367327,0,0,1.0367327,-861.66518,-10.887003)" /><use
   id="use1230"
   inkscape:spray-origin="#use14788"
   xlink:href="#path3077-7"
   transform="matrix(0.79096248,0,0,0.79096248,-572.49094,242.06451)" /><use
   id="use1231"
   inkscape:spray-origin="#use14788"
   xlink:href="#path3077-7"
   transform="matrix(1.1884155,0,0,1.1884155,-739.45658,-271.336)" /><use
   id="use1238"
   inkscape:spray-origin="#use14788"
   xlink:href="#path3077-7"
   transform="matrix(1.076775,0,0,1.076775,50.143132,-317.88861)" /></g>&#10;  <g
   inkscape:groupmode="layer"
   id="celestial_bodies"
   inkscape:label="celestial_bodies"
   transform="translate(-441.77515,1.0000021)">&#10;    <path
   id="path10493"
   style="fill:none;stroke:#fff2dc;stroke-width:3.21947;stroke-dasharray:none;stroke-opacity:1"
   d="m 530.12258,257.33532 -9.42917,-32.1 -13.33535,-13.33508 -32.10002,-9.4294 32.10002,-9.42933 13.33535,-13.33512 9.42917,-32.09995 9.4295,32.09995 13.33501,13.33512 32.10002,9.42933 -32.10002,9.4294 -13.33501,13.33508 z"
   sodipodi:nodetypes="ccccccccccccc" />&#10;    <path
   id="path10493-7"
   style="fill:none;stroke:#fff2dc;stroke-width:3.21947;stroke-dasharray:none;stroke-opacity:1"
   d="m 735.4959,92.9389 -5.1908,-17.670332 -7.34068,-7.34067 -17.67036,-5.19065 17.67036,-5.19063 7.34068,-7.34069 5.1908,-17.67031 5.19037,17.67031 7.34077,7.34069 17.67036,5.19063 -17.67036,5.19065 -7.34077,7.34067 z"
   sodipodi:nodetypes="ccccccccccccc" />&#10;    <path
   id="path10672"
   style="fill:none;stroke:#fff2dc;stroke-width:3.21947;stroke-dasharray:none;stroke-opacity:1"
   d="m 1495.2192,94.49892 a 69.575908,69.575908 0 0 0 -30.638,57.54122 69.575908,69.575908 0 0 0 69.5765,69.57669 69.575908,69.575908 0 0 0 57.5364,-30.63608 69.575908,69.575908 0 0 1 -38.9337,12.03323 69.575908,69.575908 0 0 1 -69.5765,-69.57667 69.575908,69.575908 0 0 1 12.0353,-38.93839 z" />&#10;  </g>&#10;  &#10;  &#10;  &#10;<rect
   style="fill:url(#linearGradient1241);fill-opacity:1;stroke:none;stroke-width:8.91948;stroke-miterlimit:4;stroke-dasharray:none;stroke-opacity:1;paint-order:markers stroke fill"
   id="rect1-3"
   width="1200"
   height="630"
   x="0"
   y="0" /></svg>
