<?xml version="1.0" encoding="UTF-8" standalone="no"?>
<!-- Created with Inkscape (http://www.inkscape.org/) -->

<svg
   xml:space="preserve"
   sodipodi:docname="banner-short.svg"
   inkscape:version="1.2 (dc2aedaf03, 2022-05-15)"
   id="svg5"
   version="1.1"
   viewBox="0 0 1200 256"
   height="256"
   width="1200"
   xmlns:inkscape="http://www.inkscape.org/namespaces/inkscape"
   xmlns:sodipodi="http://sodipodi.sourceforge.net/DTD/sodipodi-0.dtd"
   xmlns="http://www.w3.org/2000/svg"
   xmlns:svg="http://www.w3.org/2000/svg"><style
     id="style13121">
path { 
    vector-effect:non-scaling-stroke;
}
</style><sodipodi:namedview
     id="namedview7"
     pagecolor="#000000"
     bordercolor="#666666"
     borderopacity="1.0"
     inkscape:showpageshadow="2"
     inkscape:pageopacity="0"
     inkscape:pagecheckerboard="0"
     inkscape:deskcolor="#d1d1d1"
     inkscape:document-units="px"
     showgrid="false"
     inkscape:zoom="2.0000001"
     inkscape:cx="563.24999"
     inkscape:cy="143"
     inkscape:window-width="3840"
     inkscape:window-height="2126"
     inkscape:window-x="2149"
     inkscape:window-y="858"
     inkscape:window-maximized="1"
     inkscape:current-layer="sparkles" /><defs
     id="defs2" /><g
     inkscape:groupmode="layer"
     id="cat"
     inkscape:label="cat"
     style="display:none"
     transform="translate(-441.77515,1.0000021)"
     sodipodi:insensitive="true" /><g
     inkscape:groupmode="layer"
     id="sparkles"
     inkscape:label="sparkles"
     style="display:inline"
     transform="translate(-441.77515,1.0000021)"><path
       id="path3077-7"
       style="display:inline;fill:#fff2dc;fill-opacity:1;stroke:none;stroke-width:1;stroke-dasharray:none"
       d="m 1253.5124,205.74371 -0.4771,-1.62424 -0.6747,-0.67476 -1.6243,-0.47711 1.6243,-0.47712 0.6747,-0.67476 0.4771,-1.62424 0.4771,1.62424 0.6748,0.67476 1.6243,0.47712 -1.6243,0.47711 -0.6748,0.67476 z"
       sodipodi:nodetypes="ccccccccccccc"
       inkscape:spray-origin="#use14788" /><path
       id="path802"
       style="display:inline;fill:#fff2dc;fill-opacity:1;stroke:none;stroke-width:1;stroke-dasharray:none"
       d="m 947.06456,149.09404 -0.4603,-1.5671 -0.651,-0.65102 -1.5671,-0.46032 1.5671,-0.46033 0.651,-0.65102 0.4603,-1.5671 0.4603,1.5671 0.6511,0.65102 1.5671,0.46033 -1.5671,0.46032 -0.6511,0.65102 z"
       sodipodi:nodetypes="ccccccccccccc"
       inkscape:spray-origin="#use14788" /><path
       id="path804"
       style="display:inline;fill:#fff2dc;fill-opacity:1;stroke:none;stroke-width:1;stroke-dasharray:none"
       d="m 945.29123,123.31795 -0.3,-1.02148 -0.4243,-0.42436 -1.0216,-0.30005 1.0216,-0.30006 0.4243,-0.42436 0.3,-1.02148 0.3001,1.02148 0.4243,0.42436 1.0216,0.30006 -1.0216,0.30005 -0.4243,0.42436 z"
       sodipodi:nodetypes="ccccccccccccc"
       inkscape:spray-origin="#use14788" /><path
       id="path806"
       style="display:inline;fill:#fff2dc;fill-opacity:1;stroke:none;stroke-width:1;stroke-dasharray:none"
       d="m 906.59726,164.6089 -0.4222,-1.43747 -0.5971,-0.59716 -1.4376,-0.42225 1.4376,-0.42226 0.5971,-0.59716 0.4222,-1.43747 0.4222,1.43747 0.5972,0.59716 1.4376,0.42226 -1.4376,0.42225 -0.5972,0.59716 z"
       sodipodi:nodetypes="ccccccccccccc"
       inkscape:spray-origin="#use14788" /><path
       id="path808"
       style="display:inline;fill:#fff2dc;fill-opacity:1;stroke:none;stroke-width:1;stroke-dasharray:none"
       d="m 954.90634,166.19433 -0.2882,-0.98131 -0.4077,-0.40767 -0.9813,-0.28825 0.9813,-0.28826 0.4077,-0.40767 0.2882,-0.98131 0.2883,0.98131 0.4077,0.40767 0.9813,0.28826 -0.9813,0.28825 -0.4077,0.40767 z"
       sodipodi:nodetypes="ccccccccccccc"
       inkscape:spray-origin="#use14788" /><path
       id="path810"
       style="display:inline;fill:#fff2dc;fill-opacity:1;stroke:none;stroke-width:1;stroke-dasharray:none"
       d="m 933.3545,153.99889 -0.6348,-2.16105 -0.8977,-0.89777 -2.1611,-0.6348 2.1611,-0.63481 0.8977,-0.89777 0.6348,-2.16105 0.6348,2.16105 0.8978,0.89777 2.1611,0.63481 -2.1611,0.6348 -0.8978,0.89777 z"
       sodipodi:nodetypes="ccccccccccccc"
       inkscape:spray-origin="#use14788" /><path
       id="path812"
       style="display:inline;fill:#fff2dc;fill-opacity:1;stroke:none;stroke-width:1;stroke-dasharray:none"
       d="m 867.90179,76.649489 -0.5461,-1.85923 -0.7723,-0.77238 -1.8593,-0.54614 1.8593,-0.54615 0.7723,-0.77238 0.5461,-1.85923 0.5461,1.85923 0.7724,0.77238 1.8593,0.54615 -1.8593,0.54614 -0.7724,0.77238 z"
       sodipodi:nodetypes="ccccccccccccc"
       inkscape:spray-origin="#use14788" /><path
       id="path814"
       style="display:inline;fill:#fff2dc;fill-opacity:1;stroke:none;stroke-width:1;stroke-dasharray:none"
       d="m 872.43052,151.10176 -0.6342,-2.15904 -0.8969,-0.89694 -2.1591,-0.63421 2.1591,-0.63422 0.8969,-0.89694 0.6342,-2.15904 0.6342,2.15904 0.897,0.89694 2.1591,0.63422 -2.1591,0.63421 -0.897,0.89694 z"
       sodipodi:nodetypes="ccccccccccccc"
       inkscape:spray-origin="#use14788" /><path
       id="path816"
       style="display:inline;fill:#fff2dc;fill-opacity:1;stroke:none;stroke-width:1;stroke-dasharray:none"
       d="m 813.78579,161.06827 -0.302,-1.02805 -0.427,-0.42708 -1.0281,-0.30198 1.0281,-0.30199 0.427,-0.42708 0.302,-1.02805 0.302,1.02805 0.4271,0.42708 1.0281,0.30199 -1.0281,0.30198 -0.4271,0.42708 z"
       sodipodi:nodetypes="ccccccccccccc"
       inkscape:spray-origin="#use14788" /><path
       id="path818"
       style="display:inline;fill:#fff2dc;fill-opacity:1;stroke:none;stroke-width:1;stroke-dasharray:none"
       d="m 696.68338,114.39143 -0.3777,-1.28584 -0.5341,-0.53418 -1.2859,-0.3777 1.2859,-0.37771 0.5341,-0.53418 0.3777,-1.28584 0.3777,1.28584 0.5342,0.53418 1.2859,0.37771 -1.2859,0.3777 -0.5342,0.53418 z"
       sodipodi:nodetypes="ccccccccccccc"
       inkscape:spray-origin="#use14788" /><path
       id="path820"
       style="display:inline;fill:#fff2dc;fill-opacity:1;stroke:none;stroke-width:1;stroke-dasharray:none"
       d="m 774.18362,108.7097 -0.2935,-0.99924 -0.4151,-0.41511 -0.9993,-0.29352 0.9993,-0.29353 0.4151,-0.41511 0.2935,-0.99924 0.2935,0.99924 0.4152,0.41511 0.9993,0.29353 -0.9993,0.29352 -0.4152,0.41511 z"
       sodipodi:nodetypes="ccccccccccccc"
       inkscape:spray-origin="#use14788" /><path
       id="path822"
       style="display:inline;fill:#fff2dc;fill-opacity:1;stroke:none;stroke-width:1;stroke-dasharray:none"
       d="m 730.00282,170.21431 -0.351,-1.19492 -0.4963,-0.49641 -1.195,-0.351 1.195,-0.35101 0.4963,-0.49641 0.351,-1.19492 0.351,1.19492 0.4964,0.49641 1.195,0.35101 -1.195,0.351 -0.4964,0.49641 z"
       sodipodi:nodetypes="ccccccccccccc"
       inkscape:spray-origin="#use14788" /><path
       id="path826"
       style="display:inline;fill:#fff2dc;fill-opacity:1;stroke:none;stroke-width:1;stroke-dasharray:none"
       d="m 695.81086,98.548469 -0.3315,-1.12862 -0.4688,-0.46887 -1.1287,-0.33152 1.1287,-0.33153 0.4688,-0.46887 0.3315,-1.12862 0.3315,1.12862 0.4689,0.46887 1.1287,0.33153 -1.1287,0.33152 -0.4689,0.46887 z"
       sodipodi:nodetypes="ccccccccccccc"
       inkscape:spray-origin="#use14788" /><path
       id="path828"
       style="display:inline;fill:#fff2dc;fill-opacity:1;stroke:none;stroke-width:1;stroke-dasharray:none"
       d="m 846.46803,206.25352 -0.3241,-1.10333 -0.4583,-0.45836 -1.1034,-0.32409 1.1034,-0.3241 0.4583,-0.45836 0.3241,-1.10333 0.3241,1.10333 0.4584,0.45836 1.1034,0.3241 -1.1034,0.32409 -0.4584,0.45836 z"
       sodipodi:nodetypes="ccccccccccccc"
       inkscape:spray-origin="#use14788" /><path
       id="path830"
       style="display:inline;fill:#fff2dc;fill-opacity:1;stroke:none;stroke-width:1;stroke-dasharray:none"
       d="m 934.24641,169.91206 -0.4072,-1.3863 -0.5759,-0.57592 -1.3863,-0.40722 1.3863,-0.40723 0.5759,-0.57592 0.4072,-1.3863 0.4072,1.3863 0.576,0.57592 1.3863,0.40723 -1.3863,0.40722 -0.576,0.57592 z"
       sodipodi:nodetypes="ccccccccccccc"
       inkscape:spray-origin="#use14788" /><path
       id="path832"
       style="display:inline;fill:#fff2dc;fill-opacity:1;stroke:none;stroke-width:1;stroke-dasharray:none"
       d="m 945.5846,108.30064 -0.5003,-1.70332 -0.7076,-0.70762 -1.7034,-0.50034 1.7034,-0.50035 0.7076,-0.70762 0.5003,-1.70332 0.5003,1.70332 0.7077,0.70762 1.7034,0.50035 -1.7034,0.50034 -0.7077,0.70762 z"
       sodipodi:nodetypes="ccccccccccccc"
       inkscape:spray-origin="#use14788" /><path
       id="path836"
       style="display:inline;fill:#fff2dc;fill-opacity:1;stroke:none;stroke-width:1;stroke-dasharray:none"
       d="m 1048.1948,134.42744 -0.5569,-1.8958 -0.7875,-0.78757 -1.8958,-0.55688 1.8958,-0.55689 0.7875,-0.78757 0.5569,-1.8958 0.5569,1.8958 0.7876,0.78757 1.8958,0.55689 -1.8958,0.55688 -0.7876,0.78757 z"
       sodipodi:nodetypes="ccccccccccccc"
       inkscape:spray-origin="#use14788" /><path
       id="path840"
       style="display:inline;fill:#fff2dc;fill-opacity:1;stroke:none;stroke-width:1;stroke-dasharray:none"
       d="m 1206.9162,116.81118 -0.3378,-1.15022 -0.4778,-0.47784 -1.1503,-0.33787 1.1503,-0.33788 0.4778,-0.47784 0.3378,-1.15022 0.3379,1.15022 0.4778,0.47784 1.1503,0.33788 -1.1503,0.33787 -0.4778,0.47784 z"
       sodipodi:nodetypes="ccccccccccccc"
       inkscape:spray-origin="#use14788" /><path
       id="path842"
       style="display:inline;fill:#fff2dc;fill-opacity:1;stroke:none;stroke-width:1;stroke-dasharray:none"
       d="m 1273.0977,53.761875 -0.4793,-1.63162 -0.6777,-0.67782 -1.6317,-0.47928 1.6317,-0.47929 0.6777,-0.67782 0.4793,-1.63162 0.4793,1.63162 0.6778,0.67782 1.6317,0.47929 -1.6317,0.47928 -0.6778,0.67782 z"
       sodipodi:nodetypes="ccccccccccccc"
       inkscape:spray-origin="#use14788" /><path
       id="path844"
       style="display:inline;fill:#fff2dc;fill-opacity:1;stroke:none;stroke-width:1;stroke-dasharray:none"
       d="m 1249.2848,57.049016 -0.3306,-1.12557 -0.4676,-0.46759 -1.1256,-0.33063 1.1256,-0.33064 0.4676,-0.46759 0.3306,-1.12557 0.3306,1.12557 0.4677,0.46759 1.1256,0.33064 -1.1256,0.33063 -0.4677,0.46759 z"
       sodipodi:nodetypes="ccccccccccccc"
       inkscape:spray-origin="#use14788" /><path
       id="path846"
       style="display:inline;fill:#fff2dc;fill-opacity:1;stroke:none;stroke-width:1;stroke-dasharray:none"
       d="m 1283.8023,55.964357 -0.5779,-1.96725 -0.8171,-0.81725 -1.9674,-0.57787 1.9674,-0.57788 0.8171,-0.81725 0.5779,-1.96725 0.5778,1.96725 0.8173,0.81725 1.9674,0.57788 -1.9674,0.57787 -0.8173,0.81725 z"
       sodipodi:nodetypes="ccccccccccccc"
       inkscape:spray-origin="#use14788" /><path
       id="path848"
       style="display:inline;fill:#fff2dc;fill-opacity:1;stroke:none;stroke-width:1;stroke-dasharray:none"
       d="m 1326.874,140.22777 -0.3388,-1.1533 -0.479,-0.47912 -1.1534,-0.33877 1.1534,-0.33878 0.479,-0.47912 0.3388,-1.1533 0.3388,1.1533 0.4791,0.47912 1.1534,0.33878 -1.1534,0.33877 -0.4791,0.47912 z"
       sodipodi:nodetypes="ccccccccccccc"
       inkscape:spray-origin="#use14788" /><path
       id="path850"
       style="display:inline;fill:#fff2dc;fill-opacity:1;stroke:none;stroke-width:1;stroke-dasharray:none"
       d="m 1381.034,75.379126 -0.356,-1.21186 -0.5034,-0.50344 -1.2118,-0.35597 1.2118,-0.35598 0.5034,-0.50344 0.356,-1.21186 0.356,1.21186 0.5035,0.50344 1.2118,0.35598 -1.2118,0.35597 -0.5035,0.50344 z"
       sodipodi:nodetypes="ccccccccccccc"
       inkscape:spray-origin="#use14788" /><path
       id="path852"
       style="display:inline;fill:#fff2dc;fill-opacity:1;stroke:none;stroke-width:1;stroke-dasharray:none"
       d="m 1354.9106,68.751375 -0.3212,-1.09368 -0.4543,-0.45435 -1.0938,-0.32126 1.0938,-0.32127 0.4543,-0.45435 0.3212,-1.09368 0.3213,1.09368 0.4543,0.45435 1.0938,0.32127 -1.0938,0.32126 -0.4543,0.45435 z"
       sodipodi:nodetypes="ccccccccccccc"
       inkscape:spray-origin="#use14788" /><path
       id="path854"
       style="display:inline;fill:#fff2dc;fill-opacity:1;stroke:none;stroke-width:1;stroke-dasharray:none"
       d="m 1252.3298,168.90308 -0.4512,-1.5361 -0.6381,-0.63815 -1.5362,-0.45122 1.5362,-0.45123 0.6381,-0.63815 0.4512,-1.5361 0.4512,1.5361 0.6382,0.63815 1.5362,0.45123 -1.5362,0.45122 -0.6382,0.63815 z"
       sodipodi:nodetypes="ccccccccccccc"
       inkscape:spray-origin="#use14788" /><path
       id="path856"
       style="display:inline;fill:#fff2dc;fill-opacity:1;stroke:none;stroke-width:1;stroke-dasharray:none"
       d="m 1160.874,199.57699 -0.6254,-2.12903 -0.8844,-0.88446 -2.1291,-0.62539 2.1291,-0.6254 0.8844,-0.88446 0.6254,-2.12903 0.6254,2.12903 0.8845,0.88446 2.1291,0.6254 -2.1291,0.62539 -0.8845,0.88446 z"
       sodipodi:nodetypes="ccccccccccccc"
       inkscape:spray-origin="#use14788" /><path
       id="path860"
       style="display:inline;fill:#fff2dc;fill-opacity:1;stroke:none;stroke-width:1;stroke-dasharray:none"
       d="m 1025.9989,158.93698 -0.4551,-1.54944 -0.6437,-0.64369 -1.5495,-0.45514 1.5495,-0.45515 0.6437,-0.64369 0.4551,-1.54944 0.4551,1.54944 0.6438,0.64369 1.5495,0.45515 -1.5495,0.45514 -0.6438,0.64369 z"
       sodipodi:nodetypes="ccccccccccccc"
       inkscape:spray-origin="#use14788" /><path
       id="path866"
       style="display:inline;fill:#fff2dc;fill-opacity:1;stroke:none;stroke-width:1;stroke-dasharray:none"
       d="m 921.43882,161.67951 -0.5838,-1.98749 -0.8256,-0.82567 -1.9876,-0.58381 1.9876,-0.58382 0.8256,-0.82567 0.5838,-1.98749 0.5838,1.98749 0.8257,0.82567 1.9876,0.58382 -1.9876,0.58381 -0.8257,0.82567 z"
       sodipodi:nodetypes="ccccccccccccc"
       inkscape:spray-origin="#use14788" /><path
       id="path868"
       style="display:inline;fill:#fff2dc;fill-opacity:1;stroke:none;stroke-width:1;stroke-dasharray:none"
       d="m 816.66652,42.24256 -0.4129,-1.40579 -0.584,-0.58402 -1.4058,-0.41294 1.4058,-0.41295 0.584,-0.58402 0.4129,-1.40579 0.4129,1.40579 0.5841,0.58402 1.4058,0.41295 -1.4058,0.41294 -0.5841,0.58402 z"
       sodipodi:nodetypes="ccccccccccccc"
       inkscape:spray-origin="#use14788" /><path
       id="path870"
       style="display:inline;fill:#fff2dc;fill-opacity:1;stroke:none;stroke-width:1;stroke-dasharray:none"
       d="m 820.0956,60.057898 -0.3196,-1.08824 -0.4521,-0.45209 -1.0883,-0.31966 1.0883,-0.31967 0.4521,-0.45209 0.3196,-1.08824 0.3197,1.08824 0.4521,0.45209 1.0883,0.31967 -1.0883,0.31966 -0.4521,0.45209 z"
       sodipodi:nodetypes="ccccccccccccc"
       inkscape:spray-origin="#use14788" /><path
       id="path872"
       style="display:inline;fill:#fff2dc;fill-opacity:1;stroke:none;stroke-width:1;stroke-dasharray:none"
       d="m 898.88944,71.191431 -0.5126,-1.74518 -0.725,-0.725 -1.7452,-0.51263 1.7452,-0.51264 0.725,-0.725 0.5126,-1.74518 0.5126,1.74518 0.7251,0.725 1.7452,0.51264 -1.7452,0.51263 -0.7251,0.725 z"
       sodipodi:nodetypes="ccccccccccccc"
       inkscape:spray-origin="#use14788" /><path
       id="path874"
       style="display:inline;fill:#fff2dc;fill-opacity:1;stroke:none;stroke-width:1;stroke-dasharray:none"
       d="m 876.12077,23.937168 -0.6378,-2.17128 -0.9019,-0.90202 -2.1714,-0.6378 2.1714,-0.63781 0.9019,-0.90202 0.6378,-2.17128 0.6378,2.17128 0.902,0.90202 2.1714,0.63781 -2.1714,0.6378 -0.902,0.90202 z"
       sodipodi:nodetypes="ccccccccccccc"
       inkscape:spray-origin="#use14788" /><path
       id="path876"
       style="display:inline;fill:#fff2dc;fill-opacity:1;stroke:none;stroke-width:1;stroke-dasharray:none"
       d="m 1024.9823,23.937168 -0.6077,-2.06872 -0.8593,-0.85941 -2.0688,-0.60767 2.0688,-0.60768 0.8593,-0.85941 0.6077,-2.06872 0.6076,2.06872 0.8595,0.85941 2.0688,0.60768 -2.0688,0.60767 -0.8595,0.85941 z"
       sodipodi:nodetypes="ccccccccccccc"
       inkscape:spray-origin="#use14788" /><path
       id="path878"
       style="display:inline;fill:#fff2dc;fill-opacity:1;stroke:none;stroke-width:1;stroke-dasharray:none"
       d="m 965.57959,46.438719 -0.6042,-2.05698 -0.8545,-0.85453 -2.057,-0.60423 2.057,-0.60424 0.8545,-0.85453 0.6042,-2.05698 0.6042,2.05698 0.8546,0.85453 2.057,0.60424 -2.057,0.60423 -0.8546,0.85453 z"
       sodipodi:nodetypes="ccccccccccccc"
       inkscape:spray-origin="#use14788" /><path
       id="path886"
       style="display:inline;fill:#fff2dc;fill-opacity:1;stroke:none;stroke-width:1;stroke-dasharray:none"
       d="m 1162.4591,170.50923 -0.4239,-1.4433 -0.5996,-0.5996 -1.4433,-0.42396 1.4433,-0.42397 0.5996,-0.5996 0.4239,-1.4433 0.424,1.4433 0.5996,0.5996 1.4433,0.42397 -1.4433,0.42396 -0.5996,0.5996 z"
       sodipodi:nodetypes="ccccccccccccc"
       inkscape:spray-origin="#use14788" /><path
       id="path888"
       style="display:inline;fill:#fff2dc;fill-opacity:1;stroke:none;stroke-width:1;stroke-dasharray:none"
       d="m 1155.4075,25.773717 -0.6404,-2.18006 -0.9056,-0.905656 -2.1801,-0.64038 2.1801,-0.64039 0.9056,-0.90566 0.6404,-2.18006 0.6403,2.18006 0.9058,0.90566 2.1801,0.64039 -2.1801,0.64038 -0.9058,0.905656 z"
       sodipodi:nodetypes="ccccccccccccc"
       inkscape:spray-origin="#use14788" /><path
       id="path890"
       style="display:inline;fill:#fff2dc;fill-opacity:1;stroke:none;stroke-width:1;stroke-dasharray:none"
       d="m 1150.79,182.73993 -0.6307,-2.14694 -0.8918,-0.89191 -2.147,-0.63065 2.147,-0.63066 0.8918,-0.89191 0.6307,-2.14694 0.6306,2.14694 0.892,0.89191 2.147,0.63066 -2.147,0.63065 -0.892,0.89191 z"
       sodipodi:nodetypes="ccccccccccccc"
       inkscape:spray-origin="#use14788" /><path
       id="path892"
       style="display:inline;fill:#fff2dc;fill-opacity:1;stroke:none;stroke-width:1;stroke-dasharray:none"
       d="m 1094.0144,190.28369 -0.4194,-1.42782 -0.5931,-0.59316 -1.4279,-0.41941 1.4279,-0.41942 0.5931,-0.59316 0.4194,-1.42782 0.4194,1.42782 0.5932,0.59316 1.4279,0.41942 -1.4279,0.41941 -0.5932,0.59316 z"
       sodipodi:nodetypes="ccccccccccccc"
       inkscape:spray-origin="#use14788" /><path
       id="path894"
       style="display:inline;fill:#fff2dc;fill-opacity:1;stroke:none;stroke-width:1;stroke-dasharray:none"
       d="m 993.60854,127.94693 -0.6381,-2.17225 -0.9023,-0.90242 -2.1724,-0.63809 2.1724,-0.6381 0.9023,-0.90242 0.6381,-2.17225 0.6381,2.17225 0.9024,0.90242 2.1724,0.6381 -2.1724,0.63809 -0.9024,0.90242 z"
       sodipodi:nodetypes="ccccccccccccc"
       inkscape:spray-origin="#use14788" /><path
       id="path896"
       style="display:inline;fill:#fff2dc;fill-opacity:1;stroke:none;stroke-width:1;stroke-dasharray:none"
       d="m 932.80847,57.081951 -0.3617,-1.23138 -0.5115,-0.51156 -1.2314,-0.36171 1.2314,-0.36172 0.5115,-0.51156 0.3617,-1.23138 0.3617,1.23138 0.5116,0.51156 1.2314,0.36172 -1.2314,0.36171 -0.5116,0.51156 z"
       sodipodi:nodetypes="ccccccccccccc"
       inkscape:spray-origin="#use14788" /><path
       id="path898"
       style="display:inline;fill:#fff2dc;fill-opacity:1;stroke:none;stroke-width:1;stroke-dasharray:none"
       d="m 836.37334,121.10565 -0.3586,-1.2208 -0.5071,-0.50716 -1.2208,-0.3586 1.2208,-0.35861 0.5071,-0.50716 0.3586,-1.2208 0.3586,1.2208 0.5072,0.50716 1.2208,0.35861 -1.2208,0.3586 -0.5072,0.50716 z"
       sodipodi:nodetypes="ccccccccccccc"
       inkscape:spray-origin="#use14788" /><path
       id="path900"
       style="display:inline;fill:#fff2dc;fill-opacity:1;stroke:none;stroke-width:1;stroke-dasharray:none"
       d="m 806.27043,188.78829 -0.4646,-1.58166 -0.657,-0.65708 -1.5817,-0.4646 1.5817,-0.46461 0.657,-0.65708 0.4646,-1.58166 0.4646,1.58166 0.6571,0.65708 1.5817,0.46461 -1.5817,0.4646 -0.6571,0.65708 z"
       sodipodi:nodetypes="ccccccccccccc"
       inkscape:spray-origin="#use14788" /><path
       id="path902"
       style="display:inline;fill:#fff2dc;fill-opacity:1;stroke:none;stroke-width:1;stroke-dasharray:none"
       d="m 857.9597,59.917988 -0.473,-1.61045 -0.669,-0.66903 -1.6105,-0.47306 1.6105,-0.47307 0.669,-0.66903 0.473,-1.61045 0.473,1.61045 0.6691,0.66903 1.6105,0.47307 -1.6105,0.47306 -0.6691,0.66903 z"
       sodipodi:nodetypes="ccccccccccccc"
       inkscape:spray-origin="#use14788" /><path
       id="path904"
       style="display:inline;fill:#fff2dc;fill-opacity:1;stroke:none;stroke-width:1;stroke-dasharray:none"
       d="m 793.53721,87.58129 -0.6493,-2.21036 -0.9182,-0.91825 -2.2104,-0.64928 2.2104,-0.64929 0.9182,-0.91825 0.6493,-2.21036 0.6492,2.21036 0.9184,0.91825 2.2104,0.64929 -2.2104,0.64928 -0.9184,0.91825 z"
       sodipodi:nodetypes="ccccccccccccc"
       inkscape:spray-origin="#use14788" /><path
       id="path906"
       style="display:inline;fill:#fff2dc;fill-opacity:1;stroke:none;stroke-width:1;stroke-dasharray:none"
       d="m 702.0934,34.567773 -0.4752,-1.61775 -0.672,-0.67206 -1.6178,-0.4752 1.6178,-0.47521 0.672,-0.67206 0.4752,-1.61775 0.4752,1.61775 0.6721,0.67206 1.6178,0.47521 -1.6178,0.4752 -0.6721,0.67206 z"
       sodipodi:nodetypes="ccccccccccccc"
       inkscape:spray-origin="#use14788" /><path
       id="path908"
       style="display:inline;fill:#fff2dc;fill-opacity:1;stroke:none;stroke-width:1;stroke-dasharray:none"
       d="m 622.36233,59.568177 -0.4232,-1.44072 -0.5985,-0.59852 -1.4407,-0.4232 1.4407,-0.42321 0.5985,-0.59852 0.4232,-1.44072 0.4232,1.44072 0.5986,0.59852 1.4407,0.42321 -1.4407,0.4232 -0.5986,0.59852 z"
       sodipodi:nodetypes="ccccccccccccc"
       inkscape:spray-origin="#use14788" /><path
       id="path910"
       style="display:inline;fill:#fff2dc;fill-opacity:1;stroke:none;stroke-width:1;stroke-dasharray:none"
       d="m 620.5046,93.930631 -0.3716,-1.26507 -0.5255,-0.52555 -1.2651,-0.3716 1.2651,-0.37161 0.5255,-0.52555 0.3716,-1.26507 0.3716,1.26507 0.5256,0.52555 1.2651,0.37161 -1.2651,0.3716 -0.5256,0.52555 z"
       sodipodi:nodetypes="ccccccccccccc"
       inkscape:spray-origin="#use14788" /><path
       id="path912"
       style="display:inline;fill:#fff2dc;fill-opacity:1;stroke:none;stroke-width:1;stroke-dasharray:none"
       d="m 600.22508,74.4436 -0.5404,-1.83979 -0.7643,-0.7643 -1.8398,-0.54043 1.8398,-0.54044 0.7643,-0.7643 0.5404,-1.83979 0.5404,1.83979 0.7644,0.7643 1.8398,0.54044 -1.8398,0.54043 -0.7644,0.7643 z"
       sodipodi:nodetypes="ccccccccccccc"
       inkscape:spray-origin="#use14788" /><path
       id="path914"
       style="display:inline;fill:#fff2dc;fill-opacity:1;stroke:none;stroke-width:1;stroke-dasharray:none"
       d="m 682.19605,72.800038 -0.3342,-1.13767 -0.4725,-0.47262 -1.1378,-0.33418 1.1378,-0.33419 0.4725,-0.47262 0.3342,-1.13767 0.3342,1.13767 0.4726,0.47262 1.1378,0.33419 -1.1378,0.33418 -0.4726,0.47262 z"
       sodipodi:nodetypes="ccccccccccccc"
       inkscape:spray-origin="#use14788" /><path
       id="path916"
       style="display:inline;fill:#fff2dc;fill-opacity:1;stroke:none;stroke-width:1;stroke-dasharray:none"
       d="m 571.70683,10.985239 -0.4797,-1.6331297 -0.6784,-0.67845 -1.6332,-0.47972 1.6332,-0.47973 0.6784,-0.67845 0.4797,-1.63313 0.4797,1.63313 0.6785,0.67845 1.6332,0.47973 -1.6332,0.47972 -0.6785,0.67845 z"
       sodipodi:nodetypes="ccccccccccccc"
       inkscape:spray-origin="#use14788" /><path
       id="path918"
       style="display:inline;fill:#fff2dc;fill-opacity:1;stroke:none;stroke-width:1;stroke-dasharray:none"
       d="m 607.62995,32.166269 -0.4565,-1.55405 -0.6455,-0.6456 -1.5541,-0.45649 1.5541,-0.4565 0.6455,-0.6456 0.4565,-1.55405 0.4565,1.55405 0.6456,0.6456 1.5541,0.4565 -1.5541,0.45649 -0.6456,0.6456 z"
       sodipodi:nodetypes="ccccccccccccc"
       inkscape:spray-origin="#use14788" /><path
       id="path920"
       style="display:inline;fill:#fff2dc;fill-opacity:1;stroke:none;stroke-width:1;stroke-dasharray:none"
       d="m 774.731,38.405496 -0.5381,-1.83192 -0.761,-0.76104 -1.832,-0.53811 1.832,-0.53812 0.761,-0.76104 0.5381,-1.83192 0.5381,1.83192 0.7611,0.76104 1.832,0.53812 -1.832,0.53811 -0.7611,0.76104 z"
       sodipodi:nodetypes="ccccccccccccc"
       inkscape:spray-origin="#use14788" /><path
       id="path922"
       style="display:inline;fill:#fff2dc;fill-opacity:1;stroke:none;stroke-width:1;stroke-dasharray:none"
       d="m 828.32326,15.710697 -0.4406,-1.49982 -0.623,-0.62308 -1.4998,-0.44056 1.4998,-0.44057 0.623,-0.62308 0.4406,-1.49982 0.4406,1.49982 0.6231,0.62308 1.4998,0.44057 -1.4998,0.44056 -0.6231,0.62308 z"
       sodipodi:nodetypes="ccccccccccccc"
       inkscape:spray-origin="#use14788" /><path
       id="path924"
       style="display:inline;fill:#fff2dc;fill-opacity:1;stroke:none;stroke-width:1;stroke-dasharray:none"
       d="m 835.25386,62.080655 -0.3786,-1.28889 -0.5354,-0.53544 -1.2889,-0.3786 1.2889,-0.37861 0.5354,-0.53544 0.3786,-1.28889 0.3786,1.28889 0.5355,0.53544 1.2889,0.37861 -1.2889,0.3786 -0.5355,0.53544 z"
       sodipodi:nodetypes="ccccccccccccc"
       inkscape:spray-origin="#use14788" /><path
       id="path926"
       style="display:inline;fill:#fff2dc;fill-opacity:1;stroke:none;stroke-width:1;stroke-dasharray:none"
       d="m 924.97396,38.827482 -0.6304,-2.14624 -0.8916,-0.89161 -2.1463,-0.63045 2.1463,-0.63046 0.8916,-0.89161 0.6304,-2.14624 0.6304,2.14624 0.8917,0.89161 2.1463,0.63046 -2.1463,0.63045 -0.8917,0.89161 z"
       sodipodi:nodetypes="ccccccccccccc"
       inkscape:spray-origin="#use14788" /><path
       id="path928"
       style="display:inline;fill:#fff2dc;fill-opacity:1;stroke:none;stroke-width:1;stroke-dasharray:none"
       d="m 1124.7536,50.109645 -0.4384,-1.49251 -0.62,-0.62003 -1.4925,-0.43841 1.4925,-0.43842 0.62,-0.62003 0.4384,-1.49251 0.4384,1.49251 0.6201,0.62003 1.4925,0.43842 -1.4925,0.43841 -0.6201,0.62003 z"
       sodipodi:nodetypes="ccccccccccccc"
       inkscape:spray-origin="#use14788" /><path
       id="path934"
       style="display:inline;fill:#fff2dc;fill-opacity:1;stroke:none;stroke-width:1;stroke-dasharray:none"
       d="m 1455.3859,93.301727 -0.3872,-1.31818 -0.5476,-0.54761 -1.3182,-0.38721 1.3182,-0.38722 0.5476,-0.54761 0.3872,-1.31818 0.3872,1.31818 0.5477,0.54761 1.3182,0.38722 -1.3182,0.38721 -0.5477,0.54761 z"
       sodipodi:nodetypes="ccccccccccccc"
       inkscape:spray-origin="#use14788" /><path
       id="path936"
       style="display:inline;fill:#fff2dc;fill-opacity:1;stroke:none;stroke-width:1;stroke-dasharray:none"
       d="m 1434.9048,44.122671 -0.2965,-1.00933 -0.4192,-0.41931 -1.0094,-0.29648 1.0094,-0.29649 0.4192,-0.41931 0.2965,-1.00933 0.2965,1.00933 0.4193,0.41931 1.0094,0.29649 -1.0094,0.29648 -0.4193,0.41931 z"
       sodipodi:nodetypes="ccccccccccccc"
       inkscape:spray-origin="#use14788" /><path
       id="path938"
       style="display:inline;fill:#fff2dc;fill-opacity:1;stroke:none;stroke-width:1;stroke-dasharray:none"
       d="m 1349.4446,49.414361 -0.3149,-1.07196 -0.4452,-0.44533 -1.072,-0.31488 1.072,-0.31489 0.4452,-0.44533 0.3149,-1.07196 0.3149,1.07196 0.4453,0.44533 1.072,0.31489 -1.072,0.31488 -0.4453,0.44533 z"
       sodipodi:nodetypes="ccccccccccccc"
       inkscape:spray-origin="#use14788" /><path
       id="path940"
       style="display:inline;fill:#fff2dc;fill-opacity:1;stroke:none;stroke-width:1;stroke-dasharray:none"
       d="m 1424.1165,70.728996 -0.5682,-1.93443 -0.8036,-0.80362 -1.9345,-0.56823 1.9345,-0.56824 0.8036,-0.80362 0.5682,-1.93443 0.5682,1.93443 0.8037,0.80362 1.9345,0.56824 -1.9345,0.56823 -0.8037,0.80362 z"
       sodipodi:nodetypes="ccccccccccccc"
       inkscape:spray-origin="#use14788" /><path
       id="path942"
       style="display:inline;fill:#fff2dc;fill-opacity:1;stroke:none;stroke-width:1;stroke-dasharray:none"
       d="m 1495.3918,32.698839 -0.5185,-1.76526 -0.7333,-0.73335 -1.7653,-0.51853 1.7653,-0.51854 0.7333,-0.73335 0.5185,-1.76526 0.5185,1.76526 0.7334,0.73335 1.7653,0.51854 -1.7653,0.51853 -0.7334,0.73335 z"
       sodipodi:nodetypes="ccccccccccccc"
       inkscape:spray-origin="#use14788" /><path
       id="path944"
       style="display:inline;fill:#fff2dc;fill-opacity:1;stroke:none;stroke-width:1;stroke-dasharray:none"
       d="m 1527.9003,56.653088 -0.6559,-2.23291 -0.9275,-0.92762 -2.233,-0.6559 2.233,-0.65591 0.9275,-0.92762 0.6559,-2.23291 0.6559,2.23291 0.9276,0.92762 2.233,0.65591 -2.233,0.6559 -0.9276,0.92762 z"
       sodipodi:nodetypes="ccccccccccccc"
       inkscape:spray-origin="#use14788" /><path
       id="path946"
       style="display:inline;fill:#fff2dc;fill-opacity:1;stroke:none;stroke-width:1;stroke-dasharray:none"
       d="m 1410.0546,101.88708 -0.5474,-1.86357 -0.7741,-0.774184 -1.8637,-0.54741 1.8637,-0.54742 0.7741,-0.77418 0.5474,-1.86357 0.5474,1.86357 0.7742,0.77418 1.8637,0.54742 -1.8637,0.54741 -0.7742,0.774184 z"
       sodipodi:nodetypes="ccccccccccccc"
       inkscape:spray-origin="#use14788" /><path
       id="path948"
       style="display:inline;fill:#fff2dc;fill-opacity:1;stroke:none;stroke-width:1;stroke-dasharray:none"
       d="m 1468.7721,74.11342 -0.4353,-1.48179 -0.6155,-0.61558 -1.4818,-0.43526 1.4818,-0.43527 0.6155,-0.61558 0.4353,-1.48179 0.4353,1.48179 0.6156,0.61558 1.4818,0.43527 -1.4818,0.43526 -0.6156,0.61558 z"
       sodipodi:nodetypes="ccccccccccccc"
       inkscape:spray-origin="#use14788" /><path
       id="path950"
       style="display:inline;fill:#fff2dc;fill-opacity:1;stroke:none;stroke-width:1;stroke-dasharray:none"
       d="m 1422.6061,152.88517 -0.4806,-1.63623 -0.6797,-0.67974 -1.6363,-0.48063 1.6363,-0.48064 0.6797,-0.67974 0.4806,-1.63623 0.4806,1.63623 0.6798,0.67974 1.6363,0.48064 -1.6363,0.48063 -0.6798,0.67974 z"
       sodipodi:nodetypes="ccccccccccccc"
       inkscape:spray-origin="#use14788" /><path
       id="path952"
       style="display:inline;fill:#fff2dc;fill-opacity:1;stroke:none;stroke-width:1;stroke-dasharray:none"
       d="m 1383.8758,89.257304 -0.5568,-1.89566 -0.7875,-0.78751 -1.8957,-0.55684 1.8957,-0.55685 0.7875,-0.78751 0.5568,-1.89566 0.5568,1.89566 0.7876,0.78751 1.8957,0.55685 -1.8957,0.55684 -0.7876,0.78751 z"
       sodipodi:nodetypes="ccccccccccccc"
       inkscape:spray-origin="#use14788" /><path
       id="path954"
       style="display:inline;fill:#fff2dc;fill-opacity:1;stroke:none;stroke-width:1;stroke-dasharray:none"
       d="m 1391.085,3.2617574 -0.5139,-1.74945 -0.7267,-0.72677004 -1.7495,-0.51389 1.7495,-0.5139 0.7267,-0.72677 0.5139,-1.74944996 0.5139,1.74944996 0.7268,0.72677 1.7495,0.5139 -1.7495,0.51389 -0.7268,0.72677004 z"
       sodipodi:nodetypes="ccccccccccccc"
       inkscape:spray-origin="#use14788" /><path
       id="path956"
       style="display:inline;fill:#fff2dc;fill-opacity:1;stroke:none;stroke-width:1;stroke-dasharray:none"
       d="m 890.39625,94.031619 -0.321,-1.09275 -0.4539,-0.45396 -1.0928,-0.32099 1.0928,-0.321 0.4539,-0.45396 0.321,-1.09275 0.321,1.09275 0.454,0.45396 1.0928,0.321 -1.0928,0.32099 -0.454,0.45396 z"
       sodipodi:nodetypes="ccccccccccccc"
       inkscape:spray-origin="#use14788" /><path
       id="path958"
       style="display:inline;fill:#fff2dc;fill-opacity:1;stroke:none;stroke-width:1;stroke-dasharray:none"
       d="m 649.72813,67.760387 -0.4523,-1.53974 -0.6396,-0.63965 -1.5398,-0.45229 1.5398,-0.4523 0.6396,-0.63965 0.4523,-1.53974 0.4523,1.53974 0.6397,0.63965 1.5398,0.4523 -1.5398,0.45229 -0.6397,0.63965 z"
       sodipodi:nodetypes="ccccccccccccc"
       inkscape:spray-origin="#use14788" /><path
       id="path964"
       style="display:inline;fill:#fff2dc;fill-opacity:1;stroke:none;stroke-width:1;stroke-dasharray:none"
       d="m 526.54166,34.217604 -0.4958,-1.68787 -0.7011,-0.70119 -1.688,-0.4958 1.688,-0.49581 0.7011,-0.70119 0.4958,-1.68787 0.4958,1.68787 0.7012,0.70119 1.688,0.49581 -1.688,0.4958 -0.7012,0.70119 z"
       sodipodi:nodetypes="ccccccccccccc"
       inkscape:spray-origin="#use14788" /><path
       id="path966"
       style="display:inline;fill:#fff2dc;fill-opacity:1;stroke:none;stroke-width:1;stroke-dasharray:none"
       d="m 532.82754,82.851958 -0.3451,-1.17481 -0.488,-0.48805 -1.1748,-0.34509 1.1748,-0.3451 0.488,-0.48805 0.3451,-1.17481 0.3451,1.17481 0.4881,0.48805 1.1748,0.3451 -1.1748,0.34509 -0.4881,0.48805 z"
       sodipodi:nodetypes="ccccccccccccc"
       inkscape:spray-origin="#use14788" /><path
       id="path968"
       style="display:inline;fill:#fff2dc;fill-opacity:1;stroke:none;stroke-width:1;stroke-dasharray:none"
       d="m 1538.9553,43.428119 -0.4655,-1.58465 -0.6582,-0.65831 -1.5847,-0.46548 1.5847,-0.46549 0.6582,-0.65831 0.4655,-1.58465 0.4655,1.58465 0.6583,0.65831 1.5847,0.46549 -1.5847,0.46548 -0.6583,0.65831 z"
       sodipodi:nodetypes="ccccccccccccc"
       inkscape:spray-origin="#use14788" /><path
       id="path970"
       style="display:inline;fill:#fff2dc;fill-opacity:1;stroke:none;stroke-width:1;stroke-dasharray:none"
       d="m 1607.6422,17.443225 -0.3403,-1.15866 -0.4813,-0.48135 -1.1587,-0.34035 1.1587,-0.34036 0.4813,-0.48135 0.3403,-1.15866 0.3404,1.15866 0.4813,0.48135 1.1587,0.34036 -1.1587,0.34035 -0.4813,0.48135 z"
       sodipodi:nodetypes="ccccccccccccc"
       inkscape:spray-origin="#use14788" /><path
       id="path976"
       style="display:inline;fill:#fff2dc;fill-opacity:1;stroke:none;stroke-width:1;stroke-dasharray:none"
       d="m 1155.5624,66.459075 -0.6138,-2.08944 -0.8679,-0.86801 -2.0895,-0.61376 2.0895,-0.61377 0.8679,-0.86801 0.6138,-2.08944 0.6137,2.08944 0.8681,0.86801 2.0895,0.61377 -2.0895,0.61376 -0.8681,0.86801 z"
       sodipodi:nodetypes="ccccccccccccc"
       inkscape:spray-origin="#use14788" /><path
       id="path978"
       style="display:inline;fill:#fff2dc;fill-opacity:1;stroke:none;stroke-width:1;stroke-dasharray:none"
       d="m 1066.2853,15.456503 -0.4496,-1.53078 -0.6359,-0.63593 -1.5309,-0.44966 1.5309,-0.44967 0.6359,-0.63593 0.4496,-1.53078 0.4496,1.53078 0.636,0.63593 1.5309,0.44967 -1.5309,0.44966 -0.636,0.63593 z"
       sodipodi:nodetypes="ccccccccccccc"
       inkscape:spray-origin="#use14788" /><path
       id="path980"
       style="display:inline;fill:#fff2dc;fill-opacity:1;stroke:none;stroke-width:1;stroke-dasharray:none"
       d="m 1114.4144,35.04314 -0.3069,-1.04497 -0.4341,-0.43411 -1.045,-0.30695 1.045,-0.30696 0.4341,-0.43411 0.3069,-1.04497 0.307,1.04497 0.4341,0.43411 1.045,0.30696 -1.045,0.30695 -0.4341,0.43411 z"
       sodipodi:nodetypes="ccccccccccccc"
       inkscape:spray-origin="#use14788" /><path
       id="path982"
       style="display:inline;fill:#fff2dc;fill-opacity:1;stroke:none;stroke-width:1;stroke-dasharray:none"
       d="m 1114.0525,92.317841 -0.4196,-1.42857 -0.5934,-0.59348 -1.4287,-0.41963 1.4287,-0.41964 0.5934,-0.59348 0.4196,-1.42857 0.4196,1.42857 0.5935,0.59348 1.4287,0.41964 -1.4287,0.41963 -0.5935,0.59348 z"
       sodipodi:nodetypes="ccccccccccccc"
       inkscape:spray-origin="#use14788" /><path
       id="path984"
       style="display:inline;fill:#fff2dc;fill-opacity:1;stroke:none;stroke-width:1;stroke-dasharray:none"
       d="m 991.62716,167.05813 -0.5704,-1.94195 -0.8067,-0.80674 -1.942,-0.57044 1.942,-0.57045 0.8067,-0.80674 0.5704,-1.94195 0.5704,1.94195 0.8068,0.80674 1.942,0.57045 -1.942,0.57044 -0.8068,0.80674 z"
       sodipodi:nodetypes="ccccccccccccc"
       inkscape:spray-origin="#use14788" /><path
       id="path986"
       style="display:inline;fill:#fff2dc;fill-opacity:1;stroke:none;stroke-width:1;stroke-dasharray:none"
       d="m 736.05644,39.17485 -0.6628,-2.2565 -0.9374,-0.93742 -2.2566,-0.66284 2.2566,-0.66285 0.9374,-0.93742 0.6628,-2.2565 0.6628,2.2565 0.9375,0.93742 2.2566,0.66285 -2.2566,0.66284 -0.9375,0.93742 z"
       sodipodi:nodetypes="ccccccccccccc"
       inkscape:spray-origin="#use14788" /><path
       id="path988"
       style="display:inline;fill:#fff2dc;fill-opacity:1;stroke:none;stroke-width:1;stroke-dasharray:none"
       d="m 722.15924,60.976224 -0.4477,-1.52404 -0.633,-0.63314 -1.5242,-0.44768 1.5242,-0.44769 0.633,-0.63314 0.4477,-1.52404 0.4477,1.52404 0.6331,0.63314 1.5242,0.44769 -1.5242,0.44768 -0.6331,0.63314 z"
       sodipodi:nodetypes="ccccccccccccc"
       inkscape:spray-origin="#use14788" /><path
       id="path990"
       style="display:inline;fill:#fff2dc;fill-opacity:1;stroke:none;stroke-width:1;stroke-dasharray:none"
       d="m 586.95251,96.728049 -0.6164,-2.0983 -0.8716,-0.8717 -2.0984,-0.61636 2.0984,-0.61637 0.8716,-0.8717 0.6164,-2.0983 0.6163,2.0983 0.8718,0.8717 2.0984,0.61637 -2.0984,0.61636 -0.8718,0.8717 z"
       sodipodi:nodetypes="ccccccccccccc"
       inkscape:spray-origin="#use14788" /><path
       id="path992"
       style="display:inline;fill:#fff2dc;fill-opacity:1;stroke:none;stroke-width:1;stroke-dasharray:none"
       d="m 567.74149,120.77645 -0.5709,-1.94353 -0.8073,-0.8074 -1.9436,-0.5709 1.9436,-0.57091 0.8073,-0.8074 0.5709,-1.94353 0.5709,1.94353 0.8074,0.8074 1.9436,0.57091 -1.9436,0.5709 -0.8074,0.8074 z"
       sodipodi:nodetypes="ccccccccccccc"
       inkscape:spray-origin="#use14788" /><path
       id="path994"
       style="display:inline;fill:#fff2dc;fill-opacity:1;stroke:none;stroke-width:1;stroke-dasharray:none"
       d="m 996.25359,18.130258 -0.4546,-1.54757 -0.6428,-0.6429 -1.5476,-0.45459 1.5476,-0.4546 0.6428,-0.6429 0.4546,-1.54757 0.4546,1.54757 0.6429,0.6429 1.5476,0.4546 -1.5476,0.45459 -0.6429,0.6429 z"
       sodipodi:nodetypes="ccccccccccccc"
       inkscape:spray-origin="#use14788" /><path
       id="path996"
       style="display:inline;fill:#fff2dc;fill-opacity:1;stroke:none;stroke-width:1;stroke-dasharray:none"
       d="m 971.6081,10.795842 -0.5799,-1.9742801 -0.8201,-0.82018 -1.9744,-0.57993 1.9744,-0.57994 0.8201,-0.82018 0.5799,-1.97428 0.5799,1.97428 0.8202,0.82018 1.9744,0.57994 -1.9744,0.57993 -0.8202,0.82018 z"
       sodipodi:nodetypes="ccccccccccccc"
       inkscape:spray-origin="#use14788" /><path
       id="path998"
       style="display:inline;fill:#fff2dc;fill-opacity:1;stroke:none;stroke-width:1;stroke-dasharray:none"
       d="m 1066.2853,149.09404 -0.5945,-2.02371 -0.8406,-0.84072 -2.0238,-0.59445 2.0238,-0.59446 0.8406,-0.84072 0.5945,-2.02371 0.5944,2.02371 0.8408,0.84072 2.0238,0.59446 -2.0238,0.59445 -0.8408,0.84072 z"
       sodipodi:nodetypes="ccccccccccccc"
       inkscape:spray-origin="#use14788" /><path
       id="path1002"
       style="display:inline;fill:#fff2dc;fill-opacity:1;stroke:none;stroke-width:1;stroke-dasharray:none"
       d="m 1172.6872,54.333289 -0.3707,-1.26196 -0.5242,-0.52426 -1.262,-0.37069 1.262,-0.3707 0.5242,-0.52426 0.3707,-1.26196 0.3707,1.26196 0.5243,0.52426 1.262,0.3707 -1.262,0.37069 -0.5243,0.52426 z"
       sodipodi:nodetypes="ccccccccccccc"
       inkscape:spray-origin="#use14788" /><path
       id="path1004"
       style="display:inline;fill:#fff2dc;fill-opacity:1;stroke:none;stroke-width:1;stroke-dasharray:none"
       d="m 1295.2866,18.464997 -0.5855,-1.99322 -0.828,-0.82804 -1.9933,-0.5855 1.9933,-0.58551 0.828,-0.82804 0.5855,-1.99322 0.5855,1.99322 0.8281,0.82804 1.9933,0.58551 -1.9933,0.5855 -0.8281,0.82804 z"
       sodipodi:nodetypes="ccccccccccccc"
       inkscape:spray-origin="#use14788" /><path
       id="path1006"
       style="display:inline;fill:#fff2dc;fill-opacity:1;stroke:none;stroke-width:1;stroke-dasharray:none"
       d="m 1300.1709,139.94588 -0.4717,-1.60594 -0.6671,-0.66716 -1.606,-0.47173 1.606,-0.47174 0.6671,-0.66716 0.4717,-1.60594 0.4717,1.60594 0.6672,0.66716 1.606,0.47174 -1.606,0.47173 -0.6672,0.66716 z"
       sodipodi:nodetypes="ccccccccccccc"
       inkscape:spray-origin="#use14788" /><path
       id="path1008"
       style="display:inline;fill:#fff2dc;fill-opacity:1;stroke:none;stroke-width:1;stroke-dasharray:none"
       d="m 1169.0651,92.419 -0.5545,-1.88783 -0.7842,-0.78426 -1.8879,-0.55454 1.8879,-0.55455 0.7842,-0.78426 0.5545,-1.88783 0.5545,1.88783 0.7843,0.78426 1.8879,0.55455 -1.8879,0.55454 -0.7843,0.78426 z"
       sodipodi:nodetypes="ccccccccccccc"
       inkscape:spray-origin="#use14788" /><path
       id="path1010"
       style="display:inline;fill:#fff2dc;fill-opacity:1;stroke:none;stroke-width:1;stroke-dasharray:none"
       d="m 1198.7895,32.838559 -0.3344,-1.13862 -0.473,-0.47302 -1.1387,-0.33446 1.1387,-0.33447 0.473,-0.47302 0.3344,-1.13862 0.3345,1.13862 0.473,0.47302 1.1387,0.33447 -1.1387,0.33446 -0.473,0.47302 z"
       sodipodi:nodetypes="ccccccccccccc"
       inkscape:spray-origin="#use14788" /><path
       id="path1012"
       style="display:inline;fill:#fff2dc;fill-opacity:1;stroke:none;stroke-width:1;stroke-dasharray:none"
       d="m 1179.0686,105.35853 -0.6071,-2.06664 -0.8584,-0.85855 -2.0668,-0.60706 2.0668,-0.60707 0.8584,-0.85855 0.6071,-2.066639 0.607,2.066639 0.8586,0.85855 2.0668,0.60707 -2.0668,0.60706 -0.8586,0.85855 z"
       sodipodi:nodetypes="ccccccccccccc"
       inkscape:spray-origin="#use14788" /><path
       id="path1014"
       style="display:inline;fill:#fff2dc;fill-opacity:1;stroke:none;stroke-width:1;stroke-dasharray:none"
       d="m 1215.8769,39.593764 -0.6176,-2.10259 -0.8734,-0.87348 -2.1027,-0.61762 2.1027,-0.61763 0.8734,-0.87348 0.6176,-2.10259 0.6176,2.10259 0.8735,0.87348 2.1027,0.61763 -2.1027,0.61762 -0.8735,0.87348 z"
       sodipodi:nodetypes="ccccccccccccc"
       inkscape:spray-origin="#use14788" /><path
       id="path1016"
       style="display:inline;fill:#fff2dc;fill-opacity:1;stroke:none;stroke-width:1;stroke-dasharray:none"
       d="m 1091.6898,27.577624 -0.4752,-1.61774 -0.672,-0.67206 -1.6178,-0.4752 1.6178,-0.47521 0.672,-0.67206 0.4752,-1.61774 0.4752,1.61774 0.6721,0.67206 1.6178,0.47521 -1.6178,0.4752 -0.6721,0.67206 z"
       sodipodi:nodetypes="ccccccccccccc"
       inkscape:spray-origin="#use14788" /><path
       id="path1020"
       style="display:inline;fill:#fff2dc;fill-opacity:1;stroke:none;stroke-width:1;stroke-dasharray:none"
       d="m 1183.9131,52.469169 -0.3531,-1.20225 -0.4994,-0.49945 -1.2023,-0.35315 1.2023,-0.35316 0.4994,-0.49945 0.3531,-1.20225 0.3532,1.20225 0.4994,0.49945 1.2023,0.35316 -1.2023,0.35315 -0.4994,0.49945 z"
       sodipodi:nodetypes="ccccccccccccc"
       inkscape:spray-origin="#use14788" /><path
       id="path1022"
       style="display:inline;fill:#fff2dc;fill-opacity:1;stroke:none;stroke-width:1;stroke-dasharray:none"
       d="m 914.74,127.94693 -0.6128,-2.0863 -0.8667,-0.86672 -2.0864,-0.61284 2.0864,-0.61285 0.8667,-0.86672 0.6128,-2.0863 0.6128,2.0863 0.8668,0.86672 2.0864,0.61285 -2.0864,0.61284 -0.8668,0.86672 z"
       sodipodi:nodetypes="ccccccccccccc"
       inkscape:spray-origin="#use14788" /><path
       id="path1026"
       style="display:inline;fill:#fff2dc;fill-opacity:1;stroke:none;stroke-width:1;stroke-dasharray:none"
       d="m 740.43104,68.528338 -0.3721,-1.26668 -0.5261,-0.52622 -1.2668,-0.37208 1.2668,-0.37209 0.5261,-0.52622 0.3721,-1.26668 0.3721,1.26668 0.5262,0.52622 1.2668,0.37209 -1.2668,0.37208 -0.5262,0.52622 z"
       sodipodi:nodetypes="ccccccccccccc"
       inkscape:spray-origin="#use14788" /><path
       id="path1030"
       style="display:inline;fill:#fff2dc;fill-opacity:1;stroke:none;stroke-width:1;stroke-dasharray:none"
       d="m 716.45965,38.64284 -0.6383,-2.17299 -0.9027,-0.90273 -2.173,-0.6383 2.173,-0.63831 0.9027,-0.90273 0.6383,-2.17299 0.6383,2.17299 0.9028,0.90273 2.173,0.63831 -2.173,0.6383 -0.9028,0.90273 z"
       sodipodi:nodetypes="ccccccccccccc"
       inkscape:spray-origin="#use14788" /><path
       id="path1032"
       style="display:inline;fill:#fff2dc;fill-opacity:1;stroke:none;stroke-width:1;stroke-dasharray:none"
       d="m 1505.0261,161.13572 -0.387,-1.31751 -0.5473,-0.54733 -1.3175,-0.38701 1.3175,-0.38702 0.5473,-0.54733 0.387,-1.31751 0.387,1.31751 0.5474,0.54733 1.3175,0.38702 -1.3175,0.38701 -0.5474,0.54733 z"
       sodipodi:nodetypes="ccccccccccccc"
       inkscape:spray-origin="#use14788" /><path
       id="path1034"
       style="display:inline;fill:#fff2dc;fill-opacity:1;stroke:none;stroke-width:1;stroke-dasharray:none"
       d="m 1360.4061,164.48289 -0.5789,-1.97069 -0.8186,-0.81868 -1.9708,-0.57888 1.9708,-0.57889 0.8186,-0.81868 0.5789,-1.97069 0.5789,1.97069 0.8187,0.81868 1.9708,0.57889 -1.9708,0.57888 -0.8187,0.81868 z"
       sodipodi:nodetypes="ccccccccccccc"
       inkscape:spray-origin="#use14788" /><path
       id="path1042"
       style="display:inline;fill:#fff2dc;fill-opacity:1;stroke:none;stroke-width:1;stroke-dasharray:none"
       d="m 551.82074,78.158235 -0.6421,-2.18596 -0.9081,-0.90812 -2.186,-0.64211 2.186,-0.64212 0.9081,-0.90812 0.6421,-2.18596 0.6421,2.18596 0.9082,0.90812 2.186,0.64212 -2.186,0.64211 -0.9082,0.90812 z"
       sodipodi:nodetypes="ccccccccccccc"
       inkscape:spray-origin="#use14788" /><path
       id="path1044"
       style="display:inline;fill:#fff2dc;fill-opacity:1;stroke:none;stroke-width:1;stroke-dasharray:none"
       d="m 494.28586,130.88435 -0.6353,-2.16275 -0.8984,-0.89847 -2.1628,-0.6353 2.1628,-0.63531 0.8984,-0.89847 0.6353,-2.16275 0.6353,2.16275 0.8985,0.89847 2.1628,0.63531 -2.1628,0.6353 -0.8985,0.89847 z"
       sodipodi:nodetypes="ccccccccccccc"
       inkscape:spray-origin="#use14788" /><path
       id="path1046"
       style="display:inline;fill:#fff2dc;fill-opacity:1;stroke:none;stroke-width:1;stroke-dasharray:none"
       d="m 477.65687,42.504343 -0.4359,-1.48414 -0.6165,-0.61656 -1.4842,-0.43596 1.4842,-0.43597 0.6165,-0.61656 0.4359,-1.48414 0.436,1.48414 0.6165,0.61656 1.4842,0.43597 -1.4842,0.43596 -0.6165,0.61656 z"
       sodipodi:nodetypes="ccccccccccccc"
       inkscape:spray-origin="#use14788" /></g><g
     inkscape:groupmode="layer"
     id="celestial_bodies"
     inkscape:label="celestial_bodies"
     transform="translate(-441.77515,1.0000021)"><path
       id="path10493"
       style="fill:none;stroke:#fff2dc;stroke-width:1;stroke-dasharray:none;stroke-opacity:1"
       d="m 718.76672,97.78641 -2.11401,-7.196642 -2.98966,-2.989655 -7.19664,-2.114018 7.19664,-2.114006 2.98966,-2.989661 2.11401,-7.196636 2.11401,7.196636 2.98966,2.989661 7.19664,2.114006 -7.19664,2.114018 -2.98966,2.989655 z"
       sodipodi:nodetypes="ccccccccccccc" /><path
       id="path10493-7"
       style="fill:none;stroke:#fff2dc;stroke-width:1;stroke-dasharray:none;stroke-opacity:1"
       d="m 802.55776,36.195332 -1.23014,-4.187752 -1.7397,-1.739689 -4.18774,-1.230152 4.18774,-1.230145 1.7397,-1.739696 1.23014,-4.187745 1.23015,4.187745 1.7397,1.739696 4.18774,1.230145 -4.18774,1.230152 -1.7397,1.739689 z"
       sodipodi:nodetypes="ccccccccccccc" /><path
       id="path10672"
       style="fill:none;stroke:#fff2dc;stroke-width:1;stroke-dasharray:none;stroke-opacity:1"
       d="m 1303.9893,89.222137 a 21.611004,21.611004 0 0 0 -9.5165,17.872903 21.611004,21.611004 0 0 0 21.6112,21.61125 21.611004,21.611004 0 0 0 17.8714,-9.51589 21.611004,21.611004 0 0 1 -12.0932,3.73765 21.611004,21.611004 0 0 1 -21.6112,-21.61124 21.611004,21.611004 0 0 1 3.7383,-12.094673 z" /></g><g
     inkscape:groupmode="layer"
     id="layer2"
     inkscape:label="triangles"
     style="display:none;fill:none;stroke:#00ff00;stroke-opacity:1"
     transform="translate(-441.77515,1.0000021)"><path
       style="fill:none;stroke:#b3b3b3;stroke-width:1;stroke-linecap:butt;stroke-linejoin:miter;stroke-dasharray:none;stroke-opacity:1"
       d="m 985.4846,208.72845 h 74.9171 l -37.4587,64.88008"
       id="path10366" /><path
       style="fill:none;stroke:#b3b3b3;stroke-width:1;stroke-linecap:butt;stroke-linejoin:miter;stroke-dasharray:none;stroke-opacity:1"
       d="m 985.4846,208.72845 37.4585,64.88008 h -74.91705 z"
       id="path10368" /><path
       style="fill:none;stroke:#b3b3b3;stroke-width:1;stroke-linecap:butt;stroke-linejoin:miter;stroke-dasharray:none;stroke-opacity:1"
       d="m 948.02605,273.60853 37.45855,64.88008"
       id="path10370" /><path
       style="fill:none;stroke:#b3b3b3;stroke-width:1;stroke-linecap:butt;stroke-linejoin:miter;stroke-dasharray:none;stroke-opacity:1"
       d="m 985.4846,338.48861 h -74.91708 l 37.45853,-64.88008"
       id="path10372" /><path
       style="fill:none;stroke:#b3b3b3;stroke-width:1;stroke-linecap:butt;stroke-linejoin:miter;stroke-dasharray:none;stroke-opacity:1"
       d="m 1022.943,273.60853 -37.4584,64.88008"
       id="path10374" /><path
       style="fill:none;stroke:#b3b3b3;stroke-width:1;stroke-linecap:butt;stroke-linejoin:miter;stroke-dasharray:none;stroke-opacity:1"
       d="m 910.56752,338.48861 37.45853,64.88009 37.45855,-64.88009"
       id="path10376" /><path
       style="fill:none;stroke:#b3b3b3;stroke-width:1;stroke-linecap:butt;stroke-linejoin:miter;stroke-dasharray:none;stroke-opacity:1"
       d="m 985.4846,338.48861 37.4585,64.88008"
       id="path10378" /><path
       style="fill:none;stroke:#b3b3b3;stroke-width:1;stroke-linecap:butt;stroke-linejoin:miter;stroke-dasharray:none;stroke-opacity:1"
       d="M 1022.943,403.3687 H 948.02605"
       id="path10380" /><path
       style="fill:none;stroke:#b3b3b3;stroke-width:1;stroke-linecap:butt;stroke-linejoin:miter;stroke-dasharray:none;stroke-opacity:1"
       d="m 985.4846,338.48861 h 74.9171 l -37.4587,64.88008"
       id="path10382" /><path
       style="fill:none;stroke:#b3b3b3;stroke-width:1;stroke-linecap:butt;stroke-linejoin:miter;stroke-dasharray:none;stroke-opacity:1"
       d="m 1060.4017,338.48861 37.4585,-64.88008"
       id="path10384" /><path
       style="fill:none;stroke:#b3b3b3;stroke-width:1;stroke-linecap:butt;stroke-linejoin:miter;stroke-dasharray:none;stroke-opacity:1"
       d="m 1097.8602,273.60853 37.4585,64.88008"
       id="path10386" /><path
       style="fill:none;stroke:#b3b3b3;stroke-width:1;stroke-linecap:butt;stroke-linejoin:miter;stroke-dasharray:none;stroke-opacity:1"
       d="m 1060.4017,338.48861 h 74.917"
       id="path10388" /><path
       style="fill:none;stroke:#b3b3b3;stroke-width:1;stroke-linecap:butt;stroke-linejoin:miter;stroke-dasharray:none;stroke-opacity:1"
       d="m 1060.4017,338.48861 37.4585,64.88009 37.4585,-64.88009"
       id="path10390" /><path
       style="fill:none;stroke:#b3b3b3;stroke-width:1;stroke-linecap:butt;stroke-linejoin:miter;stroke-dasharray:none;stroke-opacity:1"
       d="m 1135.3187,338.48861 37.4586,64.88009 h -74.9171"
       id="path10392" /><path
       style="fill:none;stroke:#b3b3b3;stroke-width:1;stroke-linecap:butt;stroke-linejoin:miter;stroke-dasharray:none;stroke-opacity:1"
       d="m 1097.8602,273.60853 h 74.9171"
       id="path10394" /><path
       style="fill:none;stroke:#b3b3b3;stroke-width:1;stroke-linecap:butt;stroke-linejoin:miter;stroke-dasharray:none;stroke-opacity:1"
       d="m 1172.7773,273.60853 -37.4586,64.88008"
       id="path10396" /><path
       style="fill:none;stroke:#b3b3b3;stroke-width:1;stroke-linecap:butt;stroke-linejoin:miter;stroke-dasharray:none;stroke-opacity:1"
       d="m 1097.8602,273.60853 -37.4585,-64.88008 h 74.917"
       id="path10398" /><path
       style="fill:none;stroke:#b3b3b3;stroke-width:1;stroke-linecap:butt;stroke-linejoin:miter;stroke-dasharray:none;stroke-opacity:1"
       d="m 1135.3187,208.72845 -37.4585,64.88008"
       id="path10400" /><path
       style="fill:none;stroke:#b3b3b3;stroke-width:1;stroke-linecap:butt;stroke-linejoin:miter;stroke-dasharray:none;stroke-opacity:1"
       d="m 1135.3187,208.72845 37.4586,64.88008"
       id="path10402" /></g><g
     inkscape:groupmode="layer"
     id="outlines"
     inkscape:label="outlines"
     transform="translate(-441.77515,1.0000021)"><g
       id="g543"
       transform="matrix(0.38116632,0,0,0.38116632,644.71129,-49.422738)"><path
         style="fill:none;stroke:#fff2dc;stroke-width:1;stroke-linecap:butt;stroke-linejoin:miter;stroke-dasharray:none;stroke-opacity:1"
         d="m 985.4846,208.72845 -74.91708,129.76016 37.45853,64.88009 h 74.91695 l 37.4587,-64.88009 h -74.9171 l 74.9171,-129.76016 h -74.9171"
         id="path10425" /><path
         style="fill:none;stroke:#fff2dc;stroke-width:1;stroke-linecap:butt;stroke-linejoin:miter;stroke-dasharray:none;stroke-opacity:1"
         d="m 1060.4017,208.72845 37.4585,64.88008 -37.4585,64.88008 37.4585,64.88009 h 74.9171 l -37.4586,-64.88009 37.4586,-64.88008 -37.4586,-64.88008 h -74.917"
         id="path10427" /></g></g><g
     inkscape:groupmode="layer"
     id="layer1"
     inkscape:label="box"
     transform="translate(0.50000313,0.50000213)"
     style="display:none"><rect
       style="display:inline;fill:none;stroke:#00ff00;stroke-width:1;stroke-dasharray:none;stop-color:#000000"
       id="rect408"
       width="1199.2854"
       height="522.09235"
       x="-0.14216563"
       y="-0.14216463" /></g></svg>
