<?xml version="1.0" encoding="UTF-8" standalone="no"?>
<!-- Created with Inkscape (http://www.inkscape.org/) -->

<svg
   xml:space="preserve"
   sodipodi:docname="v6.svg"
   inkscape:version="1.2 (dc2aedaf03, 2022-05-15)"
   id="svg5"
   version="1.1"
   viewBox="0 0 1200 522.80804"
   preserveAspectRatio="xMidYMid slice"
   xmlns:inkscape="http://www.inkscape.org/namespaces/inkscape"
   xmlns:sodipodi="http://sodipodi.sourceforge.net/DTD/sodipodi-0.dtd"
   xmlns="http://www.w3.org/2000/svg"
   xmlns:svg="http://www.w3.org/2000/svg"><style
     id="style13121">
path { 
    vector-effect:non-scaling-stroke;
}
</style><sodipodi:namedview
     id="namedview7"
     pagecolor="#000000"
     bordercolor="#666666"
     borderopacity="1.0"
     inkscape:showpageshadow="2"
     inkscape:pageopacity="0"
     inkscape:pagecheckerboard="0"
     inkscape:deskcolor="#d1d1d1"
     inkscape:document-units="px"
     showgrid="false"
     inkscape:zoom="1.4142136"
     inkscape:cx="669.63012"
     inkscape:cy="364.8671"
     inkscape:window-width="2560"
     inkscape:window-height="1417"
     inkscape:window-x="-8"
     inkscape:window-y="-8"
     inkscape:window-maximized="1"
     inkscape:current-layer="sparkles" /><defs
     id="defs2" /><g
     inkscape:groupmode="layer"
     id="cat"
     inkscape:label="cat"
     style="display:none"
     transform="translate(-441.77515,1.0000021)"
     sodipodi:insensitive="true" /><g
     inkscape:groupmode="layer"
     id="sparkles"
     inkscape:label="sparkles"
     style="display:inline"
     transform="translate(-441.77515,1.0000021)"><path
       id="use14788"
       style="display:inline;fill:#fff2dc;fill-opacity:1;stroke:none;stroke-width:1;stroke-dasharray:none"
       d="m 814.8599,218.29821 -0.6791,-2.31204 -0.96044,-0.96048 -2.31206,-0.67916 2.31206,-0.67916 0.96044,-0.96048 0.6791,-2.31204 0.67925,2.31204 0.96044,0.96048 2.31207,0.67916 -2.31207,0.67916 -0.96044,0.96048 z"
       sodipodi:nodetypes="ccccccccccccc" /><path
       id="path2937"
       style="display:inline;fill:#fff2dc;fill-opacity:1;stroke:none;stroke-width:1;stroke-dasharray:none"
       d="m 682.22742,305.93314 -0.93055,-3.1681 -1.31605,-1.31612 -3.16815,-0.93063 3.16815,-0.93062 1.31605,-1.31613 0.93055,-3.16812 0.93076,3.16812 1.31606,1.31613 3.16814,0.93062 -3.16814,0.93063 -1.31606,1.31612 z"
       sodipodi:nodetypes="ccccccccccccc"
       inkscape:spray-origin="#use14788" /><path
       id="path2939"
       style="display:inline;fill:#fff2dc;fill-opacity:1;stroke:none;stroke-width:1;stroke-dasharray:none"
       d="m 648.08053,208.41264 -0.44977,-1.53126 -0.6361,-0.63613 -1.53127,-0.44981 1.53127,-0.44981 0.6361,-0.63613 0.44977,-1.53126 0.44986,1.53126 0.63611,0.63613 1.53128,0.44981 -1.53128,0.44981 -0.63611,0.63613 z"
       sodipodi:nodetypes="ccccccccccccc"
       inkscape:spray-origin="#use14788" /><path
       id="path2941"
       style="display:inline;fill:#fff2dc;fill-opacity:1;stroke:none;stroke-width:1;stroke-dasharray:none"
       d="m 799.91643,170.78553 -0.86602,-2.94842 -1.2248,-1.22486 -2.94846,-0.8661 2.94846,-0.86609 1.2248,-1.22487 0.86602,-2.94844 0.86621,2.94844 1.2248,1.22487 2.94845,0.86609 -2.94845,0.8661 -1.2248,1.22486 z"
       sodipodi:nodetypes="ccccccccccccc"
       inkscape:spray-origin="#use14788" /><path
       id="path2943"
       style="display:inline;fill:#fff2dc;fill-opacity:1;stroke:none;stroke-width:1;stroke-dasharray:none"
       d="m 855.11932,489.33458 -0.41123,-1.39998 -0.58156,-0.58159 -1.4,-0.41124 1.4,-0.41124 0.58156,-0.58159 0.41123,-1.39999 0.4113,1.39999 0.58155,0.58159 1.40001,0.41124 -1.40001,0.41124 -0.58155,0.58159 z"
       sodipodi:nodetypes="ccccccccccccc"
       inkscape:spray-origin="#use14788" /><path
       id="path2945"
       style="display:inline;fill:#fff2dc;fill-opacity:1;stroke:none;stroke-width:1;stroke-dasharray:none"
       d="m 863.63193,426.55189 -0.68834,-2.34337 -0.97346,-0.97351 -2.34342,-0.68836 2.34342,-0.68836 0.97346,-0.9735 0.68834,-2.34339 0.6884,2.34339 0.97346,0.9735 2.34341,0.68836 -2.34341,0.68836 -0.97346,0.97351 z"
       sodipodi:nodetypes="ccccccccccccc"
       inkscape:spray-origin="#use14788" /><path
       id="path2947"
       style="display:inline;fill:#fff2dc;fill-opacity:1;stroke:none;stroke-width:1;stroke-dasharray:none"
       d="m 787.59245,196.65992 -0.51679,-1.75946 -0.7309,-0.73095 -1.75949,-0.51684 1.75949,-0.51684 0.7309,-0.73094 0.51679,-1.75947 0.51691,1.75947 0.7309,0.73094 1.75949,0.51684 -1.75949,0.51684 -0.7309,0.73095 z"
       sodipodi:nodetypes="ccccccccccccc"
       inkscape:spray-origin="#use14788" /><path
       id="path2949"
       style="display:inline;fill:#fff2dc;fill-opacity:1;stroke:none;stroke-width:1;stroke-dasharray:none"
       d="m 698.65596,240.81981 -0.70103,-2.38668 -0.99144,-0.9915 -2.38669,-0.70108 2.38669,-0.70107 0.99144,-0.9915 0.70103,-2.38668 0.70117,2.38668 0.99144,0.9915 2.38669,0.70107 -2.38669,0.70108 -0.99144,0.9915 z"
       sodipodi:nodetypes="ccccccccccccc"
       inkscape:spray-origin="#use14788" /><path
       id="path2953"
       style="display:inline;fill:#fff2dc;fill-opacity:1;stroke:none;stroke-width:1;stroke-dasharray:none"
       d="m 956.84304,195.80667 -0.86167,-2.93355 -1.21858,-1.21868 -2.93356,-0.86173 2.93356,-0.86172 1.21858,-1.21867 0.86167,-2.93356 0.86181,2.93356 1.21866,1.21867 2.93355,0.86172 -2.93355,0.86173 -1.21866,1.21868 z"
       sodipodi:nodetypes="ccccccccccccc"
       inkscape:spray-origin="#use14788" /><path
       id="path2955"
       style="display:inline;fill:#fff2dc;fill-opacity:1;stroke:none;stroke-width:1;stroke-dasharray:none"
       d="m 956.53029,112.18213 -0.73443,-2.50041 -1.03873,-1.03875 -2.50042,-0.7345 2.50042,-0.73449 1.03873,-1.03876 0.73443,-2.50043 0.73457,2.50043 1.03873,1.03876 2.50042,0.73449 -2.50042,0.7345 -1.03873,1.03875 z"
       sodipodi:nodetypes="ccccccccccccc"
       inkscape:spray-origin="#use14788" /><path
       id="path2957"
       style="display:inline;fill:#fff2dc;fill-opacity:1;stroke:none;stroke-width:1;stroke-dasharray:none"
       d="m 782.13528,350.80607 -0.66259,-2.25581 -0.93708,-0.93714 -2.25585,-0.66265 2.25585,-0.66264 0.93708,-0.93714 0.66259,-2.25582 0.66274,2.25582 0.93709,0.93714 2.25585,0.66264 -2.25585,0.66265 -0.93709,0.93714 z"
       sodipodi:nodetypes="ccccccccccccc"
       inkscape:spray-origin="#use14788" /><path
       id="path2959"
       style="display:inline;fill:#fff2dc;fill-opacity:1;stroke:none;stroke-width:1;stroke-dasharray:none"
       d="m 772.06892,218.09714 -0.75738,-2.57847 -1.07111,-1.07117 -2.57849,-0.75743 2.57849,-0.75742 1.07111,-1.07116 0.75738,-2.57847 0.75752,2.57847 1.07111,1.07116 2.5785,0.75742 -2.5785,0.75743 -1.07111,1.07117 z"
       sodipodi:nodetypes="ccccccccccccc"
       inkscape:spray-origin="#use14788" /><path
       id="path2963"
       style="display:inline;fill:#fff2dc;fill-opacity:1;stroke:none;stroke-width:1;stroke-dasharray:none"
       d="m 798.31513,322.18138 -0.9103,-3.09915 -1.28742,-1.28749 -3.09919,-0.91038 3.09919,-0.91036 1.28742,-1.28748 0.9103,-3.09916 0.91049,3.09916 1.28741,1.28748 3.09918,0.91036 -3.09918,0.91038 -1.28741,1.28749 z"
       sodipodi:nodetypes="ccccccccccccc"
       inkscape:spray-origin="#use14788" /><path
       id="path2965"
       style="display:inline;fill:#fff2dc;fill-opacity:1;stroke:none;stroke-width:1;stroke-dasharray:none"
       d="m 991.91036,101.83397 -0.59179,-2.014884 -0.83705,-0.837047 -2.01491,-0.591871 2.01491,-0.591871 0.83705,-0.83704 0.59179,-2.014892 0.59194,2.014892 0.83705,0.83704 2.01484,0.591871 -2.01484,0.591871 -0.83705,0.837047 z"
       sodipodi:nodetypes="ccccccccccccc"
       inkscape:spray-origin="#use14788" /><path
       id="path2967"
       style="display:inline;fill:#fff2dc;fill-opacity:1;stroke:none;stroke-width:1;stroke-dasharray:none"
       d="m 787.21729,135.67122 -0.62102,-2.11426 -0.87828,-0.87833 -2.11429,-0.62107 2.11429,-0.62106 0.87828,-0.87833 0.62102,-2.11427 0.62114,2.11427 0.87828,0.87833 2.11429,0.62106 -2.11429,0.62107 -0.87828,0.87833 z"
       sodipodi:nodetypes="ccccccccccccc"
       inkscape:spray-origin="#use14788" /><path
       id="path2971"
       style="display:inline;fill:#fff2dc;fill-opacity:1;stroke:none;stroke-width:1;stroke-dasharray:none"
       d="m 1056.942,186.75428 -0.9255,-3.15102 -1.309,-1.30903 -3.151,-0.92561 3.151,-0.9256 1.309,-1.30902 0.9255,-3.15103 0.9258,3.15103 1.309,1.30902 3.151,0.9256 -3.151,0.92561 -1.309,1.30903 z"
       sodipodi:nodetypes="ccccccccccccc"
       inkscape:spray-origin="#use14788" /><path
       id="path2973"
       style="display:inline;fill:#fff2dc;fill-opacity:1;stroke:none;stroke-width:1;stroke-dasharray:none"
       d="m 868.80132,260.20153 -0.43706,-1.48801 -0.61813,-0.61816 -1.48803,-0.43711 1.48803,-0.4371 0.61813,-0.61816 0.43706,-1.48802 0.43713,1.48802 0.61813,0.61816 1.48803,0.4371 -1.48803,0.43711 -0.61813,0.61816 z"
       sodipodi:nodetypes="ccccccccccccc"
       inkscape:spray-origin="#use14788" /><path
       id="path2975"
       style="display:inline;fill:#fff2dc;fill-opacity:1;stroke:none;stroke-width:1;stroke-dasharray:none"
       d="m 893.85183,313.32007 -0.54692,-1.86203 -0.7735,-0.77355 -1.86205,-0.54697 1.86205,-0.54697 0.7735,-0.77355 0.54692,-1.86204 0.54706,1.86204 0.77351,0.77355 1.86205,0.54697 -1.86205,0.54697 -0.77351,0.77355 z"
       sodipodi:nodetypes="ccccccccccccc"
       inkscape:spray-origin="#use14788" /><path
       id="path2977"
       style="display:inline;fill:#fff2dc;fill-opacity:1;stroke:none;stroke-width:1;stroke-dasharray:none"
       d="m 823.92796,81.075015 -0.48418,-1.648416 -0.68477,-0.684795 -1.64843,-0.484225 1.64843,-0.48422 0.68477,-0.684794 0.48418,-1.648423 0.48428,1.648423 0.68477,0.684794 1.64843,0.48422 -1.64843,0.484225 -0.68477,0.684795 z"
       sodipodi:nodetypes="ccccccccccccc"
       inkscape:spray-origin="#use14788" /><path
       id="path2979"
       style="display:inline;fill:#fff2dc;fill-opacity:1;stroke:none;stroke-width:1;stroke-dasharray:none"
       d="m 863.27974,327.64698 -0.4853,-1.65233 -0.6864,-0.68643 -1.65236,-0.48537 1.65236,-0.48537 0.6864,-0.68643 0.4853,-1.65233 0.48544,1.65233 0.68641,0.68643 1.65235,0.48537 -1.65235,0.48537 -0.68641,0.68643 z"
       sodipodi:nodetypes="ccccccccccccc"
       inkscape:spray-origin="#use14788" /><path
       id="path2981"
       style="display:inline;fill:#fff2dc;fill-opacity:1;stroke:none;stroke-width:1;stroke-dasharray:none"
       d="m 849.45166,220.95929 -0.90748,-3.08954 -1.28342,-1.2835 -3.08957,-0.90755 3.08957,-0.90755 1.28342,-1.28348 0.90748,-3.08955 0.9077,3.08955 1.28342,1.28348 3.08957,0.90755 -3.08957,0.90755 -1.28342,1.2835 z"
       sodipodi:nodetypes="ccccccccccccc"
       inkscape:spray-origin="#use14788" /><path
       id="path2985"
       style="display:inline;fill:#fff2dc;fill-opacity:1;stroke:none;stroke-width:1;stroke-dasharray:none"
       d="m 923.578,134.8197 -0.41395,-1.4094 -0.58549,-0.58551 -1.40945,-0.41402 1.40945,-0.41401 0.58549,-0.58551 0.41395,-1.40941 0.41409,1.40941 0.58549,0.58551 1.40938,0.41401 -1.40938,0.41402 -0.58549,0.58551 z"
       sodipodi:nodetypes="ccccccccccccc"
       inkscape:spray-origin="#use14788" /><path
       id="path2987"
       style="display:inline;fill:#fff2dc;fill-opacity:1;stroke:none;stroke-width:1;stroke-dasharray:none"
       d="m 834.34449,378.1394 -0.44533,-1.51611 -0.6298,-0.62984 -1.51613,-0.44536 1.51613,-0.44535 0.6298,-0.62984 0.44533,-1.51613 0.44542,1.51613 0.6298,0.62984 1.51613,0.44535 -1.51613,0.44536 -0.6298,0.62984 z"
       sodipodi:nodetypes="ccccccccccccc"
       inkscape:spray-origin="#use14788" /><path
       id="path2989"
       style="display:inline;fill:#fff2dc;fill-opacity:1;stroke:none;stroke-width:1;stroke-dasharray:none"
       d="m 947.84785,203.14703 -0.50326,-1.71336 -0.71174,-0.71178 -1.7134,-0.50331 1.7134,-0.5033 0.71174,-0.71178 0.50326,-1.71337 0.50334,1.71337 0.71181,0.71178 1.71332,0.5033 -1.71332,0.50331 -0.71181,0.71178 z"
       sodipodi:nodetypes="ccccccccccccc"
       inkscape:spray-origin="#use14788" /><path
       id="path2991"
       style="display:inline;fill:#fff2dc;fill-opacity:1;stroke:none;stroke-width:1;stroke-dasharray:none"
       d="m 906.98878,175.017 -0.67245,-2.28942 -0.95107,-0.9511 -2.28944,-0.67252 2.28944,-0.67251 0.95107,-0.95109 0.67245,-2.28943 0.67259,2.28943 0.95106,0.95109 2.28945,0.67251 -2.28945,0.67252 -0.95106,0.9511 z"
       sodipodi:nodetypes="ccccccccccccc"
       inkscape:spray-origin="#use14788" /><path
       id="path2993"
       style="display:inline;fill:#fff2dc;fill-opacity:1;stroke:none;stroke-width:1;stroke-dasharray:none"
       d="m 1166.8535,358.31382 -0.8951,-3.0474 -1.2659,-1.26598 -3.0474,-0.89518 3.0474,-0.89517 1.2659,-1.26599 0.8951,-3.04741 0.8953,3.04741 1.2659,1.26599 3.0476,0.89517 -3.0476,0.89518 -1.2659,1.26598 z"
       sodipodi:nodetypes="ccccccccccccc"
       inkscape:spray-origin="#use14788" /><path
       id="path2995"
       style="display:inline;fill:#fff2dc;fill-opacity:1;stroke:none;stroke-width:1;stroke-dasharray:none"
       d="m 1186.979,245.46341 -0.6782,-2.30905 -0.9592,-0.95925 -2.3091,-0.67828 2.3091,-0.67829 0.9592,-0.95924 0.6782,-2.30907 0.6784,2.30907 0.9592,0.95924 2.3091,0.67829 -2.3091,0.67828 -0.9592,0.95925 z"
       sodipodi:nodetypes="ccccccccccccc"
       inkscape:spray-origin="#use14788" /><path
       id="path2999"
       style="display:inline;fill:#fff2dc;fill-opacity:1;stroke:none;stroke-width:1;stroke-dasharray:none"
       d="m 1047.209,455.57174 -0.4171,-1.42006 -0.5899,-0.58994 -1.4201,-0.41714 1.4201,-0.41714 0.5899,-0.58995 0.4171,-1.42007 0.4173,1.42007 0.5898,0.58995 1.4201,0.41714 -1.4201,0.41714 -0.5898,0.58994 z"
       sodipodi:nodetypes="ccccccccccccc"
       inkscape:spray-origin="#use14788" /><path
       id="path3001"
       style="display:inline;fill:#fff2dc;fill-opacity:1;stroke:none;stroke-width:1;stroke-dasharray:none"
       d="m 895.23359,248.66692 -0.92759,-3.1579 -1.31184,-1.31188 -3.15791,-0.92764 3.15791,-0.92763 1.31184,-1.31188 0.92759,-3.15792 0.92773,3.15792 1.31184,1.31188 3.15791,0.92763 -3.15791,0.92764 -1.31184,1.31188 z"
       sodipodi:nodetypes="ccccccccccccc"
       inkscape:spray-origin="#use14788" /><path
       id="path3003"
       style="display:inline;fill:#fff2dc;fill-opacity:1;stroke:none;stroke-width:1;stroke-dasharray:none"
       d="m 1187.654,417.82983 -0.4708,-1.603 -0.6659,-0.66593 -1.603,-0.47089 1.603,-0.47088 0.6659,-0.66593 0.4708,-1.60301 0.471,1.60301 0.6659,0.66593 1.603,0.47088 -1.603,0.47089 -0.6659,0.66593 z"
       sodipodi:nodetypes="ccccccccccccc"
       inkscape:spray-origin="#use14788" /><path
       id="path3005"
       style="display:inline;fill:#fff2dc;fill-opacity:1;stroke:none;stroke-width:1;stroke-dasharray:none"
       d="m 1253.6859,387.26047 -0.7161,-2.43815 -1.0128,-1.01287 -2.4382,-0.71621 2.4382,-0.7162 1.0128,-1.01287 0.7161,-2.43815 0.7164,2.43815 1.0128,1.01287 2.4381,0.7162 -2.4381,0.71621 -1.0128,1.01287 z"
       sodipodi:nodetypes="ccccccccccccc"
       inkscape:spray-origin="#use14788" /><path
       id="path3007"
       style="display:inline;fill:#fff2dc;fill-opacity:1;stroke:none;stroke-width:1;stroke-dasharray:none"
       d="m 1271.0709,105.88127 -0.4867,-1.65695 -0.6883,-0.68834 -1.6569,-0.48672 1.6569,-0.48673 0.6883,-0.68833 0.4867,-1.65694 0.4868,1.65694 0.6883,0.68833 1.657,0.48673 -1.657,0.48672 -0.6883,0.68834 z"
       sodipodi:nodetypes="ccccccccccccc"
       inkscape:spray-origin="#use14788" /><path
       id="path3009"
       style="display:inline;fill:#fff2dc;fill-opacity:1;stroke:none;stroke-width:1;stroke-dasharray:none"
       d="m 1096.023,180.26894 -0.6803,-2.31598 -0.9621,-0.96212 -2.316,-0.68032 2.316,-0.68031 0.9621,-0.96212 0.6803,-2.31599 0.6804,2.31599 0.962,0.96212 2.3161,0.68031 -2.3161,0.68032 -0.962,0.96212 z"
       sodipodi:nodetypes="ccccccccccccc"
       inkscape:spray-origin="#use14788" /><path
       id="path3011"
       style="display:inline;fill:#fff2dc;fill-opacity:1;stroke:none;stroke-width:1;stroke-dasharray:none"
       d="m 968.09282,430.64264 -0.64139,-2.1836 -0.90705,-0.90713 -2.18359,-0.64143 2.18359,-0.64143 0.90705,-0.90713 0.64139,-2.18359 0.64153,2.18359 0.90705,0.90713 2.18366,0.64143 -2.18366,0.64143 -0.90705,0.90713 z"
       sodipodi:nodetypes="ccccccccccccc"
       inkscape:spray-origin="#use14788" /><path
       id="path3013"
       style="display:inline;fill:#fff2dc;fill-opacity:1;stroke:none;stroke-width:1;stroke-dasharray:none"
       d="m 1369.8372,326.40516 -0.578,-1.96777 -0.8174,-0.81747 -1.9679,-0.57803 1.9679,-0.57803 0.8174,-0.81747 0.578,-1.96778 0.578,1.96778 0.8175,0.81747 1.9678,0.57803 -1.9678,0.57803 -0.8175,0.81747 z"
       sodipodi:nodetypes="ccccccccccccc"
       inkscape:spray-origin="#use14788" /><path
       id="path3015"
       style="display:inline;fill:#fff2dc;fill-opacity:1;stroke:none;stroke-width:1;stroke-dasharray:none"
       d="m 1333.8608,301.75704 -0.4534,-1.54393 -0.6414,-0.6414 -1.5439,-0.45353 1.5439,-0.45353 0.6414,-0.6414 0.4534,-1.54394 0.4536,1.54394 0.6414,0.6414 1.5439,0.45353 -1.5439,0.45353 -0.6414,0.6414 z"
       sodipodi:nodetypes="ccccccccccccc"
       inkscape:spray-origin="#use14788" /><path
       id="path3017"
       style="display:inline;fill:#fff2dc;fill-opacity:1;stroke:none;stroke-width:1;stroke-dasharray:none"
       d="m 1031.3252,430.14409 -0.6159,-2.09663 -0.8709,-0.87099 -2.0966,-0.61588 2.0966,-0.61587 0.8709,-0.871 0.6159,-2.09661 0.616,2.09661 0.8709,0.871 2.0966,0.61587 -2.0966,0.61588 -0.8709,0.87099 z"
       sodipodi:nodetypes="ccccccccccccc"
       inkscape:spray-origin="#use14788" /><path
       id="path3019"
       style="display:inline;fill:#fff2dc;fill-opacity:1;stroke:none;stroke-width:1;stroke-dasharray:none"
       d="m 1067.6335,436.13936 -0.639,-2.17579 -0.9039,-0.90389 -2.1758,-0.63914 2.1758,-0.63914 0.9039,-0.90389 0.639,-2.17581 0.6392,2.17581 0.9039,0.90389 2.1758,0.63914 -2.1758,0.63914 -0.9039,0.90389 z"
       sodipodi:nodetypes="ccccccccccccc"
       inkscape:spray-origin="#use14788" /><path
       id="path3021"
       style="display:inline;fill:#fff2dc;fill-opacity:1;stroke:none;stroke-width:1;stroke-dasharray:none"
       d="m 1316.837,359.58789 -0.5762,-1.96159 -0.8148,-0.8149 -1.9617,-0.57621 1.9617,-0.57622 0.8148,-0.81489 0.5762,-1.9616 0.5763,1.9616 0.8148,0.81489 1.9617,0.57622 -1.9617,0.57621 -0.8148,0.8149 z"
       sodipodi:nodetypes="ccccccccccccc"
       inkscape:spray-origin="#use14788" /><path
       id="path3023"
       style="display:inline;fill:#fff2dc;fill-opacity:1;stroke:none;stroke-width:1;stroke-dasharray:none"
       d="m 1264.9013,342.91945 -0.5386,-1.83373 -0.7618,-0.76179 -1.8337,-0.53866 1.8337,-0.53865 0.7618,-0.76178 0.5386,-1.83373 0.5387,1.83373 0.7617,0.76178 1.8338,0.53865 -1.8338,0.53866 -0.7617,0.76179 z"
       sodipodi:nodetypes="ccccccccccccc"
       inkscape:spray-origin="#use14788" /><path
       id="path3027"
       style="display:inline;fill:#fff2dc;fill-opacity:1;stroke:none;stroke-width:1;stroke-dasharray:none"
       d="m 1175.2607,90.167833 -0.8863,-3.017489 -1.2535,-1.253549 -3.0175,-0.886393 3.0175,-0.886379 1.2535,-1.253556 0.8863,-3.017497 0.8865,3.017497 1.2535,1.253556 3.0175,0.886379 -3.0175,0.886393 -1.2535,1.253549 z"
       sodipodi:nodetypes="ccccccccccccc"
       inkscape:spray-origin="#use14788" /><path
       id="path3029"
       style="display:inline;fill:#fff2dc;fill-opacity:1;stroke:none;stroke-width:1;stroke-dasharray:none"
       d="m 1020.1902,161.80583 -0.5386,-1.83369 -0.7617,-0.76176 -1.8337,-0.53864 1.8337,-0.53864 0.7617,-0.76177 0.5386,-1.83368 0.5387,1.83368 0.7617,0.76177 1.8337,0.53864 -1.8337,0.53864 -0.7617,0.76176 z"
       sodipodi:nodetypes="ccccccccccccc"
       inkscape:spray-origin="#use14788" /><path
       id="path3031"
       style="display:inline;fill:#fff2dc;fill-opacity:1;stroke:none;stroke-width:1;stroke-dasharray:none"
       d="m 1120.5632,95.56483 -0.4236,-1.441943 -0.5989,-0.599021 -1.442,-0.423573 1.442,-0.423565 0.5989,-0.599028 0.4236,-1.441943 0.4237,1.441943 0.5989,0.599028 1.4419,0.423565 -1.4419,0.423573 -0.5989,0.599021 z"
       sodipodi:nodetypes="ccccccccccccc"
       inkscape:spray-origin="#use14788" /><path
       id="path3033"
       style="display:inline;fill:#fff2dc;fill-opacity:1;stroke:none;stroke-width:1;stroke-dasharray:none"
       d="m 1282.8086,229.0262 -0.8168,-2.7809 -1.1553,-1.15526 -2.781,-0.81689 2.781,-0.81688 1.1553,-1.15526 0.8168,-2.7809 0.817,2.7809 1.1552,1.15526 2.7809,0.81688 -2.7809,0.81689 -1.1552,1.15526 z"
       sodipodi:nodetypes="ccccccccccccc"
       inkscape:spray-origin="#use14788" /><path
       id="path3035"
       style="display:inline;fill:#fff2dc;fill-opacity:1;stroke:none;stroke-width:1;stroke-dasharray:none"
       d="m 1399.5123,366.84298 -0.5538,-1.8854 -0.7832,-0.78325 -1.8855,-0.55384 1.8855,-0.55383 0.7832,-0.78326 0.5538,-1.88541 0.5539,1.88541 0.7832,0.78326 1.8855,0.55383 -1.8855,0.55384 -0.7832,0.78325 z"
       sodipodi:nodetypes="ccccccccccccc"
       inkscape:spray-origin="#use14788" /><path
       id="path3037"
       style="display:inline;fill:#fff2dc;fill-opacity:1;stroke:none;stroke-width:1;stroke-dasharray:none"
       d="m 1231.2801,254.60286 -0.7468,-2.5423 -1.056,-1.05615 -2.5424,-0.74681 2.5424,-0.7468 1.056,-1.05615 0.7468,-2.5423 0.7469,2.5423 1.0561,1.05615 2.5423,0.7468 -2.5423,0.74681 -1.0561,1.05615 z"
       sodipodi:nodetypes="ccccccccccccc"
       inkscape:spray-origin="#use14788" /><path
       id="path3041"
       style="display:inline;fill:#fff2dc;fill-opacity:1;stroke:none;stroke-width:1;stroke-dasharray:none"
       d="m 1317.7058,400.22874 -0.5446,-1.85395 -0.7701,-0.77019 -1.854,-0.5446 1.854,-0.54459 0.7701,-0.7702 0.5446,-1.85397 0.5447,1.85397 0.7701,0.7702 1.8539,0.54459 -1.8539,0.5446 -0.7701,0.77019 z"
       sodipodi:nodetypes="ccccccccccccc"
       inkscape:spray-origin="#use14788" /><path
       id="path3043"
       style="display:inline;fill:#fff2dc;fill-opacity:1;stroke:none;stroke-width:1;stroke-dasharray:none"
       d="m 1224.672,97.503453 -0.5452,-1.856184 -0.771,-0.771112 -1.8562,-0.545252 1.8562,-0.545251 0.771,-0.771113 0.5452,-1.856184 0.5454,1.856184 0.771,0.771113 1.8562,0.545251 -1.8562,0.545252 -0.771,0.771112 z"
       sodipodi:nodetypes="ccccccccccccc"
       inkscape:spray-origin="#use14788" /><path
       id="path3045"
       style="display:inline;fill:#fff2dc;fill-opacity:1;stroke:none;stroke-width:1;stroke-dasharray:none"
       d="m 1143.1449,452.08503 -0.7909,-2.69228 -1.1183,-1.11845 -2.6923,-0.79086 2.6923,-0.79085 1.1183,-1.11845 0.7909,-2.69229 0.7909,2.69229 1.1184,1.11845 2.6923,0.79085 -2.6923,0.79086 -1.1184,1.11845 z"
       sodipodi:nodetypes="ccccccccccccc"
       inkscape:spray-origin="#use14788" /><path
       id="path3047"
       style="display:inline;fill:#fff2dc;fill-opacity:1;stroke:none;stroke-width:1;stroke-dasharray:none"
       d="m 1383.7155,88.101406 -0.5221,-1.777546 -0.7384,-0.738449 -1.7776,-0.522157 1.7776,-0.52215 0.7384,-0.738448 0.5221,-1.777553 0.5223,1.777553 0.7383,0.738448 1.7776,0.52215 -1.7776,0.522157 -0.7383,0.738449 z"
       sodipodi:nodetypes="ccccccccccccc"
       inkscape:spray-origin="#use14788" /><path
       id="path3049"
       style="display:inline;fill:#fff2dc;fill-opacity:1;stroke:none;stroke-width:1;stroke-dasharray:none"
       d="m 1341.0874,423.56156 -0.8118,-2.7638 -1.1481,-1.14816 -2.7639,-0.81187 2.7639,-0.81187 1.1481,-1.14816 0.8118,-2.7638 0.812,2.7638 1.1481,1.14816 2.7637,0.81187 -2.7637,0.81187 -1.1481,1.14816 z"
       sodipodi:nodetypes="ccccccccccccc"
       inkscape:spray-origin="#use14788" /><path
       id="path3051"
       style="display:inline;fill:#fff2dc;fill-opacity:1;stroke:none;stroke-width:1;stroke-dasharray:none"
       d="m 1347.0956,267.58144 -0.9355,-3.18513 -1.3232,-1.3232 -3.1852,-0.93564 3.1852,-0.93563 1.3232,-1.32321 0.9355,-3.18514 0.9357,3.18514 1.3232,1.32321 3.1852,0.93563 -3.1852,0.93564 -1.3232,1.3232 z"
       sodipodi:nodetypes="ccccccccccccc"
       inkscape:spray-origin="#use14788" /><path
       id="path3053"
       style="display:inline;fill:#fff2dc;fill-opacity:1;stroke:none;stroke-width:1;stroke-dasharray:none"
       d="m 1331.7314,163.19144 -0.8357,-2.84512 -1.1818,-1.18194 -2.8451,-0.83575 2.8451,-0.83575 1.1818,-1.18193 0.8357,-2.84512 0.8359,2.84512 1.1819,1.18193 2.8451,0.83575 -2.8451,0.83575 -1.1819,1.18194 z"
       sodipodi:nodetypes="ccccccccccccc"
       inkscape:spray-origin="#use14788" /><path
       id="path3055"
       style="display:inline;fill:#fff2dc;fill-opacity:1;stroke:none;stroke-width:1;stroke-dasharray:none"
       d="m 1298.4132,389.30718 -0.8767,-2.98481 -1.24,-1.23999 -2.9848,-0.87679 2.9848,-0.87678 1.24,-1.23998 0.8767,-2.98483 0.8769,2.98483 1.2399,1.23998 2.9848,0.87678 -2.9848,0.87679 -1.2399,1.23999 z"
       sodipodi:nodetypes="ccccccccccccc"
       inkscape:spray-origin="#use14788" /><path
       id="path3057"
       style="display:inline;fill:#fff2dc;fill-opacity:1;stroke:none;stroke-width:1;stroke-dasharray:none"
       d="m 1375.1359,286.36421 -0.6395,-2.17743 -0.9046,-0.90456 -2.1774,-0.63961 2.1774,-0.63961 0.9046,-0.90456 0.6395,-2.17742 0.6397,2.17742 0.9045,0.90456 2.1774,0.63961 -2.1774,0.63961 -0.9045,0.90456 z"
       sodipodi:nodetypes="ccccccccccccc"
       inkscape:spray-origin="#use14788" /><path
       id="path3059"
       style="display:inline;fill:#fff2dc;fill-opacity:1;stroke:none;stroke-width:1;stroke-dasharray:none"
       d="m 1242.1996,166.03476 -0.8858,-3.01558 -1.2527,-1.25276 -3.0156,-0.88584 3.0156,-0.88582 1.2527,-1.25276 0.8858,-3.01559 0.8859,3.01559 1.2527,1.25276 3.0156,0.88582 -3.0156,0.88584 -1.2527,1.25276 z"
       sodipodi:nodetypes="ccccccccccccc"
       inkscape:spray-origin="#use14788" /><path
       id="path3061"
       style="display:inline;fill:#fff2dc;fill-opacity:1;stroke:none;stroke-width:1;stroke-dasharray:none"
       d="m 1249.358,400.49731 -0.7999,-2.72353 -1.1315,-1.13144 -2.7235,-0.80005 2.7235,-0.80003 1.1315,-1.13144 0.7999,-2.72355 0.8002,2.72355 1.1314,1.13144 2.7235,0.80003 -2.7235,0.80005 -1.1314,1.13144 z"
       sodipodi:nodetypes="ccccccccccccc"
       inkscape:spray-origin="#use14788" /><path
       id="path3063"
       style="display:inline;fill:#fff2dc;fill-opacity:1;stroke:none;stroke-width:1;stroke-dasharray:none"
       d="m 1373.065,472.53862 -0.6968,-2.37261 -0.9857,-0.98566 -2.3726,-0.69695 2.3726,-0.69695 0.9857,-0.98565 0.6968,-2.37262 0.6971,2.37262 0.9855,0.98565 2.3727,0.69695 -2.3727,0.69695 -0.9855,0.98566 z"
       sodipodi:nodetypes="ccccccccccccc"
       inkscape:spray-origin="#use14788" /><path
       id="path3067"
       style="display:inline;fill:#fff2dc;fill-opacity:1;stroke:none;stroke-width:1;stroke-dasharray:none"
       d="m 1406.4385,238.58577 -0.5039,-1.71537 -0.7126,-0.71262 -1.7154,-0.50389 1.7154,-0.50388 0.7126,-0.71262 0.5039,-1.71538 0.5039,1.71538 0.7126,0.71262 1.7154,0.50388 -1.7154,0.50389 -0.7126,0.71262 z"
       sodipodi:nodetypes="ccccccccccccc"
       inkscape:spray-origin="#use14788" /><path
       id="path3069"
       style="display:inline;fill:#fff2dc;fill-opacity:1;stroke:none;stroke-width:1;stroke-dasharray:none"
       d="m 1512.9522,416.86837 -0.914,-3.11134 -1.2924,-1.29254 -3.1114,-0.91396 3.1114,-0.91396 1.2924,-1.29254 0.914,-3.11136 0.914,3.11136 1.2925,1.29254 3.1113,0.91396 -3.1113,0.91396 -1.2925,1.29254 z"
       sodipodi:nodetypes="ccccccccccccc"
       inkscape:spray-origin="#use14788" /><path
       id="path3071"
       style="display:inline;fill:#fff2dc;fill-opacity:1;stroke:none;stroke-width:1;stroke-dasharray:none"
       d="m 1425.6419,290.32376 -0.579,-1.97134 -0.8189,-0.81896 -1.9714,-0.57909 1.9714,-0.57908 0.8189,-0.81895 0.579,-1.97137 0.5792,1.97137 0.8189,0.81895 1.9714,0.57908 -1.9714,0.57909 -0.8189,0.81896 z"
       sodipodi:nodetypes="ccccccccccccc"
       inkscape:spray-origin="#use14788" /><path
       id="path3073"
       style="display:inline;fill:#fff2dc;fill-opacity:1;stroke:none;stroke-width:1;stroke-dasharray:none"
       d="m 1614.4288,287.27138 -0.6001,-2.04292 -0.8486,-0.8487 -2.043,-0.60011 2.043,-0.6001 0.8486,-0.84869 0.6001,-2.04293 0.6002,2.04293 0.8486,0.84869 2.0431,0.6001 -2.0431,0.60011 -0.8486,0.8487 z"
       sodipodi:nodetypes="ccccccccccccc"
       inkscape:spray-origin="#use14788" /><path
       id="path3075"
       style="display:inline;fill:#fff2dc;fill-opacity:1;stroke:none;stroke-width:1;stroke-dasharray:none"
       d="m 1276.0197,430.03327 -0.9191,-3.12922 -1.3,-1.29997 -3.1292,-0.91921 3.1292,-0.9192 1.3,-1.29996 0.9191,-3.12923 0.9193,3.12923 1.2999,1.29996 3.1294,0.9192 -3.1294,0.91921 -1.2999,1.29997 z"
       sodipodi:nodetypes="ccccccccccccc"
       inkscape:spray-origin="#use14788" /><path
       id="path3077"
       style="display:inline;fill:#fff2dc;fill-opacity:1;stroke:none;stroke-width:1;stroke-dasharray:none"
       d="m 1425.9142,197.70035 -0.4771,-1.62424 -0.6747,-0.67476 -1.6243,-0.47712 1.6243,-0.47713 0.6747,-0.67475 0.4771,-1.62425 0.4772,1.62425 0.6747,0.67475 1.6243,0.47713 -1.6243,0.47712 -0.6747,0.67476 z"
       sodipodi:nodetypes="ccccccccccccc"
       inkscape:spray-origin="#use14788" /><path
       id="path3077-7"
       style="display:inline;fill:#fff2dc;fill-opacity:1;stroke:none;stroke-width:1;stroke-dasharray:none"
       d="m 1253.5124,205.74371 -0.4771,-1.62424 -0.6747,-0.67476 -1.6243,-0.47711 1.6243,-0.47712 0.6747,-0.67476 0.4771,-1.62424 0.4771,1.62424 0.6748,0.67476 1.6243,0.47712 -1.6243,0.47711 -0.6748,0.67476 z"
       sodipodi:nodetypes="ccccccccccccc"
       inkscape:spray-origin="#use14788" /><path
       id="path3079"
       style="display:inline;fill:#fff2dc;fill-opacity:1;stroke:none;stroke-width:1;stroke-dasharray:none"
       d="m 1523.844,251.19839 -0.4454,-1.51663 -0.6301,-0.63005 -1.5166,-0.44551 1.5166,-0.4455 0.6301,-0.63005 0.4454,-1.51662 0.4456,1.51662 0.63,0.63005 1.5167,0.4455 -1.5167,0.44551 -0.63,0.63005 z"
       sodipodi:nodetypes="ccccccccccccc"
       inkscape:spray-origin="#use14788" /><path
       id="path3081"
       style="display:inline;fill:#fff2dc;fill-opacity:1;stroke:none;stroke-width:1;stroke-dasharray:none"
       d="m 1316.4622,345.57147 -0.8967,-3.05272 -1.2681,-1.26819 -3.0528,-0.89676 3.0528,-0.89673 1.2681,-1.26819 0.8967,-3.05273 0.8968,3.05273 1.2682,1.26819 3.0527,0.89673 -3.0527,0.89676 -1.2682,1.26819 z"
       sodipodi:nodetypes="ccccccccccccc"
       inkscape:spray-origin="#use14788" /><path
       id="path3083"
       style="display:inline;fill:#fff2dc;fill-opacity:1;stroke:none;stroke-width:1;stroke-dasharray:none"
       d="m 1215.7499,260.6892 -0.8199,-2.7914 -1.1596,-1.15962 -2.7914,-0.81998 2.7914,-0.81996 1.1596,-1.15963 0.8199,-2.79141 0.8201,2.79141 1.1596,1.15963 2.7914,0.81996 -2.7914,0.81998 -1.1596,1.15962 z"
       sodipodi:nodetypes="ccccccccccccc"
       inkscape:spray-origin="#use14788" /><path
       id="path3085"
       style="display:inline;fill:#fff2dc;fill-opacity:1;stroke:none;stroke-width:1;stroke-dasharray:none"
       d="m 1331.7016,401.76018 -0.7113,-2.42181 -1.006,-1.00609 -2.4218,-0.71141 2.4218,-0.7114 1.006,-1.0061 0.7113,-2.42181 0.7116,2.42181 1.006,1.0061 2.4218,0.7114 -2.4218,0.71141 -1.006,1.00609 z"
       sodipodi:nodetypes="ccccccccccccc"
       inkscape:spray-origin="#use14788" /><path
       id="path3087"
       style="display:inline;fill:#fff2dc;fill-opacity:1;stroke:none;stroke-width:1;stroke-dasharray:none"
       d="m 591.12423,283.66467 -0.69869,-2.3787 -0.98813,-0.98818 -2.37872,-0.69874 2.37872,-0.69874 0.98813,-0.98818 0.69869,-2.3787 0.69883,2.3787 0.98813,0.98818 2.37873,0.69874 -2.37873,0.69874 -0.98813,0.98818 z"
       sodipodi:nodetypes="ccccccccccccc"
       inkscape:spray-origin="#use14788" /><path
       id="path3089"
       style="display:inline;fill:#fff2dc;fill-opacity:1;stroke:none;stroke-width:1;stroke-dasharray:none"
       d="m 903.37626,381.54489 -0.94612,-3.22109 -1.33803,-1.33814 -3.22118,-0.94619 3.22118,-0.94619 1.33803,-1.33814 0.94612,-3.2211 0.94634,3.2211 1.33802,1.33814 3.22119,0.94619 -3.22119,0.94619 -1.33802,1.33814 z"
       sodipodi:nodetypes="ccccccccccccc"
       inkscape:spray-origin="#use14788" /><path
       id="path3091"
       style="display:inline;fill:#fff2dc;fill-opacity:1;stroke:none;stroke-width:1;stroke-dasharray:none"
       d="m 903.95409,204.58016 -0.47814,-1.62779 -0.67617,-0.67623 -1.6278,-0.47817 1.6278,-0.47815 0.67617,-0.67624 0.47814,-1.62779 0.47822,1.62779 0.67617,0.67624 1.62788,0.47815 -1.62788,0.47817 -0.67617,0.67623 z"
       sodipodi:nodetypes="ccccccccccccc"
       inkscape:spray-origin="#use14788" /><path
       id="path3093"
       style="display:inline;fill:#fff2dc;fill-opacity:1;stroke:none;stroke-width:1;stroke-dasharray:none"
       d="m 720.77378,196.99331 -0.75947,-2.58564 -1.07409,-1.07414 -2.58566,-0.75953 2.58566,-0.75952 1.07409,-1.07415 0.75947,-2.58563 0.75962,2.58563 1.07409,1.07415 2.58566,0.75952 -2.58566,0.75953 -1.07409,1.07414 z"
       sodipodi:nodetypes="ccccccccccccc"
       inkscape:spray-origin="#use14788" /><path
       id="path3095"
       style="display:inline;fill:#fff2dc;fill-opacity:1;stroke:none;stroke-width:1;stroke-dasharray:none"
       d="m 856.58581,395.47416 -0.82217,-2.79911 -1.16276,-1.16282 -2.79915,-0.82224 2.79915,-0.82224 1.16276,-1.16283 0.82217,-2.79911 0.82231,2.79911 1.16276,1.16283 2.79914,0.82224 -2.79914,0.82224 -1.16276,1.16282 z"
       sodipodi:nodetypes="ccccccccccccc"
       inkscape:spray-origin="#use14788" /><path
       id="path3097"
       style="display:inline;fill:#fff2dc;fill-opacity:1;stroke:none;stroke-width:1;stroke-dasharray:none"
       d="m 642.60794,240.11294 -0.73642,-2.50718 -1.0415,-1.04155 -2.50719,-0.73648 2.50719,-0.73647 1.0415,-1.04156 0.73642,-2.50717 0.73657,2.50717 1.0415,1.04156 2.5072,0.73647 -2.5072,0.73648 -1.0415,1.04155 z"
       sodipodi:nodetypes="ccccccccccccc"
       inkscape:spray-origin="#use14788" /><path
       id="path3099"
       style="display:inline;fill:#fff2dc;fill-opacity:1;stroke:none;stroke-width:1;stroke-dasharray:none"
       d="m 871.51294,368.6209 -0.47771,-1.62649 -0.67567,-0.67569 -1.62652,-0.47778 1.62652,-0.47778 0.67567,-0.67569 0.47771,-1.62649 0.47786,1.62649 0.67566,0.67569 1.62653,0.47778 -1.62653,0.47778 -0.67566,0.67569 z"
       sodipodi:nodetypes="ccccccccccccc"
       inkscape:spray-origin="#use14788" /><path
       id="path3101"
       style="display:inline;fill:#fff2dc;fill-opacity:1;stroke:none;stroke-width:1;stroke-dasharray:none"
       d="m 685.50946,207.84494 -0.74394,-2.53278 -1.05213,-1.05218 -2.53281,-0.74401 2.53281,-0.74399 1.05213,-1.05219 0.74394,-2.53277 0.7441,2.53277 1.05213,1.05219 2.5328,0.74399 -2.5328,0.74401 -1.05213,1.05218 z"
       sodipodi:nodetypes="ccccccccccccc"
       inkscape:spray-origin="#use14788" /><path
       id="path3103"
       style="display:inline;fill:#fff2dc;fill-opacity:1;stroke:none;stroke-width:1;stroke-dasharray:none"
       d="m 701.31473,199.54959 -0.58978,-2.00796 -0.83413,-0.83417 -2.00799,-0.58984 2.00799,-0.58984 0.83413,-0.83417 0.58978,-2.00797 0.58992,2.00797 0.83413,0.83417 2.00799,0.58984 -2.00799,0.58984 -0.83413,0.83417 z"
       sodipodi:nodetypes="ccccccccccccc"
       inkscape:spray-origin="#use14788" /><path
       id="path3105"
       style="display:inline;fill:#fff2dc;fill-opacity:1;stroke:none;stroke-width:1;stroke-dasharray:none"
       d="m 557.38392,397.6855 -0.56242,-1.91476 -0.79541,-0.79545 -1.91477,-0.56246 1.91477,-0.56246 0.79541,-0.79544 0.56242,-1.91476 0.56252,1.91476 0.79541,0.79544 1.91479,0.56246 -1.91479,0.56246 -0.79541,0.79545 z"
       sodipodi:nodetypes="ccccccccccccc"
       inkscape:spray-origin="#use14788" /><path
       id="path3107"
       style="display:inline;fill:#fff2dc;fill-opacity:1;stroke:none;stroke-width:1;stroke-dasharray:none"
       d="m 633.92065,428.81352 -0.54681,-1.86164 -0.77335,-0.77338 -1.86166,-0.54686 1.86166,-0.54686 0.77335,-0.77338 0.54681,-1.86165 0.54692,1.86165 0.77335,0.77338 1.86166,0.54686 -1.86166,0.54686 -0.77335,0.77338 z"
       sodipodi:nodetypes="ccccccccccccc"
       inkscape:spray-origin="#use14788" /><path
       id="path3109"
       style="display:inline;fill:#fff2dc;fill-opacity:1;stroke:none;stroke-width:1;stroke-dasharray:none"
       d="m 793.94647,250.21263 -0.4104,-1.39721 -0.58041,-0.58044 -1.39722,-0.41043 1.39722,-0.41042 0.58041,-0.58045 0.4104,-1.39721 0.41049,1.39721 0.58041,0.58045 1.39722,0.41042 -1.39722,0.41043 -0.58041,0.58044 z"
       sodipodi:nodetypes="ccccccccccccc"
       inkscape:spray-origin="#use14788" /><path
       id="path3111"
       style="display:inline;fill:#fff2dc;fill-opacity:1;stroke:none;stroke-width:1;stroke-dasharray:none"
       d="m 452.81961,166.32774 -0.58608,-1.99532 -0.82887,-0.82892 -1.99534,-0.58612 1.99534,-0.58613 0.82887,-0.82891 0.58608,-1.99534 0.5862,1.99534 0.82887,0.82891 1.99535,0.58613 -1.99535,0.58612 -0.82887,0.82892 z"
       sodipodi:nodetypes="ccccccccccccc"
       inkscape:spray-origin="#use14788" /><path
       id="path3113"
       style="display:inline;fill:#fff2dc;fill-opacity:1;stroke:none;stroke-width:1;stroke-dasharray:none"
       d="m 542.40465,205.69921 -0.48693,-1.65779 -0.68866,-0.6887 -1.65781,-0.48698 1.65781,-0.48697 0.68866,-0.6887 0.48693,-1.65779 0.48704,1.65779 0.68866,0.6887 1.65781,0.48697 -1.65781,0.48698 -0.68866,0.6887 z"
       sodipodi:nodetypes="ccccccccccccc"
       inkscape:spray-origin="#use14788" /><path
       id="path3115"
       style="display:inline;fill:#fff2dc;fill-opacity:1;stroke:none;stroke-width:1;stroke-dasharray:none"
       d="m 523.15585,180.40691 -0.78446,-2.67072 -1.10943,-1.1095 -2.67076,-0.78452 2.67076,-0.78452 1.10943,-1.10949 0.78446,-2.67074 0.78463,2.67074 1.10943,1.10949 2.67077,0.78452 -2.67077,0.78452 -1.10943,1.1095 z"
       sodipodi:nodetypes="ccccccccccccc"
       inkscape:spray-origin="#use14788" /><path
       id="path3117"
       style="display:inline;fill:#fff2dc;fill-opacity:1;stroke:none;stroke-width:1;stroke-dasharray:none"
       d="m 1116.504,443.75948 -0.7152,-2.43498 -1.0115,-1.01158 -2.435,-0.71527 2.435,-0.71527 1.0115,-1.01156 0.7152,-2.43499 0.7154,2.43499 1.0115,1.01156 2.435,0.71527 -2.435,0.71527 -1.0115,1.01158 z"
       sodipodi:nodetypes="ccccccccccccc"
       inkscape:spray-origin="#use14788" /><path
       id="path3123"
       style="display:inline;fill:#fff2dc;fill-opacity:1;stroke:none;stroke-width:1;stroke-dasharray:none"
       d="m 883.58524,424.66834 -0.78559,-2.67474 -1.11116,-1.11117 -2.67476,-0.7857 2.67476,-0.7857 1.11116,-1.11117 0.78559,-2.67475 0.78583,2.67475 1.11115,1.11117 2.67477,0.7857 -2.67477,0.7857 -1.11115,1.11117 z"
       sodipodi:nodetypes="ccccccccccccc"
       inkscape:spray-origin="#use14788" /><path
       id="path3129"
       style="display:inline;fill:#fff2dc;fill-opacity:1;stroke:none;stroke-width:1;stroke-dasharray:none"
       d="m 947.13117,237.57023 -0.72118,-2.45533 -1.01998,-1.02001 -2.45534,-0.72126 2.45534,-0.72125 1.01998,-1.02002 0.72118,-2.45534 0.72133,2.45534 1.01998,1.02002 2.45542,0.72125 -2.45542,0.72126 -1.01998,1.02001 z"
       sodipodi:nodetypes="ccccccccccccc"
       inkscape:spray-origin="#use14788" /><path
       id="path3131"
       style="display:inline;fill:#fff2dc;fill-opacity:1;stroke:none;stroke-width:1;stroke-dasharray:none"
       d="m 1249.1407,322.45797 -0.5081,-1.7296 -0.7184,-0.71853 -1.7297,-0.50807 1.7297,-0.50807 0.7184,-0.71853 0.5081,-1.72961 0.5081,1.72961 0.7185,0.71853 1.7296,0.50807 -1.7296,0.50807 -0.7185,0.71853 z"
       sodipodi:nodetypes="ccccccccccccc"
       inkscape:spray-origin="#use14788" /><path
       id="path3133"
       style="display:inline;fill:#fff2dc;fill-opacity:1;stroke:none;stroke-width:1;stroke-dasharray:none"
       d="m 1345.5225,486.39285 -0.438,-1.49089 -0.6193,-0.61936 -1.4909,-0.43795 1.4909,-0.43795 0.6193,-0.61936 0.438,-1.49088 0.438,1.49088 0.6193,0.61936 1.4909,0.43795 -1.4909,0.43795 -0.6193,0.61936 z"
       sodipodi:nodetypes="ccccccccccccc"
       inkscape:spray-origin="#use14788" /><path
       id="path3135"
       style="display:inline;fill:#fff2dc;fill-opacity:1;stroke:none;stroke-width:1;stroke-dasharray:none"
       d="m 1287.7628,512.0426 -0.44,-1.49777 -0.6222,-0.62222 -1.4977,-0.43997 1.4977,-0.43996 0.6222,-0.62222 0.44,-1.49778 0.44,1.49778 0.6222,0.62222 1.4977,0.43996 -1.4977,0.43997 -0.6222,0.62222 z"
       sodipodi:nodetypes="ccccccccccccc"
       inkscape:spray-origin="#use14788" /><path
       id="path3137"
       style="display:inline;fill:#fff2dc;fill-opacity:1;stroke:none;stroke-width:1;stroke-dasharray:none"
       d="m 1282.501,358.38176 -0.5115,-1.74158 -0.7235,-0.7235 -1.7417,-0.51159 1.7417,-0.51159 0.7235,-0.7235 0.5115,-1.74158 0.5117,1.74158 0.7235,0.7235 1.7416,0.51159 -1.7416,0.51159 -0.7235,0.7235 z"
       sodipodi:nodetypes="ccccccccccccc"
       inkscape:spray-origin="#use14788" /><path
       id="path3139"
       style="display:inline;fill:#fff2dc;fill-opacity:1;stroke:none;stroke-width:1;stroke-dasharray:none"
       d="m 1190.7768,35.597 -0.7162,-2.438408 -1.0129,-1.012989 -2.4385,-0.716284 2.4385,-0.716278 1.0129,-1.012989 0.7162,-2.438414 0.7163,2.438414 1.013,1.012989 2.4384,0.716278 -2.4384,0.716284 -1.013,1.012989 z"
       sodipodi:nodetypes="ccccccccccccc"
       inkscape:spray-origin="#use14788" /><path
       id="path3141"
       style="display:inline;fill:#fff2dc;fill-opacity:1;stroke:none;stroke-width:1;stroke-dasharray:none"
       d="m 685.93507,142.36101 -0.47167,-1.60582 -0.66707,-0.66711 -1.60584,-0.47171 1.60584,-0.47171 0.66707,-0.66711 0.47167,-1.60583 0.47178,1.60583 0.66707,0.66711 1.60584,0.47171 -1.60584,0.47171 -0.66707,0.66711 z"
       sodipodi:nodetypes="ccccccccccccc"
       inkscape:spray-origin="#use14788" /><path
       id="path3143"
       style="display:inline;fill:#fff2dc;fill-opacity:1;stroke:none;stroke-width:1;stroke-dasharray:none"
       d="m 661.84644,170.64432 -0.71284,-2.42686 -1.00813,-1.00819 -2.4269,-0.71289 2.4269,-0.71288 1.00813,-1.00819 0.71284,-2.42687 0.71297,2.42687 1.00814,1.00819 2.42689,0.71288 -2.42689,0.71289 -1.00814,1.00819 z"
       sodipodi:nodetypes="ccccccccccccc"
       inkscape:spray-origin="#use14788" /></g><g
     inkscape:groupmode="layer"
     id="celestial_bodies"
     inkscape:label="celestial_bodies"
     transform="translate(-441.77515,1.0000021)"><path
       id="path10493"
       style="fill:none;stroke:#fff2dc;stroke-width:1;stroke-dasharray:none;stroke-opacity:1"
       d="m 718.76672,345.94048 -3.31125,-11.27235 -4.68281,-4.6828 -11.27234,-3.31126 11.27234,-3.31124 4.68281,-4.68281 3.31125,-11.27234 3.31124,11.27234 4.68281,4.68281 11.27235,3.31124 -11.27235,3.31126 -4.68281,4.6828 z"
       sodipodi:nodetypes="ccccccccccccc" /><path
       id="path10493-7"
       style="fill:none;stroke:#fff2dc;stroke-width:1;stroke-dasharray:none;stroke-opacity:1"
       d="m 802.55776,444.21305 -1.75752,-5.98308 -2.48552,-2.48551 -5.98307,-1.75753 5.98307,-1.75752 2.48552,-2.48552 1.75752,-5.98307 1.75752,5.98307 2.48553,2.48552 5.98307,1.75752 -5.98307,1.75753 -2.48553,2.48551 z"
       sodipodi:nodetypes="ccccccccccccc" /><path
       id="path10672"
       style="fill:none;stroke:#fff2dc;stroke-width:1;stroke-dasharray:none;stroke-opacity:1"
       d="m 1300.5801,137.70761 a 28.839287,28.839287 0 0 0 -12.6995,23.85089 28.839287,28.839287 0 0 0 28.8396,28.83962 28.839287,28.839287 0 0 0 23.8489,-12.69869 28.839287,28.839287 0 0 1 -16.1381,4.98779 28.839287,28.839287 0 0 1 -28.8395,-28.83961 28.839287,28.839287 0 0 1 4.9886,-16.14 z" /></g><g
     inkscape:groupmode="layer"
     id="layer2"
     inkscape:label="triangles"
     style="display:none;fill:none;stroke:#00ff00;stroke-opacity:1"
     transform="translate(-441.77515,1.0000021)"><path
       style="fill:none;stroke:#b3b3b3;stroke-width:1;stroke-linecap:butt;stroke-linejoin:miter;stroke-dasharray:none;stroke-opacity:1"
       d="m 985.4846,208.72845 h 74.9171 l -37.4587,64.88008"
       id="path10366" /><path
       style="fill:none;stroke:#b3b3b3;stroke-width:1;stroke-linecap:butt;stroke-linejoin:miter;stroke-dasharray:none;stroke-opacity:1"
       d="m 985.4846,208.72845 37.4585,64.88008 h -74.91705 z"
       id="path10368" /><path
       style="fill:none;stroke:#b3b3b3;stroke-width:1;stroke-linecap:butt;stroke-linejoin:miter;stroke-dasharray:none;stroke-opacity:1"
       d="m 948.02605,273.60853 37.45855,64.88008"
       id="path10370" /><path
       style="fill:none;stroke:#b3b3b3;stroke-width:1;stroke-linecap:butt;stroke-linejoin:miter;stroke-dasharray:none;stroke-opacity:1"
       d="m 985.4846,338.48861 h -74.91708 l 37.45853,-64.88008"
       id="path10372" /><path
       style="fill:none;stroke:#b3b3b3;stroke-width:1;stroke-linecap:butt;stroke-linejoin:miter;stroke-dasharray:none;stroke-opacity:1"
       d="m 1022.943,273.60853 -37.4584,64.88008"
       id="path10374" /><path
       style="fill:none;stroke:#b3b3b3;stroke-width:1;stroke-linecap:butt;stroke-linejoin:miter;stroke-dasharray:none;stroke-opacity:1"
       d="m 910.56752,338.48861 37.45853,64.88009 37.45855,-64.88009"
       id="path10376" /><path
       style="fill:none;stroke:#b3b3b3;stroke-width:1;stroke-linecap:butt;stroke-linejoin:miter;stroke-dasharray:none;stroke-opacity:1"
       d="m 985.4846,338.48861 37.4585,64.88008"
       id="path10378" /><path
       style="fill:none;stroke:#b3b3b3;stroke-width:1;stroke-linecap:butt;stroke-linejoin:miter;stroke-dasharray:none;stroke-opacity:1"
       d="M 1022.943,403.3687 H 948.02605"
       id="path10380" /><path
       style="fill:none;stroke:#b3b3b3;stroke-width:1;stroke-linecap:butt;stroke-linejoin:miter;stroke-dasharray:none;stroke-opacity:1"
       d="m 985.4846,338.48861 h 74.9171 l -37.4587,64.88008"
       id="path10382" /><path
       style="fill:none;stroke:#b3b3b3;stroke-width:1;stroke-linecap:butt;stroke-linejoin:miter;stroke-dasharray:none;stroke-opacity:1"
       d="m 1060.4017,338.48861 37.4585,-64.88008"
       id="path10384" /><path
       style="fill:none;stroke:#b3b3b3;stroke-width:1;stroke-linecap:butt;stroke-linejoin:miter;stroke-dasharray:none;stroke-opacity:1"
       d="m 1097.8602,273.60853 37.4585,64.88008"
       id="path10386" /><path
       style="fill:none;stroke:#b3b3b3;stroke-width:1;stroke-linecap:butt;stroke-linejoin:miter;stroke-dasharray:none;stroke-opacity:1"
       d="m 1060.4017,338.48861 h 74.917"
       id="path10388" /><path
       style="fill:none;stroke:#b3b3b3;stroke-width:1;stroke-linecap:butt;stroke-linejoin:miter;stroke-dasharray:none;stroke-opacity:1"
       d="m 1060.4017,338.48861 37.4585,64.88009 37.4585,-64.88009"
       id="path10390" /><path
       style="fill:none;stroke:#b3b3b3;stroke-width:1;stroke-linecap:butt;stroke-linejoin:miter;stroke-dasharray:none;stroke-opacity:1"
       d="m 1135.3187,338.48861 37.4586,64.88009 h -74.9171"
       id="path10392" /><path
       style="fill:none;stroke:#b3b3b3;stroke-width:1;stroke-linecap:butt;stroke-linejoin:miter;stroke-dasharray:none;stroke-opacity:1"
       d="m 1097.8602,273.60853 h 74.9171"
       id="path10394" /><path
       style="fill:none;stroke:#b3b3b3;stroke-width:1;stroke-linecap:butt;stroke-linejoin:miter;stroke-dasharray:none;stroke-opacity:1"
       d="m 1172.7773,273.60853 -37.4586,64.88008"
       id="path10396" /><path
       style="fill:none;stroke:#b3b3b3;stroke-width:1;stroke-linecap:butt;stroke-linejoin:miter;stroke-dasharray:none;stroke-opacity:1"
       d="m 1097.8602,273.60853 -37.4585,-64.88008 h 74.917"
       id="path10398" /><path
       style="fill:none;stroke:#b3b3b3;stroke-width:1;stroke-linecap:butt;stroke-linejoin:miter;stroke-dasharray:none;stroke-opacity:1"
       d="m 1135.3187,208.72845 -37.4585,64.88008"
       id="path10400" /><path
       style="fill:none;stroke:#b3b3b3;stroke-width:1;stroke-linecap:butt;stroke-linejoin:miter;stroke-dasharray:none;stroke-opacity:1"
       d="m 1135.3187,208.72845 37.4586,64.88008"
       id="path10402" /></g><g
     inkscape:groupmode="layer"
     id="outlines"
     inkscape:label="outlines"
     transform="translate(-441.77515,1.0000021)"><path
       style="fill:none;stroke:#fff2dc;stroke-width:1;stroke-linecap:butt;stroke-linejoin:miter;stroke-opacity:1;stroke-dasharray:none"
       d="m 985.4846,208.72845 -74.91708,129.76016 37.45853,64.88009 h 74.91695 l 37.4587,-64.88009 h -74.9171 l 74.9171,-129.76016 h -74.9171"
       id="path10425" /><path
       style="fill:none;stroke:#fff2dc;stroke-width:1;stroke-linecap:butt;stroke-linejoin:miter;stroke-opacity:1;stroke-dasharray:none"
       d="m 1060.4017,208.72845 37.4585,64.88008 -37.4585,64.88008 37.4585,64.88009 h 74.9171 l -37.4586,-64.88009 37.4586,-64.88008 -37.4586,-64.88008 h -74.917"
       id="path10427" /></g><g
     inkscape:groupmode="layer"
     id="layer1"
     inkscape:label="box"
     transform="translate(0.50000313,0.50000213)"
     style="display:none"><rect
       style="display:inline;fill:none;stroke:#00ff00;stroke-width:1;stroke-dasharray:none;stop-color:#000000"
       id="rect408"
       width="1199.2854"
       height="522.09235"
       x="-0.14216563"
       y="-0.14216463" /></g></svg>
