<?xml version="1.0" encoding="UTF-8" standalone="no"?>
<!-- Created with Inkscape (http://www.inkscape.org/) -->

<svg
   width="256"
   height="156.69781"
   viewBox="0 0 256 156.69781"
   version="1.1"
   id="svg1187"
   inkscape:version="1.2 (dc2aedaf03, 2022-05-15)"
   sodipodi:docname="cat-left.svg"
   xmlns:inkscape="http://www.inkscape.org/namespaces/inkscape"
   xmlns:sodipodi="http://sodipodi.sourceforge.net/DTD/sodipodi-0.dtd"
   xmlns="http://www.w3.org/2000/svg"
   xmlns:svg="http://www.w3.org/2000/svg">
  <sodipodi:namedview
     id="namedview1189"
     pagecolor="#ffffff"
     bordercolor="#666666"
     borderopacity="1.0"
     inkscape:showpageshadow="2"
     inkscape:pageopacity="0.0"
     inkscape:pagecheckerboard="0"
     inkscape:deskcolor="#d1d1d1"
     inkscape:document-units="px"
     showgrid="false"
     inkscape:zoom="25.217285"
     inkscape:cx="19.768187"
     inkscape:cy="38.505335"
     inkscape:window-width="3840"
     inkscape:window-height="2126"
     inkscape:window-x="2149"
     inkscape:window-y="858"
     inkscape:window-maximized="1"
     inkscape:current-layer="layer1" />
  <style
     id="style3">
    path {
      vector-effect: non-scaling-stroke;
    }
  </style>
  <defs
     id="defs1184" />
  <g
     inkscape:label="Layer 1"
     inkscape:groupmode="layer"
     id="layer1"
     transform="translate(1.0703182e-6,-92.96217)">
    <g
       id="g1362"
       transform="matrix(0.59275404,0,0,0.59275404,115.21281,129.56466)">
      <path
         style="fill:none;stroke:#fff2dc;stroke-width:0.999999px;stroke-linecap:butt;stroke-linejoin:miter;stroke-opacity:1"
         d="m -153.56545,-13.501798 c 3.78584,-1.945097 18.99919,-5.810586 23.21045,-6.583949 4.46752,-0.820422 15.1925,-8.076461 16.69973,-11.692577 1.3942,-3.344863 8.86885,-28.312706 12.69427,-29.413833 6.340116,-1.824979 18.240487,39.045332 22.334358,42.046148 4.093833,3.000813 11.230829,8.075244 17.300788,16.5364954 6.069997,8.461236 14.771981,26.6400796 19.462035,26.1444626 4.690053,-0.49542 9.61663,-11.241328 17.870135,-16.5983888 8.253506,-5.3570571 42.224618,-17.6269302 61.03631,-17.8015112 18.811729,-0.174576 22.76829,-1.011118 29.419578,-2.03585 6.65125,-1.024724 17.598803,-9.52049 28.224038,-9.795655 10.625268,-0.275149 52.241958,10.562968 71.858568,25.9253752 19.61662,15.3624458 34.98732,34.1026658 39.74941,51.7536648 4.76213,17.650999 7.39563,49.475146 -0.95928,60.068186 -8.35473,10.59295 -31.74959,32.58198 -55.0122,34.80412 -23.26265,2.22213 -33.95751,-3.84718 -48.98275,-2.66718 -15.025288,1.18005 -18.707984,6.74075 -29.384167,8.15864 -10.676183,1.41767 -17.772699,-6.34068 -31.262816,-4.0354 -13.490041,2.30551 -17.600051,3.61947 -23.688643,3.87678 -6.088592,0.257 -11.2736127,-0.98684 -14.1906143,-3.71502 -2.91700157,-2.72813 -20.9835217,-27.1813 -22.4020537,-40.80797"
         id="path481"
         sodipodi:nodetypes="cssssscssssssssscccsc" />
      <path
         style="fill:none;stroke:#fff2dc;stroke-width:0.999999px;stroke-linecap:butt;stroke-linejoin:miter;stroke-opacity:1"
         d="m -153.56545,-13.501798 c -4.19445,5.1856399 -8.57515,16.528195 -13.92968,20.0767973 -5.35457,3.5486097 -8.25063,3.6436457 -9.89639,5.4620067 -1.64579,1.818369 -3.34847,5.089935 -2.81439,7.25455 0.53428,2.164592 1.92726,3.394409 2.07527,4.615435 0.14778,1.221018 -0.81075,1.248355 -0.90989,2.948798 -0.099,1.700436 0.95709,6.472861 1.78061,8.432395 0.82353,1.959534 9.14155,15.322998 13.81531,18.053518 4.67377,2.730558 6.19624,2.455899 7.46601,4.70778 1.26977,2.25188 2.27134,5.106822 1.13514,6.846652 -1.13624,1.73983 -11.02908,12.010847 -8.24534,30.600378 2.78369,18.589528 7.56865,33.500408 7.56865,33.500408 0,0 -4.64258,2.15966 -7.37397,2.66075 -2.73146,0.50113 -11.77085,-2.43961 -16.64855,-0.24378 -4.87771,2.19595 -13.90258,10.80851 -14.25763,14.23355 -0.3549,3.42505 0.67741,9.60548 3.51776,10.85303 2.84031,1.24758 2.71978,1.5069 4.87245,1.41596 2.15263,-0.0907 3.81079,-0.26608 3.81079,-0.26608 0,0 -1.77192,4.12487 0.56231,7.29608 2.33428,3.17121 5.95367,9.99624 17.20566,11.15157 11.25199,1.15533 21.87602,-1.76542 27.54418,-1.43497 5.66815,0.33033 32.07915,0.9157 36.20394,2.68758 4.124864,1.77192 12.766641,6.29855 20.237671,6.35119 7.47103,0.0525 23.613165,0.69959 32.113852,-5.26276"
         id="path1038" />
      <path
         style="fill:none;stroke:#fff2dc;stroke-width:0.999999px;stroke-linecap:butt;stroke-linejoin:miter;stroke-opacity:1"
         d="m 207.36352,59.345973 c 12.79994,11.997997 30.08062,29.876523 29.64193,52.073807 -0.43861,22.19727 -13.74353,52.95896 -37.02078,66.87231 -23.2772,13.91342 -63.28724,19.39669 -86.89954,21.55918 -23.612293,2.16253 -115.7561173,3.4975 -135.148836,0.54705 -19.392718,-2.95049 -24.835313,-15.10046 -25.667981,-21.95936 -0.832592,-6.85886 8.653455,-25.97454 24.861544,-27.02725 16.2080879,-1.05263 27.0254739,1.11088 27.0254739,1.11088"
         id="path1040" />
      <path
         style="fill:none;stroke:#fff2dc;stroke-width:0.999999px;stroke-linecap:butt;stroke-linejoin:miter;stroke-opacity:1"
         d="m -181.5993,157.65028 c 4.95492,-7.42364 11.90029,-12.34553 24.5145,-13.80745"
         id="path1042" />
      <path
         style="fill:none;stroke:#fff2dc;stroke-width:0.999999px;stroke-linecap:butt;stroke-linejoin:miter;stroke-opacity:1"
         d="M 58.163722,101.1824 C 43.985467,75.449293 47.541322,35.181526 78.05016,22.537176 108.55904,9.8928236 135.96643,12.475016 150.55019,17.268674"
         id="path1044" />
      <path
         style="fill:#fff2dc;stroke:none;stroke-width:1.55485px;stroke-linecap:butt;stroke-linejoin:miter;stroke-opacity:1"
         d="m -153.79395,20.437907 c -2.39425,-4.660038 -4.01917,-7.762299 -6.15362,-6.727648 -2.1345,1.034669 -1.72918,5.383536 -1.76203,6.888449 -0.0353,1.504896 0.71095,7.477954 2.93165,6.430003 2.22065,-1.047943 4.984,-6.590804 4.984,-6.590804 z"
         id="path1046" />
      <path
         style="fill:none;stroke:#fff2dc;stroke-width:0.999999px;stroke-linecap:butt;stroke-linejoin:miter;stroke-opacity:1"
         d="M -93.920765,7.9640475 C -100.64987,6.9973426 -105.7234,8.064016 -109.15268,5.977456 c -2.89999,-1.7645405 -18.67865,-19.863356 -23.09106,-13.0848304 -4.41245,6.77853737 0.43688,18.7685704 -2.46743,21.4256464"
         id="path1063"
         sodipodi:nodetypes="cssc" />
      <path
         style="fill:none;stroke:#fff2dc;stroke-width:0.999999px;stroke-linecap:butt;stroke-linejoin:miter;stroke-opacity:1"
         d="m -100.961,-61.192165 c -1.7215,5.031632 -3.1544,6.502409 -3.68228,10.442249 -0.52785,3.939825 -1.74467,20.351373 -7.06398,25.927034"
         id="path1161"
         sodipodi:nodetypes="csc" />
      <path
         style="fill:none;stroke:#fff2dc;stroke-width:0.999999px;stroke-linecap:butt;stroke-linejoin:miter;stroke-opacity:1"
         d="m -131.41523,-8.0016825 c -0.69955,6.0529588 4.03922,16.9420084 5.75932,20.3208795 1.99669,3.922269 4.08601,8.816954 2.84251,12.061807"
         id="path1163"
         sodipodi:nodetypes="csc" />
    </g>
  </g>
</svg>
