<?xml version="1.0" encoding="UTF-8" standalone="no"?>
<!-- Created with Inkscape (http://www.inkscape.org/) -->

<svg
   width="39.336609mm"
   height="9.0001135mm"
   viewBox="0 0 39.336609 9.0001135"
   version="1.1"
   id="svg431"
   inkscape:version="1.2 (dc2aedaf03, 2022-05-15)"
   sodipodi:docname="divider.svg"
   xmlns:inkscape="http://www.inkscape.org/namespaces/inkscape"
   xmlns:sodipodi="http://sodipodi.sourceforge.net/DTD/sodipodi-0.dtd"
   xmlns="http://www.w3.org/2000/svg"
   xmlns:svg="http://www.w3.org/2000/svg">
  <sodipodi:namedview
     id="namedview433"
     pagecolor="#000000"
     bordercolor="#666666"
     borderopacity="1.0"
     inkscape:showpageshadow="2"
     inkscape:pageopacity="0"
     inkscape:pagecheckerboard="0"
     inkscape:deskcolor="#d1d1d1"
     inkscape:document-units="mm"
     showgrid="false"
     inkscape:zoom="2.2289141"
     inkscape:cx="44.864896"
     inkscape:cy="-74.475727"
     inkscape:window-width="3840"
     inkscape:window-height="2126"
     inkscape:window-x="2149"
     inkscape:window-y="858"
     inkscape:window-maximized="1"
     inkscape:current-layer="layer1" />
  <style>
     path {
        vector-effect: non-scaling-stroke;
     }
  </style>
  <defs
     id="defs428" />
  <g
     inkscape:label="Layer 1"
     inkscape:groupmode="layer"
     id="layer1"
     transform="translate(-62.431062,-48.20498)">
    <path
       id="path10493"
       style="fill:none;stroke:#fff2dc;stroke-width:1;stroke-dasharray:none;stroke-opacity:1"
       d="m 82.143882,56.572846 -0.664747,-2.262971 -0.940094,-0.940092 -2.262969,-0.664749 2.262969,-0.664746 0.940094,-0.940093 0.664747,-2.262969 0.664745,2.262969 0.940094,0.940093 2.262972,0.664746 -2.262972,0.664749 -0.940094,0.940092 z"
       sodipodi:nodetypes="ccccccccccccc" />
    <path
       id="path10493-8"
       style="fill:none;stroke:#fff2dc;stroke-width:1;stroke-dasharray:none;stroke-opacity:1"
       d="m 95.260791,54.724234 -0.347032,-1.181389 -0.490779,-0.490777 -1.181387,-0.347034 1.181387,-0.347031 0.490779,-0.490778 0.347032,-1.181387 0.347032,1.181387 0.490778,0.490778 1.181389,0.347031 -1.181389,0.347034 -0.490778,0.490777 z"
       sodipodi:nodetypes="ccccccccccccc" />
    <path
       id="path10493-8-3"
       style="fill:none;stroke:#fff2dc;stroke-width:1;stroke-dasharray:none;stroke-opacity:1"
       d="m 69.026973,54.724235 -0.347032,-1.18139 -0.490779,-0.490777 -1.181388,-0.347034 1.181388,-0.347031 0.490779,-0.490778 0.347032,-1.181388 0.347032,1.181388 0.490778,0.490778 1.18139,0.347031 -1.18139,0.347034 -0.490778,0.490777 z"
       sodipodi:nodetypes="ccccccccccccc" />
    <path
       id="path10493-8-3-4"
       style="fill:none;stroke:#fff2dc;stroke-width:1;stroke-dasharray:none;stroke-opacity:1"
       d="m 74.928116,56.735709 -0.19272,-0.656072 -0.272549,-0.272547 -0.65607,-0.192722 0.65607,-0.19272 0.272549,-0.272548 0.19272,-0.65607 0.192721,0.65607 0.272548,0.272548 0.656071,0.19272 -0.656071,0.192722 -0.272548,0.272547 z"
       sodipodi:nodetypes="ccccccccccccc" />
    <path
       id="path10493-8-3-4-7"
       style="fill:none;stroke:#fff2dc;stroke-width:1;stroke-dasharray:none;stroke-opacity:1"
       d="m 63.619257,51.800575 -0.123539,-0.420563 -0.174713,-0.174712 -0.420561,-0.12354 0.420561,-0.12354 0.174713,-0.174712 0.123539,-0.420561 0.12354,0.420561 0.174712,0.174712 0.420562,0.12354 -0.420562,0.12354 -0.174712,0.174712 z"
       sodipodi:nodetypes="ccccccccccccc" />
    <path
       id="path10493-8-3-4-7-9"
       style="fill:none;stroke:#fff2dc;stroke-width:1;stroke-dasharray:none;stroke-opacity:1"
       d="m 100.57948,55.047125 -0.12354,-0.420563 -0.17471,-0.174712 -0.420565,-0.12354 0.420565,-0.12354 0.17471,-0.174712 0.12354,-0.420561 0.12354,0.420561 0.17471,0.174712 0.42056,0.12354 -0.42056,0.12354 -0.17471,0.174712 z"
       sodipodi:nodetypes="ccccccccccccc" />
    <path
       id="path10493-8-3-4-2"
       style="fill:none;stroke:#fff2dc;stroke-width:1;stroke-dasharray:none;stroke-opacity:1"
       d="m 89.359649,50.917042 -0.19272,-0.656072 -0.272549,-0.272547 -0.65607,-0.192722 0.65607,-0.19272 0.272549,-0.272548 0.19272,-0.65607 0.192721,0.65607 0.272548,0.272548 0.656071,0.19272 -0.656071,0.192722 -0.272548,0.272547 z"
       sodipodi:nodetypes="ccccccccccccc" />
  </g>
</svg>
