<?xml version="1.0" encoding="UTF-8" standalone="no"?>
<!-- Created with Inkscape (http://www.inkscape.org/) -->

<svg
   xml:space="preserve"
   sodipodi:docname="og-background.svg"
   inkscape:version="1.3 (0e150ed6c4, 2023-07-21)"
   id="svg5"
   version="1.1"
   viewBox="0 0 1200 630"
   preserveAspectRatio="xMidYMid slice"
   width="1200"
   height="630"
   xmlns:inkscape="http://www.inkscape.org/namespaces/inkscape"
   xmlns:sodipodi="http://sodipodi.sourceforge.net/DTD/sodipodi-0.dtd"
   xmlns="http://www.w3.org/2000/svg"
   xmlns:svg="http://www.w3.org/2000/svg">&#10;  <style
   id="style13121">&#10;path { &#10;}&#10;</style>&#10;  <sodipodi:namedview
   id="namedview7"
   pagecolor="#000000"
   bordercolor="#666666"
   borderopacity="1.0"
   inkscape:showpageshadow="2"
   inkscape:pageopacity="0"
   inkscape:pagecheckerboard="0"
   inkscape:deskcolor="#d1d1d1"
   inkscape:document-units="px"
   showgrid="false"
   inkscape:zoom="0.72814955"
   inkscape:cx="545.90434"
   inkscape:cy="352.2628"
   inkscape:window-width="1900"
   inkscape:window-height="1028"
   inkscape:window-x="10"
   inkscape:window-y="42"
   inkscape:window-maximized="1"
   inkscape:current-layer="sparkles" />&#10;  <defs
   id="defs2" />&#10;  <g
   inkscape:groupmode="layer"
   id="layer3"
   inkscape:label="bg"><rect
     style="fill:#1f1b20;fill-opacity:1;stroke:none;stroke-width:8.91948;stroke-miterlimit:4;stroke-dasharray:none;stroke-opacity:1;paint-order:markers stroke fill"
     id="rect1"
     width="1200"
     height="630"
     x="0"
     y="0" /></g><g
   inkscape:groupmode="layer"
   id="cat"
   inkscape:label="cat"
   style="display:none"
   transform="translate(-441.77515,1.0000021)"
   sodipodi:insensitive="true" />&#10;  <g
   inkscape:groupmode="layer"
   id="sparkles"
   inkscape:label="sparkles"
   transform="translate(-441.77515,1.0000021)">&#10;    <path
   id="path3077-7"
   style="fill:#fff2dc;fill-opacity:1;stroke:none;stroke-width:3.21947;stroke-dasharray:none"
   d="m 1150.1461,595.38127 -1.536,-5.22919 -2.1722,-2.17237 -5.2294,-1.53604 5.2294,-1.53607 2.1722,-2.17237 1.536,-5.22919 1.536,5.22919 2.1725,2.17237 5.2294,1.53607 -5.2294,1.53604 -2.1725,2.17237 z"
   sodipodi:nodetypes="ccccccccccccc"
   inkscape:spray-origin="#use14788">&#10;      <animateTransform
   attributeName="transform"
   attributeType="XML"
   type="scale"
   additive="sum"
   fill="freeze"
   begin="-0.3536348724464704s"
   dur="0.9484289575991278s"
   keyTimes="0;0.5;1"
   values="0.5;1.0;0.5"
   keySplines="0.42 0 1 1; 0 0 0.58 1"
   calcMode="spline"
   repeatCount="indefinite" />&#10;    </path>&#10;    &#10;    &#10;    &#10;    &#10;    &#10;    &#10;    &#10;    &#10;    &#10;    &#10;    &#10;    &#10;    &#10;    &#10;    &#10;    <path
   id="path836"
   style="fill:#fff2dc;fill-opacity:1;stroke:none;stroke-width:3.21947;stroke-dasharray:none"
   d="m 571.69733,480.03589 -1.7929,-6.10346 -2.53535,-2.53556 -6.10346,-1.79286 6.10346,-1.79289 2.53535,-2.53555 1.7929,-6.10347 1.7929,6.10347 2.5357,2.53555 6.10346,1.79289 -6.10346,1.79286 -2.5357,2.53556 z"
   sodipodi:nodetypes="ccccccccccccc"
   inkscape:spray-origin="#use14788">&#10;      <animateTransform
   attributeName="transform"
   attributeType="XML"
   type="scale"
   additive="sum"
   fill="freeze"
   begin="-0.5561027737400558s"
   dur="1.032347079370917s"
   keyTimes="0;0.5;1"
   values="0.5;1.0;0.5"
   keySplines="0.42 0 1 1; 0 0 0.58 1"
   calcMode="spline"
   repeatCount="indefinite" />&#10;    </path>&#10;    <path
   id="path840"
   style="fill:#fff2dc;fill-opacity:1;stroke:none;stroke-width:3.21947;stroke-dasharray:none"
   d="m 1144.6956,425.32093 -1.0875,-3.7031 -1.5383,-1.53839 -3.7033,-1.08777 3.7033,-1.08779 1.5383,-1.53838 1.0875,-3.7031 1.0878,3.7031 1.5383,1.53838 3.7033,1.08779 -3.7033,1.08777 -1.5383,1.53839 z"
   sodipodi:nodetypes="ccccccccccccc"
   inkscape:spray-origin="#use14788">&#10;      <animateTransform
   attributeName="transform"
   attributeType="XML"
   type="scale"
   additive="sum"
   fill="freeze"
   begin="-0.13430490628711345s"
   dur="0.914125608425438s"
   keyTimes="0;0.5;1"
   values="0.5;1.0;0.5"
   keySplines="0.42 0 1 1; 0 0 0.58 1"
   calcMode="spline"
   repeatCount="indefinite" />&#10;    </path>&#10;    <path
   id="path842"
   style="fill:#fff2dc;fill-opacity:1;stroke:none;stroke-width:3.21947;stroke-dasharray:none"
   d="m 1295.7647,160.33579 -1.543,-5.25295 -2.1819,-2.18222 -5.2532,-1.54303 5.2532,-1.54306 2.1819,-2.18222 1.543,-5.25294 1.5431,5.25294 2.1821,2.18222 5.2533,1.54306 -5.2533,1.54303 -2.1821,2.18222 z"
   sodipodi:nodetypes="ccccccccccccc"
   inkscape:spray-origin="#use14788">&#10;      <animateTransform
   attributeName="transform"
   attributeType="XML"
   type="scale"
   additive="sum"
   fill="freeze"
   begin="-0.03157823534287296s"
   dur="1.171845227596063s"
   keyTimes="0;0.5;1"
   values="0.5;1.0;0.5"
   keySplines="0.42 0 1 1; 0 0 0.58 1"
   calcMode="spline"
   repeatCount="indefinite" />&#10;    </path>&#10;    <path
   id="path844"
   style="fill:#fff2dc;fill-opacity:1;stroke:none;stroke-width:3.21947;stroke-dasharray:none"
   d="m 1219.0999,170.91862 -1.0644,-3.62373 -1.5054,-1.50539 -3.6239,-1.06445 3.6239,-1.06448 1.5054,-1.5054 1.0644,-3.62373 1.0643,3.62373 1.5058,1.5054 3.6238,1.06448 -3.6238,1.06445 -1.5058,1.50539 z"
   sodipodi:nodetypes="ccccccccccccc"
   inkscape:spray-origin="#use14788">&#10;      <animateTransform
   attributeName="transform"
   attributeType="XML"
   type="scale"
   additive="sum"
   fill="freeze"
   begin="-0.1451069874034412s"
   dur="1.117306041578718s"
   keyTimes="0;0.5;1"
   values="0.5;1.0;0.5"
   keySplines="0.42 0 1 1; 0 0 0.58 1"
   calcMode="spline"
   repeatCount="indefinite" />&#10;    </path>&#10;    <path
   id="path846"
   style="fill:#fff2dc;fill-opacity:1;stroke:none;stroke-width:3.21947;stroke-dasharray:none"
   d="m 1330.2278,167.42661 -1.8605,-6.33351 -2.6306,-2.6311 -6.3341,-1.86043 6.3341,-1.86047 2.6306,-2.63111 1.8605,-6.3335 1.8602,6.3335 2.6313,2.63111 6.334,1.86047 -6.334,1.86043 -2.6313,2.6311 z"
   sodipodi:nodetypes="ccccccccccccc"
   inkscape:spray-origin="#use14788">&#10;      <animateTransform
   attributeName="transform"
   attributeType="XML"
   type="scale"
   additive="sum"
   fill="freeze"
   begin="-0.10498798239591767s"
   dur="1.1987792866923217s"
   keyTimes="0;0.5;1"
   values="0.5;1.0;0.5"
   keySplines="0.42 0 1 1; 0 0 0.58 1"
   calcMode="spline"
   repeatCount="indefinite" />&#10;    </path>&#10;    <path
   id="path848"
   style="fill:#fff2dc;fill-opacity:1;stroke:none;stroke-width:3.21947;stroke-dasharray:none"
   d="m 1468.3858,170.54398 -1.0907,-3.71302 -1.5421,-1.54251 -3.7134,-1.09066 3.7134,-1.09069 1.5421,-1.54251 1.0907,-3.71301 1.0907,3.71301 1.5425,1.54251 3.7133,1.09069 -3.7133,1.09066 -1.5425,1.54251 z"
   sodipodi:nodetypes="ccccccccccccc"
   inkscape:spray-origin="#use14788">&#10;      <animateTransform
   attributeName="transform"
   attributeType="XML"
   type="scale"
   additive="sum"
   fill="freeze"
   begin="-0.1906102292546693s"
   dur="1.1332529983971122s"
   keyTimes="0;0.5;1"
   values="0.5;1.0;0.5"
   keySplines="0.42 0 1 1; 0 0 0.58 1"
   calcMode="spline"
   repeatCount="indefinite" />&#10;    </path>&#10;    &#10;    <path
   id="path852"
   style="fill:#fff2dc;fill-opacity:1;stroke:none;stroke-width:3.21947;stroke-dasharray:none"
   d="m 1559.1586,128.59398 -1.0341,-3.52106 -1.4626,-1.46277 -3.5215,-1.03428 3.5215,-1.03432 1.4626,-1.46277 1.0341,-3.52106 1.0345,3.52106 1.4626,1.46277 3.5214,1.03432 -3.5214,1.03428 -1.4626,1.46277 z"
   sodipodi:nodetypes="ccccccccccccc"
   inkscape:spray-origin="#use14788">&#10;      <animateTransform
   attributeName="transform"
   attributeType="XML"
   type="scale"
   additive="sum"
   fill="freeze"
   begin="-0.8329334330855723s"
   dur="1.1846528762578863s"
   keyTimes="0;0.5;1"
   values="0.5;1.0;0.5"
   keySplines="0.42 0 1 1; 0 0 0.58 1"
   calcMode="spline"
   repeatCount="indefinite" />&#10;    </path>&#10;    <path
   id="path854"
   style="fill:#fff2dc;fill-opacity:1;stroke:none;stroke-width:3.21947;stroke-dasharray:none"
   d="m 1228.9032,531.02906 -1.4527,-4.94542 -2.0544,-2.05451 -4.9456,-1.45268 4.9456,-1.45272 2.0544,-2.0545 1.4527,-4.94542 1.4526,4.94542 2.0547,2.0545 4.9457,1.45272 -4.9457,1.45268 -2.0547,2.05451 z"
   sodipodi:nodetypes="ccccccccccccc"
   inkscape:spray-origin="#use14788">&#10;      <animateTransform
   attributeName="transform"
   attributeType="XML"
   type="scale"
   additive="sum"
   fill="freeze"
   begin="-0.5026636646516336s"
   dur="1.0166735450598032s"
   keyTimes="0;0.5;1"
   values="0.5;1.0;0.5"
   keySplines="0.42 0 1 1; 0 0 0.58 1"
   calcMode="spline"
   repeatCount="indefinite" />&#10;    </path>&#10;    <path
   id="path856"
   style="fill:#fff2dc;fill-opacity:1;stroke:none;stroke-width:3.21947;stroke-dasharray:none"
   d="m 1115.7959,526.81229 -2.0135,-6.85433 -2.8473,-2.8475 -6.8545,-2.01342 6.8545,-2.01345 2.8473,-2.8475 2.0135,-6.85433 2.0134,6.85433 2.8477,2.8475 6.8545,2.01345 -6.8545,2.01342 -2.8477,2.8475 z"
   sodipodi:nodetypes="ccccccccccccc"
   inkscape:spray-origin="#use14788">&#10;      <animateTransform
   attributeName="transform"
   attributeType="XML"
   type="scale"
   additive="sum"
   fill="freeze"
   begin="-0.48932662060128773s"
   dur="1.070978679797758s"
   keyTimes="0;0.5;1"
   values="0.5;1.0;0.5"
   keySplines="0.42 0 1 1; 0 0 0.58 1"
   calcMode="spline"
   repeatCount="indefinite" />&#10;    </path>&#10;    <path
   id="path860"
   style="fill:#fff2dc;fill-opacity:1;stroke:none;stroke-width:3.21947;stroke-dasharray:none"
   d="m 500.23836,598.94353 -1.46516,-4.98837 -2.0724,-2.07234 -4.98852,-1.4653 4.98852,-1.46534 2.0724,-2.07234 1.46516,-4.98837 1.46516,4.98837 2.07275,2.07234 4.98852,1.46534 -4.98852,1.4653 -2.07275,2.07234 z"
   sodipodi:nodetypes="ccccccccccccc"
   inkscape:spray-origin="#use14788">&#10;      <animateTransform
   attributeName="transform"
   attributeType="XML"
   type="scale"
   additive="sum"
   fill="freeze"
   begin="-0.19704373321825697s"
   dur="0.8929634905713564s"
   keyTimes="0;0.5;1"
   values="0.5;1.0;0.5"
   keySplines="0.42 0 1 1; 0 0 0.58 1"
   calcMode="spline"
   repeatCount="indefinite" />&#10;    </path>&#10;    &#10;    &#10;    &#10;    &#10;    &#10;    <path
   id="path876"
   style="fill:#fff2dc;fill-opacity:1;stroke:none;stroke-width:3.21947;stroke-dasharray:none"
   d="m 496.96551,64.316128 -1.95651,-6.66017 -2.76646,-2.76685 -6.66046,-1.95637 6.66046,-1.9564 2.76646,-2.76685 1.95651,-6.66017 1.95608,6.66017 2.76714,2.76685 6.66049,1.9564 -6.66049,1.95637 -2.76714,2.76685 z"
   sodipodi:nodetypes="ccccccccccccc"
   inkscape:spray-origin="#use14788">&#10;      <animateTransform
   attributeName="transform"
   attributeType="XML"
   type="scale"
   additive="sum"
   fill="freeze"
   begin="-0.3005210500607629s"
   dur="0.9074158141431187s"
   keyTimes="0;0.5;1"
   values="0.5;1.0;0.5"
   keySplines="0.42 0 1 1; 0 0 0.58 1"
   calcMode="spline"
   repeatCount="indefinite" />&#10;    </path>&#10;    &#10;    <path
   id="path886"
   style="fill:#fff2dc;fill-opacity:1;stroke:none;stroke-width:3.21947;stroke-dasharray:none"
   d="m 995.224,486.55868 -1.3648,-4.64666 -1.9304,-1.93039 -4.6467,-1.36493 4.6467,-1.36495 1.9304,-1.9304 1.3648,-4.64665 1.365,4.64665 1.9304,1.9304 4.6467,1.36495 -4.6467,1.36493 -1.9304,1.93039 z"
   sodipodi:nodetypes="ccccccccccccc"
   inkscape:spray-origin="#use14788">&#10;      <animateTransform
   attributeName="transform"
   attributeType="XML"
   type="scale"
   additive="sum"
   fill="freeze"
   begin="-0.7352280028039784s"
   dur="0.8545892568410915s"
   keyTimes="0;0.5;1"
   values="0.5;1.0;0.5"
   keySplines="0.42 0 1 1; 0 0 0.58 1"
   calcMode="spline"
   repeatCount="indefinite" />&#10;    </path>&#10;    <path
   id="path888"
   style="fill:#fff2dc;fill-opacity:1;stroke:none;stroke-width:3.21947;stroke-dasharray:none"
   d="m 942.62079,70.228838 -2.06171,-7.01863 -2.91561,-2.91573 -7.01876,-2.06168 7.01876,-2.06172 2.91561,-2.91573 2.06171,-7.01864 2.06146,7.01864 2.91612,2.91573 7.01876,2.06172 -7.01876,2.06168 -2.91612,2.91573 z"
   sodipodi:nodetypes="ccccccccccccc"
   inkscape:spray-origin="#use14788">&#10;      <animateTransform
   attributeName="transform"
   attributeType="XML"
   type="scale"
   additive="sum"
   fill="freeze"
   begin="-0.4511093039814488s"
   dur="1.1152793308692897s"
   keyTimes="0;0.5;1"
   values="0.5;1.0;0.5"
   keySplines="0.42 0 1 1; 0 0 0.58 1"
   calcMode="spline"
   repeatCount="indefinite" />&#10;    </path>&#10;    <path
   id="path890"
   style="fill:#fff2dc;fill-opacity:1;stroke:none;stroke-width:3.21947;stroke-dasharray:none"
   d="m 1013.6762,596.36501 -2.0305,-6.912 -2.8712,-2.87148 -6.9122,-2.03035 6.9122,-2.03039 2.8712,-2.87147 2.0305,-6.91201 2.0302,6.91201 2.8717,2.87147 6.9122,2.03039 -6.9122,2.03035 -2.8717,2.87148 z"
   sodipodi:nodetypes="ccccccccccccc"
   inkscape:spray-origin="#use14788">&#10;      <animateTransform
   attributeName="transform"
   attributeType="XML"
   type="scale"
   additive="sum"
   fill="freeze"
   begin="-0.5491544983150297s"
   dur="0.8830894191800595s"
   keyTimes="0;0.5;1"
   values="0.5;1.0;0.5"
   keySplines="0.42 0 1 1; 0 0 0.58 1"
   calcMode="spline"
   repeatCount="indefinite" />&#10;    </path>&#10;    <path
   id="path892"
   style="fill:#fff2dc;fill-opacity:1;stroke:none;stroke-width:3.21947;stroke-dasharray:none"
   d="m 718.41558,595.59354 -1.35022,-4.59682 -1.90947,-1.90966 -4.59707,-1.35028 4.59707,-1.35031 1.90947,-1.90965 1.35022,-4.59682 1.35029,4.59682 1.90973,1.90965 4.59707,1.35031 -4.59707,1.35028 -1.90973,1.90966 z"
   sodipodi:nodetypes="ccccccccccccc"
   inkscape:spray-origin="#use14788">&#10;      <animateTransform
   attributeName="transform"
   attributeType="XML"
   type="scale"
   additive="sum"
   fill="freeze"
   begin="-0.5287037599616388s"
   dur="0.9137403677207729s"
   keyTimes="0;0.5;1"
   values="0.5;1.0;0.5"
   keySplines="0.42 0 1 1; 0 0 0.58 1"
   calcMode="spline"
   repeatCount="indefinite" />&#10;    </path>&#10;    &#10;    &#10;    &#10;    &#10;    &#10;    &#10;    &#10;    &#10;    &#10;    &#10;    &#10;    &#10;    &#10;    &#10;    &#10;    &#10;    &#10;    <path
   id="path928"
   style="fill:#fff2dc;fill-opacity:1;stroke:none;stroke-width:3.21947;stroke-dasharray:none"
   d="m 818.17589,148.57755 -1.41145,-4.80509 -1.99611,-1.99616 -4.80499,-1.41144 4.80499,-1.41149 1.99611,-1.99616 1.41145,-4.80509 1.41136,4.80509 1.99637,1.99616 4.80507,1.41149 -4.80507,1.41144 -1.99637,1.99616 z"
   sodipodi:nodetypes="ccccccccccccc"
   inkscape:spray-origin="#use14788">&#10;      <animateTransform
   attributeName="transform"
   attributeType="XML"
   type="scale"
   additive="sum"
   fill="freeze"
   begin="-0.6383620171909122s"
   dur="0.8447830962605386s"
   keyTimes="0;0.5;1"
   values="0.5;1.0;0.5"
   keySplines="0.42 0 1 1; 0 0 0.58 1"
   calcMode="spline"
   repeatCount="indefinite" />&#10;    </path>&#10;    &#10;    <path
   id="path936"
   style="fill:#fff2dc;fill-opacity:1;stroke:none;stroke-width:3.21947;stroke-dasharray:none"
   d="m 1337.9917,571.60512 -0.9546,-3.24951 -1.3496,-1.34995 -3.2497,-0.95451 3.2497,-0.95454 1.3496,-1.34996 0.9546,-3.24949 0.9545,3.24949 1.35,1.34996 3.2498,0.95454 -3.2498,0.95451 -1.35,1.34995 z"
   sodipodi:nodetypes="ccccccccccccc"
   inkscape:spray-origin="#use14788">&#10;      <animateTransform
   attributeName="transform"
   attributeType="XML"
   type="scale"
   additive="sum"
   fill="freeze"
   begin="-0.5810618957229144s"
   dur="0.8966148493842939s"
   keyTimes="0;0.5;1"
   values="0.5;1.0;0.5"
   keySplines="0.42 0 1 1; 0 0 0.58 1"
   calcMode="spline"
   repeatCount="indefinite" />&#10;    </path>&#10;    <path
   id="path938"
   style="fill:#fff2dc;fill-opacity:1;stroke:none;stroke-width:3.21947;stroke-dasharray:none"
   d="m 1541.561,66.3391 -1.0138,-3.45113 -1.4333,-1.43372 -3.4513,-1.01375 3.4513,-1.01378 1.4333,-1.43373 1.0138,-3.45113 1.0138,3.45113 1.4337,1.43373 3.4512,1.01378 -3.4512,1.01375 -1.4337,1.43372 z"
   sodipodi:nodetypes="ccccccccccccc"
   inkscape:spray-origin="#use14788">&#10;      <animateTransform
   attributeName="transform"
   attributeType="XML"
   type="scale"
   additive="sum"
   fill="freeze"
   begin="-0.46355278879176665s"
   dur="1.1517169347221774s"
   keyTimes="0;0.5;1"
   values="0.5;1.0;0.5"
   keySplines="0.42 0 1 1; 0 0 0.58 1"
   calcMode="spline"
   repeatCount="indefinite" />&#10;    </path>&#10;    &#10;    &#10;    &#10;    &#10;    &#10;    &#10;    &#10;    &#10;    &#10;    &#10;    &#10;    &#10;    &#10;    &#10;    <path
   id="path976"
   style="fill:#fff2dc;fill-opacity:1;stroke:none;stroke-width:3.21947;stroke-dasharray:none"
   d="m 917.36377,201.214 -1.97609,-6.72689 -2.79417,-2.79453 -6.72711,-1.97598 6.72711,-1.97601 2.79417,-2.79453 1.97609,-6.72688 1.97576,6.72688 2.79485,2.79453 6.72702,1.97601 -6.72702,1.97598 -2.79485,2.79453 z"
   sodipodi:nodetypes="ccccccccccccc"
   inkscape:spray-origin="#use14788">&#10;      <animateTransform
   attributeName="transform"
   attributeType="XML"
   type="scale"
   additive="sum"
   fill="freeze"
   begin="-0.8711207049922268s"
   dur="1.0689345816788791s"
   keyTimes="0;0.5;1"
   values="0.5;1.0;0.5"
   keySplines="0.42 0 1 1; 0 0 0.58 1"
   calcMode="spline"
   repeatCount="indefinite" />&#10;    </path>&#10;    <path
   id="path978"
   style="fill:#fff2dc;fill-opacity:1;stroke:none;stroke-width:3.21947;stroke-dasharray:none"
   d="m 629.93907,37.012918 -1.44746,-4.9283 -2.04726,-2.04736 -4.92865,-1.44766 4.92865,-1.4477 2.04726,-2.04736 1.44746,-4.92829 1.44754,4.92829 2.04751,2.04736 4.92874,1.4477 -4.92874,1.44766 -2.04751,2.04736 z"
   sodipodi:nodetypes="ccccccccccccc"
   inkscape:spray-origin="#use14788">&#10;      <animateTransform
   attributeName="transform"
   attributeType="XML"
   type="scale"
   additive="sum"
   fill="freeze"
   begin="-0.6601427663768897s"
   dur="1.1886822933562098s"
   keyTimes="0;0.5;1"
   values="0.5;1.0;0.5"
   keySplines="0.42 0 1 1; 0 0 0.58 1"
   calcMode="spline"
   repeatCount="indefinite" />&#10;    </path>&#10;    <path
   id="path980"
   style="fill:#fff2dc;fill-opacity:1;stroke:none;stroke-width:3.21947;stroke-dasharray:none"
   d="m 821.99522,112.82311 -0.98809,-3.36424 -1.3976,-1.39761 -3.36428,-0.98822 3.36428,-0.98824 1.3976,-1.39761 0.98809,-3.36424 0.98835,3.36424 1.39759,1.39761 3.36429,0.98824 -3.36429,0.98822 -1.39759,1.39761 z"
   sodipodi:nodetypes="ccccccccccccc"
   inkscape:spray-origin="#use14788">&#10;      <animateTransform
   attributeName="transform"
   attributeType="XML"
   type="scale"
   additive="sum"
   fill="freeze"
   begin="-0.5131294276870348s"
   dur="1.1422125130686325s"
   keyTimes="0;0.5;1"
   values="0.5;1.0;0.5"
   keySplines="0.42 0 1 1; 0 0 0.58 1"
   calcMode="spline"
   repeatCount="indefinite" />&#10;    </path>&#10;    <path
   id="path982"
   style="fill:#fff2dc;fill-opacity:1;stroke:none;stroke-width:3.21947;stroke-dasharray:none"
   d="m 845.72405,430.46543 -1.3509,-4.59923 -1.91041,-1.91069 -4.59972,-1.35099 4.59972,-1.35101 1.91041,-1.91069 1.3509,-4.59923 1.35089,4.59923 1.91076,1.91069 4.59963,1.35101 -4.59963,1.35099 -1.91076,1.91069 z"
   sodipodi:nodetypes="ccccccccccccc"
   inkscape:spray-origin="#use14788">&#10;      <animateTransform
   attributeName="transform"
   attributeType="XML"
   type="scale"
   additive="sum"
   fill="freeze"
   begin="-0.9797974455994556s"
   dur="1.0204174592377548s"
   keyTimes="0;0.5;1"
   values="0.5;1.0;0.5"
   keySplines="0.42 0 1 1; 0 0 0.58 1"
   calcMode="spline"
   repeatCount="indefinite" />&#10;    </path>&#10;    &#10;    &#10;    &#10;    &#10;    &#10;    &#10;    &#10;    <path
   id="path998"
   style="fill:#fff2dc;fill-opacity:1;stroke:none;stroke-width:3.21947;stroke-dasharray:none"
   d="m 629.93907,567.25452 -1.91392,-6.51527 -2.70633,-2.70667 -6.51552,-1.91381 6.51552,-1.91384 2.70633,-2.70667 1.91392,-6.51528 1.91366,6.51528 2.70693,2.70667 6.5156,1.91384 -6.5156,1.91381 -2.70693,2.70667 z"
   sodipodi:nodetypes="ccccccccccccc"
   inkscape:spray-origin="#use14788">&#10;      <animateTransform
   attributeName="transform"
   attributeType="XML"
   type="scale"
   additive="sum"
   fill="freeze"
   begin="-0.4621538496277905s"
   dur="0.8986768902680379s"
   keyTimes="0;0.5;1"
   values="0.5;1.0;0.5"
   keySplines="0.42 0 1 1; 0 0 0.58 1"
   calcMode="spline"
   repeatCount="indefinite" />&#10;    </path>&#10;    <path
   id="path1002"
   style="fill:#fff2dc;fill-opacity:1;stroke:none;stroke-width:3.21947;stroke-dasharray:none"
   d="m 972.49652,162.17544 -1.19353,-4.06285 -1.68761,-1.68783 -4.06296,-1.19343 4.06296,-1.19346 1.68761,-1.68783 1.19353,-4.06284 1.19344,4.06284 1.68796,1.68783 4.06295,1.19346 -4.06295,1.19343 -1.68796,1.68783 z"
   sodipodi:nodetypes="ccccccccccccc"
   inkscape:spray-origin="#use14788">&#10;      <animateTransform
   attributeName="transform"
   attributeType="XML"
   type="scale"
   additive="sum"
   fill="freeze"
   begin="-0.48377390781294705s"
   dur="1.1491919060414268s"
   keyTimes="0;0.5;1"
   values="0.5;1.0;0.5"
   keySplines="0.42 0 1 1; 0 0 0.58 1"
   calcMode="spline"
   repeatCount="indefinite" />&#10;    </path>&#10;    <path
   id="path1004"
   style="fill:#fff2dc;fill-opacity:1;stroke:none;stroke-width:3.21947;stroke-dasharray:none"
   d="m 1367.2011,46.698658 -1.885,-6.4171 -2.6657,-2.66585 -6.4173,-1.885 6.4173,-1.88503 2.6657,-2.66585 1.885,-6.41711 1.885,6.41711 2.6661,2.66585 6.4173,1.88503 -6.4173,1.885 -2.6661,2.66585 z"
   sodipodi:nodetypes="ccccccccccccc"
   inkscape:spray-origin="#use14788">&#10;      <animateTransform
   attributeName="transform"
   attributeType="XML"
   type="scale"
   additive="sum"
   fill="freeze"
   begin="-0.755828297039279s"
   dur="0.9184523294152399s"
   keyTimes="0;0.5;1"
   values="0.5;1.0;0.5"
   keySplines="0.42 0 1 1; 0 0 0.58 1"
   calcMode="spline"
   repeatCount="indefinite" />&#10;    </path>&#10;    <path
   id="path1006"
   style="fill:#fff2dc;fill-opacity:1;stroke:none;stroke-width:3.21947;stroke-dasharray:none"
   d="m 1571.6234,411.15636 -1.5186,-5.17026 -2.1477,-2.1479 -5.1704,-1.51872 5.1704,-1.51875 2.1477,-2.1479 1.5186,-5.17027 1.5186,5.17027 2.1481,2.1479 5.1704,1.51875 -5.1704,1.51872 -2.1481,2.1479 z"
   sodipodi:nodetypes="ccccccccccccc"
   inkscape:spray-origin="#use14788">&#10;      <animateTransform
   attributeName="transform"
   attributeType="XML"
   type="scale"
   additive="sum"
   fill="freeze"
   begin="-0.7745144664644672s"
   dur="0.9849197411359784s"
   keyTimes="0;0.5;1"
   values="0.5;1.0;0.5"
   keySplines="0.42 0 1 1; 0 0 0.58 1"
   calcMode="spline"
   repeatCount="indefinite" />&#10;    </path>&#10;    <path
   id="path1008"
   style="fill:#fff2dc;fill-opacity:1;stroke:none;stroke-width:3.21947;stroke-dasharray:none"
   d="m 1341.6071,465.85686 -1.7852,-6.07781 -2.5248,-2.52489 -6.078,-1.78533 6.078,-1.78535 2.5248,-2.5249 1.7852,-6.07781 1.7852,6.07781 2.525,2.5249 6.078,1.78535 -6.078,1.78533 -2.525,2.52489 z"
   sodipodi:nodetypes="ccccccccccccc"
   inkscape:spray-origin="#use14788">&#10;      <animateTransform
   attributeName="transform"
   attributeType="XML"
   type="scale"
   additive="sum"
   fill="freeze"
   begin="-0.48068419484736435s"
   dur="1.1308288053488413s"
   keyTimes="0;0.5;1"
   values="0.5;1.0;0.5"
   keySplines="0.42 0 1 1; 0 0 0.58 1"
   calcMode="spline"
   repeatCount="indefinite" />&#10;    </path>&#10;    <path
   id="path1010"
   style="fill:#fff2dc;fill-opacity:1;stroke:none;stroke-width:3.21947;stroke-dasharray:none"
   d="m 1056.5319,92.973858 -1.0766,-3.66575 -1.5228,-1.52287 -3.6659,-1.07678 3.6659,-1.07681 1.5228,-1.52288 1.0766,-3.66575 1.077,3.66575 1.5228,1.52288 3.6659,1.07681 -3.6659,1.07678 -1.5228,1.52287 z"
   sodipodi:nodetypes="ccccccccccccc"
   inkscape:spray-origin="#use14788">&#10;      <animateTransform
   attributeName="transform"
   attributeType="XML"
   type="scale"
   additive="sum"
   fill="freeze"
   begin="-0.5861707989082072s"
   dur="0.9729326391413272s"
   keyTimes="0;0.5;1"
   values="0.5;1.0;0.5"
   keySplines="0.42 0 1 1; 0 0 0.58 1"
   calcMode="spline"
   repeatCount="indefinite" />&#10;    </path>&#10;    <path
   id="path1012"
   style="fill:#fff2dc;fill-opacity:1;stroke:none;stroke-width:3.21947;stroke-dasharray:none"
   d="m 890.0155,572.87411 -1.9546,-6.65348 -2.7635,-2.76407 -6.654,-1.95441 6.654,-1.95444 2.7635,-2.76408 1.9546,-6.65347 1.9542,6.65347 2.7642,2.76408 6.654,1.95444 -6.654,1.95441 -2.7642,2.76407 z"
   sodipodi:nodetypes="ccccccccccccc"
   inkscape:spray-origin="#use14788">&#10;      <animateTransform
   attributeName="transform"
   attributeType="XML"
   type="scale"
   additive="sum"
   fill="freeze"
   begin="-0.30552567397758335s"
   dur="0.8452745838707353s"
   keyTimes="0;0.5;1"
   values="0.5;1.0;0.5"
   keySplines="0.42 0 1 1; 0 0 0.58 1"
   calcMode="spline"
   repeatCount="indefinite" />&#10;    </path>&#10;    <path
   id="path1014"
   style="fill:#fff2dc;fill-opacity:1;stroke:none;stroke-width:3.21947;stroke-dasharray:none"
   d="m 1111.5443,114.72202 -1.9884,-6.76921 -2.8118,-2.81214 -6.7697,-1.98841 6.7697,-1.98844 2.8118,-2.812142 1.9884,-6.76922 1.9883,6.76922 2.8122,2.812142 6.7696,1.98844 -6.7696,1.98841 -2.8122,2.81214 z"
   sodipodi:nodetypes="ccccccccccccc"
   inkscape:spray-origin="#use14788">&#10;      <animateTransform
   attributeName="transform"
   attributeType="XML"
   type="scale"
   additive="sum"
   fill="freeze"
   begin="-0.4812572456850108s"
   dur="0.8403281084073563s"
   keyTimes="0;0.5;1"
   values="0.5;1.0;0.5"
   keySplines="0.42 0 1 1; 0 0 0.58 1"
   calcMode="spline"
   repeatCount="indefinite" />&#10;    </path>&#10;    <path
   id="path1016"
   style="fill:#fff2dc;fill-opacity:1;stroke:none;stroke-width:3.21947;stroke-dasharray:none"
   d="m 660.54198,63.732884 -1.5299,-5.20826 -2.16349,-2.16368 -5.20841,-1.52988 5.20841,-1.52993 2.16349,-2.16367 1.5299,-5.20826 1.52991,5.20826 2.16374,2.16367 5.2085,1.52993 -5.2085,1.52988 -2.16374,2.16368 z"
   sodipodi:nodetypes="ccccccccccccc"
   inkscape:spray-origin="#use14788">&#10;      <animateTransform
   attributeName="transform"
   attributeType="XML"
   type="scale"
   additive="sum"
   fill="freeze"
   begin="-0.8897108790443519s"
   dur="1.199257761266355s"
   keyTimes="0;0.5;1"
   values="0.5;1.0;0.5"
   keySplines="0.42 0 1 1; 0 0 0.58 1"
   calcMode="spline"
   repeatCount="indefinite" />&#10;    </path>&#10;    <path
   id="path1020"
   style="fill:#fff2dc;fill-opacity:1;stroke:none;stroke-width:3.21947;stroke-dasharray:none"
   d="m 1553.0122,539.58537 -1.1368,-3.87061 -1.6078,-1.60795 -3.8708,-1.13696 3.8708,-1.13699 1.6078,-1.60796 1.1368,-3.87061 1.1371,3.87061 1.6078,1.60796 3.8707,1.13699 -3.8707,1.13696 -1.6078,1.60795 z"
   sodipodi:nodetypes="ccccccccccccc"
   inkscape:spray-origin="#use14788">&#10;      <animateTransform
   attributeName="transform"
   attributeType="XML"
   type="scale"
   additive="sum"
   fill="freeze"
   begin="-0.8892256839243122s"
   dur="1.0434856957207572s"
   keyTimes="0;0.5;1"
   values="0.5;1.0;0.5"
   keySplines="0.42 0 1 1; 0 0 0.58 1"
   calcMode="spline"
   repeatCount="indefinite" />&#10;    </path>&#10;    &#10;    &#10;    &#10;    &#10;    <path
   id="path1034"
   style="fill:#fff2dc;fill-opacity:1;stroke:none;stroke-width:3.21947;stroke-dasharray:none"
   d="m 1597.1206,227.59457 -1.8638,-6.34457 -2.6354,-2.63571 -6.3449,-1.86369 6.3449,-1.86372 2.6354,-2.63571 1.8638,-6.34458 1.8637,6.34458 2.6358,2.63571 6.345,1.86372 -6.345,1.86369 -2.6358,2.63571 z"
   sodipodi:nodetypes="ccccccccccccc"
   inkscape:spray-origin="#use14788">&#10;      <animateTransform
   attributeName="transform"
   attributeType="XML"
   type="scale"
   additive="sum"
   fill="freeze"
   begin="-0.772711531635647s"
   dur="1.1676217337127257s"
   keyTimes="0;0.5;1"
   values="0.5;1.0;0.5"
   keySplines="0.42 0 1 1; 0 0 0.58 1"
   calcMode="spline"
   repeatCount="indefinite" />&#10;    </path>&#10;    &#10;    &#10;    &#10;    &#10;    &#10;    <path
   id="path580"
   style="fill:#fff2dc;fill-opacity:1;stroke:none;stroke-width:4.3231;stroke-dasharray:none"
   d="m 655.38734,423.72721 -2.06274,-7.02172 -2.9168,-2.91707 -7.02202,-2.06258 7.02202,-2.06261 2.9168,-2.91707 2.06274,-7.02172 2.0624,7.02172 2.9174,2.91707 7.02201,2.06261 -7.02201,2.06258 -2.9174,2.91707 z"
   sodipodi:nodetypes="ccccccccccccc"
   inkscape:spray-origin="#use14788">&#10;      <animateTransform
   attributeName="transform"
   attributeType="XML"
   type="scale"
   additive="sum"
   fill="freeze"
   begin="-0.19129207032178974s"
   dur="0.9731433442928421s"
   keyTimes="0;0.5;1"
   values="0.5;1.0;0.5"
   keySplines="0.42 0 1 1; 0 0 0.58 1"
   calcMode="spline"
   repeatCount="indefinite" />&#10;    </path>&#10;    <path
   id="path582"
   style="fill:#fff2dc;fill-opacity:1;stroke:none;stroke-width:2.87843;stroke-dasharray:none"
   d="m 573.60296,270.54522 -1.37348,-4.67527 -1.94197,-1.94224 -4.67524,-1.37333 4.67524,-1.37336 1.94197,-1.94224 1.37348,-4.67528 1.37339,4.67528 1.94231,1.94224 4.67533,1.37336 -4.67533,1.37333 -1.94231,1.94224 z"
   sodipodi:nodetypes="ccccccccccccc"
   inkscape:spray-origin="#use14788">&#10;      <animateTransform
   attributeName="transform"
   attributeType="XML"
   type="scale"
   additive="sum"
   fill="freeze"
   begin="-0.7417850797182786s"
   dur="0.805088870800706s"
   keyTimes="0;0.5;1"
   values="0.5;1.0;0.5"
   keySplines="0.42 0 1 1; 0 0 0.58 1"
   calcMode="spline"
   repeatCount="indefinite" />&#10;    </path>&#10;    <path
   id="path584"
   style="fill:#fff2dc;fill-opacity:1;stroke:none;stroke-width:4.04332;stroke-dasharray:none"
   d="m 493.74499,432.24716 -1.92915,-6.56733 -2.72813,-2.7283 -6.56744,-1.92911 6.56744,-1.92913 2.72813,-2.72831 1.92915,-6.56732 1.92905,6.56732 2.72848,2.72831 6.56744,1.92913 -6.56744,1.92911 -2.72848,2.7283 z"
   sodipodi:nodetypes="ccccccccccccc"
   inkscape:spray-origin="#use14788">&#10;      <animateTransform
   attributeName="transform"
   attributeType="XML"
   type="scale"
   additive="sum"
   fill="freeze"
   begin="-0.044876629266545454s"
   dur="0.89607413722171s"
   keyTimes="0;0.5;1"
   values="0.5;1.0;0.5"
   keySplines="0.42 0 1 1; 0 0 0.58 1"
   calcMode="spline"
   repeatCount="indefinite" />&#10;    </path>&#10;    <path
   id="path586"
   style="fill:#fff2dc;fill-opacity:1;stroke:none;stroke-width:3.92421;stroke-dasharray:none"
   d="m 759.48018,189.37646 -1.87219,-6.37382 -2.64765,-2.64792 -6.37423,-1.87228 6.37423,-1.87231 2.64765,-2.64792 1.87219,-6.37384 1.87209,6.37384 2.648,2.64792 6.37423,1.87231 -6.37423,1.87228 -2.648,2.64792 z"
   sodipodi:nodetypes="ccccccccccccc"
   inkscape:spray-origin="#use14788">&#10;      <animateTransform
   attributeName="transform"
   attributeType="XML"
   type="scale"
   additive="sum"
   fill="freeze"
   begin="-0.09496252806686445s"
   dur="0.9912230032324905s"
   keyTimes="0;0.5;1"
   values="0.5;1.0;0.5"
   keySplines="0.42 0 1 1; 0 0 0.58 1"
   calcMode="spline"
   repeatCount="indefinite" />&#10;    </path>&#10;    <path
   id="path588"
   style="fill:#fff2dc;fill-opacity:1;stroke:none;stroke-width:4.01947;stroke-dasharray:none"
   d="m 617.47045,137.76249 -1.91786,-6.5286 -2.71179,-2.71218 -6.52904,-1.91773 6.52904,-1.91778 2.71179,-2.71217 1.91786,-6.52859 1.91751,6.52859 2.7124,2.71217 6.52903,1.91778 -6.52903,1.91773 -2.7124,2.71218 z"
   sodipodi:nodetypes="ccccccccccccc"
   inkscape:spray-origin="#use14788">&#10;      <animateTransform
   attributeName="transform"
   attributeType="XML"
   type="scale"
   additive="sum"
   fill="freeze"
   begin="-0.19090281521445385s"
   dur="0.9743732426119597s"
   keyTimes="0;0.5;1"
   values="0.5;1.0;0.5"
   keySplines="0.42 0 1 1; 0 0 0.58 1"
   calcMode="spline"
   repeatCount="indefinite" />&#10;    </path>&#10;    <path
   id="path590"
   style="fill:#fff2dc;fill-opacity:1;stroke:none;stroke-width:1.9926;stroke-dasharray:none"
   d="m 734.20477,483.59582 -0.95072,-3.23643 -1.34448,-1.34456 -3.23651,-0.95067 3.23651,-0.95071 1.34448,-1.34455 0.95072,-3.23643 0.95071,3.23643 1.34474,1.34455 3.23651,0.95071 -3.23651,0.95067 -1.34474,1.34456 z"
   sodipodi:nodetypes="ccccccccccccc"
   inkscape:spray-origin="#use14788">&#10;      <animateTransform
   attributeName="transform"
   attributeType="XML"
   type="scale"
   additive="sum"
   fill="freeze"
   begin="-0.6964857993635546s"
   dur="0.9742104194804186s"
   keyTimes="0;0.5;1"
   values="0.5;1.0;0.5"
   keySplines="0.42 0 1 1; 0 0 0.58 1"
   calcMode="spline"
   repeatCount="indefinite" />&#10;    </path>&#10;    <path
   id="path592"
   style="fill:#fff2dc;fill-opacity:1;stroke:none;stroke-width:2.65879;stroke-dasharray:none"
   d="m 755.78644,499.97795 -1.26845,-4.3185 -1.79392,-1.79405 -4.31859,-1.26853 4.31859,-1.26857 1.79392,-1.79405 1.26845,-4.3185 1.26845,4.3185 1.79427,1.79405 4.31859,1.26857 -4.31859,1.26853 -1.79427,1.79405 z"
   sodipodi:nodetypes="ccccccccccccc"
   inkscape:spray-origin="#use14788">&#10;      <animateTransform
   attributeName="transform"
   attributeType="XML"
   type="scale"
   additive="sum"
   fill="freeze"
   begin="-0.594480253309349s"
   dur="1.0923707577850315s"
   keyTimes="0;0.5;1"
   values="0.5;1.0;0.5"
   keySplines="0.42 0 1 1; 0 0 0.58 1"
   calcMode="spline"
   repeatCount="indefinite" />&#10;    </path>&#10;    <path
   id="path594"
   style="fill:#fff2dc;fill-opacity:1;stroke:none;stroke-width:3.71896;stroke-dasharray:none"
   d="m 821.20978,553.72193 -1.77425,-6.04053 -2.50927,-2.50941 -6.04068,-1.77438 6.04068,-1.77441 2.50927,-2.50941 1.77425,-6.04052 1.77426,6.04052 2.50953,2.50941 6.04067,1.77441 -6.04067,1.77438 -2.50953,2.50941 z"
   sodipodi:nodetypes="ccccccccccccc"
   inkscape:spray-origin="#use14788">&#10;      <animateTransform
   attributeName="transform"
   attributeType="XML"
   type="scale"
   additive="sum"
   fill="freeze"
   begin="-0.12300893189294515s"
   dur="1.0860425276997032s"
   keyTimes="0;0.5;1"
   values="0.5;1.0;0.5"
   keySplines="0.42 0 1 1; 0 0 0.58 1"
   calcMode="spline"
   repeatCount="indefinite" />&#10;    </path>&#10;    &#10;    &#10;    &#10;    &#10;    &#10;  </g>&#10;  <g
   inkscape:groupmode="layer"
   id="celestial_bodies"
   inkscape:label="celestial_bodies"
   transform="translate(-441.77515,1.0000021)">&#10;    <path
   id="path10493"
   style="fill:none;stroke:#fff2dc;stroke-width:3.21947;stroke-dasharray:none;stroke-opacity:1"
   d="m 530.12258,257.33532 -9.42917,-32.1 -13.33535,-13.33508 -32.10002,-9.4294 32.10002,-9.42933 13.33535,-13.33512 9.42917,-32.09995 9.4295,32.09995 13.33501,13.33512 32.10002,9.42933 -32.10002,9.4294 -13.33501,13.33508 z"
   sodipodi:nodetypes="ccccccccccccc" />&#10;    <path
   id="path10493-7"
   style="fill:none;stroke:#fff2dc;stroke-width:3.21947;stroke-dasharray:none;stroke-opacity:1"
   d="m 735.4959,92.9389 -5.1908,-17.670332 -7.34068,-7.34067 -17.67036,-5.19065 17.67036,-5.19063 7.34068,-7.34069 5.1908,-17.67031 5.19037,17.67031 7.34077,7.34069 17.67036,5.19063 -17.67036,5.19065 -7.34077,7.34067 z"
   sodipodi:nodetypes="ccccccccccccc" />&#10;    <path
   id="path10672"
   style="fill:none;stroke:#fff2dc;stroke-width:3.21947;stroke-dasharray:none;stroke-opacity:1"
   d="m 1495.2192,474.49892 a 69.575908,69.575908 0 0 0 -30.638,57.54122 69.575908,69.575908 0 0 0 69.5765,69.57669 69.575908,69.575908 0 0 0 57.5364,-30.63608 69.575908,69.575908 0 0 1 -38.9337,12.03323 69.575908,69.575908 0 0 1 -69.5765,-69.57667 69.575908,69.575908 0 0 1 12.0353,-38.93839 z" />&#10;  </g>&#10;  <g
   inkscape:groupmode="layer"
   id="layer2"
   inkscape:label="triangles"
   style="display:none;fill:none;stroke:#00ff00;stroke-opacity:1"
   transform="translate(-441.77515,1.0000021)">&#10;    <path
   style="fill:none;stroke:#b3b3b3;stroke-width:1;stroke-linecap:butt;stroke-linejoin:miter;stroke-dasharray:none;stroke-opacity:1"
   d="m 985.4846,208.72845 h 74.9171 l -37.4587,64.88008"
   id="path10366" />&#10;    <path
   style="fill:none;stroke:#b3b3b3;stroke-width:1;stroke-linecap:butt;stroke-linejoin:miter;stroke-dasharray:none;stroke-opacity:1"
   d="m 985.4846,208.72845 37.4585,64.88008 h -74.91705 z"
   id="path10368" />&#10;    <path
   style="fill:none;stroke:#b3b3b3;stroke-width:1;stroke-linecap:butt;stroke-linejoin:miter;stroke-dasharray:none;stroke-opacity:1"
   d="m 948.02605,273.60853 37.45855,64.88008"
   id="path10370" />&#10;    <path
   style="fill:none;stroke:#b3b3b3;stroke-width:1;stroke-linecap:butt;stroke-linejoin:miter;stroke-dasharray:none;stroke-opacity:1"
   d="m 985.4846,338.48861 h -74.91708 l 37.45853,-64.88008"
   id="path10372" />&#10;    <path
   style="fill:none;stroke:#b3b3b3;stroke-width:1;stroke-linecap:butt;stroke-linejoin:miter;stroke-dasharray:none;stroke-opacity:1"
   d="m 1022.943,273.60853 -37.4584,64.88008"
   id="path10374" />&#10;    <path
   style="fill:none;stroke:#b3b3b3;stroke-width:1;stroke-linecap:butt;stroke-linejoin:miter;stroke-dasharray:none;stroke-opacity:1"
   d="m 910.56752,338.48861 37.45853,64.88009 37.45855,-64.88009"
   id="path10376" />&#10;    <path
   style="fill:none;stroke:#b3b3b3;stroke-width:1;stroke-linecap:butt;stroke-linejoin:miter;stroke-dasharray:none;stroke-opacity:1"
   d="m 985.4846,338.48861 37.4585,64.88008"
   id="path10378" />&#10;    <path
   style="fill:none;stroke:#b3b3b3;stroke-width:1;stroke-linecap:butt;stroke-linejoin:miter;stroke-dasharray:none;stroke-opacity:1"
   d="M 1022.943,403.3687 H 948.02605"
   id="path10380" />&#10;    <path
   style="fill:none;stroke:#b3b3b3;stroke-width:1;stroke-linecap:butt;stroke-linejoin:miter;stroke-dasharray:none;stroke-opacity:1"
   d="m 985.4846,338.48861 h 74.9171 l -37.4587,64.88008"
   id="path10382" />&#10;    <path
   style="fill:none;stroke:#b3b3b3;stroke-width:1;stroke-linecap:butt;stroke-linejoin:miter;stroke-dasharray:none;stroke-opacity:1"
   d="m 1060.4017,338.48861 37.4585,-64.88008"
   id="path10384" />&#10;    <path
   style="fill:none;stroke:#b3b3b3;stroke-width:1;stroke-linecap:butt;stroke-linejoin:miter;stroke-dasharray:none;stroke-opacity:1"
   d="m 1097.8602,273.60853 37.4585,64.88008"
   id="path10386" />&#10;    <path
   style="fill:none;stroke:#b3b3b3;stroke-width:1;stroke-linecap:butt;stroke-linejoin:miter;stroke-dasharray:none;stroke-opacity:1"
   d="m 1060.4017,338.48861 h 74.917"
   id="path10388" />&#10;    <path
   style="fill:none;stroke:#b3b3b3;stroke-width:1;stroke-linecap:butt;stroke-linejoin:miter;stroke-dasharray:none;stroke-opacity:1"
   d="m 1060.4017,338.48861 37.4585,64.88009 37.4585,-64.88009"
   id="path10390" />&#10;    <path
   style="fill:none;stroke:#b3b3b3;stroke-width:1;stroke-linecap:butt;stroke-linejoin:miter;stroke-dasharray:none;stroke-opacity:1"
   d="m 1135.3187,338.48861 37.4586,64.88009 h -74.9171"
   id="path10392" />&#10;    <path
   style="fill:none;stroke:#b3b3b3;stroke-width:1;stroke-linecap:butt;stroke-linejoin:miter;stroke-dasharray:none;stroke-opacity:1"
   d="m 1097.8602,273.60853 h 74.9171"
   id="path10394" />&#10;    <path
   style="fill:none;stroke:#b3b3b3;stroke-width:1;stroke-linecap:butt;stroke-linejoin:miter;stroke-dasharray:none;stroke-opacity:1"
   d="m 1172.7773,273.60853 -37.4586,64.88008"
   id="path10396" />&#10;    <path
   style="fill:none;stroke:#b3b3b3;stroke-width:1;stroke-linecap:butt;stroke-linejoin:miter;stroke-dasharray:none;stroke-opacity:1"
   d="m 1097.8602,273.60853 -37.4585,-64.88008 h 74.917"
   id="path10398" />&#10;    <path
   style="fill:none;stroke:#b3b3b3;stroke-width:1;stroke-linecap:butt;stroke-linejoin:miter;stroke-dasharray:none;stroke-opacity:1"
   d="m 1135.3187,208.72845 -37.4585,64.88008"
   id="path10400" />&#10;    <path
   style="fill:none;stroke:#b3b3b3;stroke-width:1;stroke-linecap:butt;stroke-linejoin:miter;stroke-dasharray:none;stroke-opacity:1"
   d="m 1135.3187,208.72845 37.4586,64.88008"
   id="path10402" />&#10;  </g>&#10;  <g
   inkscape:groupmode="layer"
   id="outlines"
   inkscape:label="outlines"
   transform="translate(-441.77515,1.0000021)" />&#10;  <g
   inkscape:groupmode="layer"
   id="layer1"
   inkscape:label="box"
   transform="translate(0.50000313,0.50000213)"
   style="display:none">&#10;    <rect
   style="fill:none;stroke:#00ff00;stroke-width:1;stroke-dasharray:none;stop-color:#000000"
   id="rect408"
   width="1199.2854"
   height="522.09235"
   x="-0.14216563"
   y="-0.14216463" />&#10;  </g>&#10;</svg>
