<?xml version="1.0" encoding="UTF-8" standalone="no"?>
<!-- Created with Inkscape (http://www.inkscape.org/) -->

<svg
   width="82.080673"
   height="103.34538"
   viewBox="0 0 82.080673 103.34538"
   version="1.1"
   id="svg348"
   xml:space="preserve"
   inkscape:version="1.2 (dc2aedaf03, 2022-05-15)"
   sodipodi:docname="cat.svg"
   xmlns:inkscape="http://www.inkscape.org/namespaces/inkscape"
   xmlns:sodipodi="http://sodipodi.sourceforge.net/DTD/sodipodi-0.dtd"
   xmlns="http://www.w3.org/2000/svg"
   xmlns:svg="http://www.w3.org/2000/svg"><style
     id="style4175">
path { 
    vector-effect:non-scaling-stroke;
}
</style><sodipodi:namedview
     id="namedview350"
     pagecolor="#ffffff"
     bordercolor="#666666"
     borderopacity="1.0"
     inkscape:showpageshadow="2"
     inkscape:pageopacity="0.0"
     inkscape:pagecheckerboard="0"
     inkscape:deskcolor="#d1d1d1"
     inkscape:document-units="mm"
     showgrid="false"
     inkscape:zoom="5.1754899"
     inkscape:cx="26.084487"
     inkscape:cy="30.721729"
     inkscape:window-width="2560"
     inkscape:window-height="1417"
     inkscape:window-x="-8"
     inkscape:window-y="-8"
     inkscape:window-maximized="1"
     inkscape:current-layer="svg348" /><defs
     id="defs345"><inkscape:path-effect
       effect="simplify"
       id="path-effect805"
       is_visible="true"
       lpeversion="1"
       steps="3"
       threshold="0.0002"
       smooth_angles="10"
       helper_size="15"
       simplify_individual_paths="false"
       simplify_just_coalesce="false" /><inkscape:path-effect
       effect="attach_path"
       id="path-effect803"
       lpeversion="1"
       is_visible="true"
       startpath=""
       startposition="0"
       startcurvestart="0,0 , 20,0"
       startcurveend="0,0 , 20,0"
       endpath=""
       endposition="0"
       endcurvestart="0,0 , 20,0"
       endcurveend="0,0 , 20,0" /></defs><path
     id="path774"
     style="display:inline;fill:none;stroke:#fff2dc;stroke-width:1.0;stroke-linecap:butt;stroke-linejoin:miter;stroke-dasharray:none;stroke-opacity:1"
     d="m 8.0563558,13.261206 c -0.1325057,0.004 -0.2648606,0.06587 -0.3433396,0.175773 -0.092684,0.129798 -0.1220913,0.292164 -0.1321575,0.448038 -0.019908,0.308277 0.025973,0.615809 0.078286,0.918659 0.048516,0.280862 0.1196285,0.558178 0.150756,0.841692 0.00732,0.06671 0.00922,0.136181 -0.015403,0.200656 -0.057146,0.149661 -0.082128,0.309575 -0.094776,0.468546 -0.00534,0.06715 -0.00811,0.134492 -0.00913,0.201843 -0.026223,0.043 -0.085863,0.04643 -0.1163652,0.08707 -0.074187,0.06218 -0.1198301,0.15104 -0.1459044,0.243754 -0.027602,0.09815 -0.041727,0.199569 -0.049449,0.30107 -0.3593537,0.400277 -0.6926855,0.82418 -0.9943455,1.269533 -0.2638639,0.389553 -0.5060104,0.797454 -0.6781277,1.2364 -0.086553,0.220734 -0.1436498,0.452092 -0.1780614,0.686961 -0.087169,0.594951 -0.1515588,1.195759 -0.1394784,1.797586 8.366e-4,0.04168 0.00227,0.08335 0.0046,0.12497 -0.5093122,1.001492 -1.0037408,2.011017 -1.4591248,3.038276 -0.2041171,0.460449 -0.4037731,0.923807 -0.5660088,1.400869 -0.065436,0.192419 -0.1357753,0.386678 -0.1550543,0.589676 -0.012521,0.131836 -0.013418,0.264368 -0.017179,0.396643 -0.00987,0.347048 -0.014112,0.694449 -0.00155,1.041488 -0.00898,0.05845 -0.034679,0.112127 -0.053096,0.167995 -0.2166709,0.657268 -0.3779984,1.333352 -0.4731515,2.018909 -0.087622,0.631293 -0.119153,1.274988 -0.03438,1.908225 0.032041,0.239337 0.088894,0.474351 0.1488466,0.708056 0.3097864,1.207599 0.6648051,2.403004 1.0307551,3.594587 0.1076236,0.350437 0.1649662,0.721466 0.3285058,1.049559 0.060778,0.121932 0.1717031,0.229826 0.3098818,0.250223 0.148694,0.02195 0.3018824,-0.01265 0.4341898,-0.08153 0.016331,0.0173 -0.00722,0.04695 -0.00401,0.07053 -0.032633,0.223956 -0.049636,0.455613 0.00232,0.677676 0.026361,0.112674 0.07829,0.228432 0.178187,0.293807 0.072194,0.04725 0.1607572,0.05293 0.2447034,0.05426 0.1394867,0.0022 0.2889766,-0.01831 0.4015968,-0.10653 0.046407,-0.03635 0.085175,-0.08486 0.1021106,-0.141972 0.014216,0.09653 0.060698,0.198897 0.1529473,0.242832 0.099127,0.04721 0.2285344,0.0103 0.2883537,-0.08172 0.021173,-0.02087 0.037478,-0.07649 0.048542,-0.08284 0.045163,0.129585 0.1744552,0.216648 0.310925,0.228626 0.115528,0.01014 0.2412067,-0.02381 0.3191291,-0.114386 0.044282,-0.05148 0.072411,-0.116145 0.082097,-0.18321 0.027674,0.0029 0.070162,-0.0081 0.088457,0.0036 -0.018544,0.22852 -0.05065,0.460046 -0.01445,0.688109 0.013882,0.08746 0.041244,0.184281 0.1175506,0.236631 0.055989,0.03841 0.1268767,0.03546 0.1918277,0.03006 0.080385,-0.0067 0.1723691,-0.01094 0.2323371,-0.06882 0.018931,-0.01827 0.031805,-0.04549 0.026099,-0.07211 0.056644,0.147106 0.2025011,0.248191 0.3581592,0.266858 0.1094695,0.01313 0.2224304,0.0036 0.3269042,-0.03079 0.060667,-0.01995 0.1311847,-0.05441 0.1461288,-0.119382 0.00244,-0.01062 0.00438,-0.05489 0.013701,-0.02468 0.066146,0.125118 0.2033001,0.197061 0.3398367,0.216724 0.1547908,0.02229 0.3183171,0.0056 0.4596992,-0.06241 0.09526,-0.04586 0.1807367,-0.118367 0.2283445,-0.214073 0.038895,0.04965 0.089127,0.09155 0.1506426,0.111077 0.088969,0.02824 0.1878593,0.02935 0.2757518,-10e-4 0.058872,-0.02034 0.1064599,-0.0747 0.1081049,-0.139498 0.0026,-0.100852 4.13e-4,-0.201919 -0.0051,-0.30266 -0.0092,-0.167117 -0.0542,-0.329254 -0.081795,-0.495186 -0.00353,-0.02122 -0.030966,-0.05513 -0.023769,-0.06649 0.244059,-0.0036 0.488117,-0.0072 0.732175,-0.01077 -0.04641,0.142957 -0.09777,0.292823 -0.07417,0.445048 0.01824,0.117681 0.102342,0.214589 0.203248,0.274504 0.155438,0.09229 0.329774,0.147115 0.504312,0.189894 0.305589,0.0749 0.619745,0.106809 0.933132,0.128523 0.129125,0.0089 0.262383,-0.01109 0.37689,-0.07786 0.0244,-0.01423 0.04733,-0.0528 0.07505,-0.01992 0.0267,0.03167 0.06173,0.05392 0.09691,0.07494 0.11726,0.07006 0.26807,0.09394 0.396215,0.03782 0.10776,-0.0472 0.193249,-0.134 0.25854,-0.230136 0.02127,0.0067 0.02642,0.04513 0.0505,0.05749 0.04003,0.03502 0.09729,0.03931 0.147937,0.02402 0.07335,-0.02214 0.140892,-0.07345 0.170259,-0.145714 0.07177,0.0076 0.159201,0.01718 0.212665,-0.03664 0.04264,-0.04293 0.03008,-0.107505 0.03196,-0.161784 9.76e-4,-0.02826 -0.02158,-0.08819 0.02676,-0.07758 0.110306,-0.0038 0.227728,-0.03334 0.305716,-0.116248 0.05867,-0.06237 0.08709,-0.148841 0.08798,-0.233549 0.0042,0.12316 0.08834,0.236126 0.203484,0.282054 0.131703,0.05253 0.27801,0.04505 0.415071,0.02285 0.111028,-0.01799 0.228615,-0.0527 0.305161,-0.139205 0.03847,-0.04347 0.06384,-0.101206 0.05969,-0.160015 0.0042,0.04705 0.01059,0.107788 0.0567,0.130111 0.04905,0.02375 0.10546,-0.0061 0.148248,-0.03024 0.08098,-0.04577 0.117676,-0.13939 0.135709,-0.22604 0.03609,-0.173422 0.03086,-0.352188 0.01737,-0.527634 -0.0094,-0.122861 -0.03276,-0.248602 -0.0069,-0.370006 0.01159,-0.05441 0.06995,-0.05861 0.114747,-0.03606 0.06683,0.03365 0.126643,0.07919 0.189477,0.119536 0.158463,0.101742 0.335348,0.183896 0.52566,0.199193 0.189519,0.01523 0.381391,-0.03942 0.539507,-0.144772 0.211893,-0.141182 0.367161,-0.353899 0.47312,-0.582731 0.101664,-0.219557 0.165406,-0.461765 0.152965,-0.704594 -0.0072,-0.139988 -0.05356,-0.274815 -0.117492,-0.398794 -0.115777,-0.224527 -0.277125,-0.420473 -0.427588,-0.621924 -0.12005,-0.160731 -0.242409,-0.325402 -0.309797,-0.516115 -0.02969,-0.08401 -0.03741,-0.174328 -0.02754,-0.263203 0.02484,-0.223869 0.08761,-0.441108 0.149916,-0.656779 0.179915,-0.622736 0.409228,-1.230758 0.569493,-1.859119 0.04131,-0.161979 0.09085,-0.326351 0.08552,-0.494223 -0.0042,-0.132415 -0.05062,-0.258396 -0.09592,-0.381167 -0.137428,-0.37244 -0.308149,-0.731291 -0.47713,-1.090101 -0.390956,-0.830145 -0.807926,-1.649218 -1.149883,-2.501345 -0.09592,-0.239017 -0.175344,-0.484146 -0.250581,-0.730482 -0.248687,-0.81423 -0.532674,-1.617325 -0.83698,-2.412323 -0.03179,-0.04352 -0.0035,-0.09605 0.0095,-0.140671 0.08108,-0.278729 0.160983,-0.559259 0.202225,-0.847 0.01421,-0.09916 0.01001,-0.199692 -0.0029,-0.298971 -0.03682,-0.282029 -0.09889,-0.559949 -0.162494,-0.836882 -0.02652,-0.115459 -0.05408,-0.230676 -0.08265,-0.345646 0.255183,-0.157922 0.482643,-0.360938 0.66836,-0.596405 0.197946,-0.250972 0.339076,-0.548836 0.391889,-0.865994 0.05799,-0.348235 0.07196,-0.701858 0.07634,-1.054471 0.0021,-0.166276 -0.006,-0.333053 0.0079,-0.498862 0.0077,-0.09154 0.02284,-0.184684 0.06811,-0.266475 0.05921,-0.106988 0.141803,-0.20308 0.172696,-0.324234 0.03298,-0.129326 0.03389,-0.264319 0.02894,-0.396782 -0.0062,-0.16709 -0.0719,-0.326361 -0.157033,-0.467788 -0.122941,-0.204236 -0.279971,-0.386746 -0.455715,-0.547287 0.02306,-0.289847 0.05508,-0.5809 0.03844,-0.871487 -0.01055,-0.184204 -0.06981,-0.364633 -0.166082,-0.521709 0.182844,-0.442627 0.347356,-0.894804 0.455816,-1.361738 0.0478,-0.205763 0.08765,-0.416315 0.07992,-0.628231 -0.0038,-0.104647 -0.01884,-0.217315 -0.08617,-0.300764 -0.04896,-0.06069 -0.127864,-0.08669 -0.204276,-0.08989 -0.140609,-0.0059 -0.277897,0.03527 -0.408734,0.082 -0.295743,0.105641 -0.573148,0.255515 -0.843845,0.413109 -0.357079,0.207884 -0.684375,0.463099 -1.038679,0.675481 -0.04631,0.02776 -0.09911,0.04086 -0.149883,0.05784 -0.208553,0.06971 -0.421614,0.138303 -0.642387,0.149275 -0.09598,0.0048 -0.189302,-0.0207 -0.283101,-0.03649 -0.225798,-0.03801 -0.449984,-0.103116 -0.678947,-0.104188 -0.329709,-0.0015 -0.65921,0.03712 -0.988766,0.01748 -0.09979,-0.0059 -0.197131,-0.03075 -0.291417,-0.064 -0.13838,-0.0488 -0.273241,-0.107104 -0.405503,-0.170523 C 9.8125222,14.564873 9.5160016,14.200142 9.1786455,13.876203 8.9792628,13.68475 8.7641051,13.504413 8.5166659,13.378615 8.3746598,13.306419 8.2175129,13.25392 8.0563558,13.261206 Z"
     class="UnoptimicedTransforms"
     transform="matrix(3.8128953,0,0,3.8128953,-9.7207464,-50.428709)" /><path
     style="display:inline;fill:none;stroke:#fff2dc;stroke-width:1.0;stroke-linecap:butt;stroke-linejoin:miter;stroke-dasharray:none;stroke-opacity:1"
     d="m 55.8625,80.26523 c 0,0 11.119409,-3.067242 15.992552,-0.581993 4.873147,2.485249 10.584125,4.547697 10.038553,9.880565 -0.554757,5.423462 -6.041472,6.249393 -10.76955,6.639303 -4.728074,0.389812 -7.784624,0.781945 -9.210098,-1.413268 -2.007668,-3.091553 0.194915,-7.845658 3.216246,-8.771562"
     id="path781"
     sodipodi:nodetypes="cssssc" /><path
     style="display:inline;fill:none;stroke:#fff2dc;stroke-width:1.0;stroke-linecap:butt;stroke-linejoin:miter;stroke-dasharray:none;stroke-opacity:1"
     d="m 58.162427,90.64769 3.048074,0.501586"
     id="path783"
     sodipodi:nodetypes="cc" /><path
     style="display:inline;fill:none;stroke:#fff2dc;stroke-width:1.0;stroke-linecap:butt;stroke-linejoin:miter;stroke-dasharray:none;stroke-opacity:1"
     d="m 17.358036,99.045379 c 0,0 -1.348804,-11.857567 -2.518337,-14.878909 C 13.670162,81.145128 9.5767401,71.691298 9.2843826,69.449677 8.9920098,67.208061 7.6274813,51.755433 7.6274813,51.755433"
     id="path785" /><path
     style="display:inline;fill:none;stroke:#fff2dc;stroke-width:1.0;stroke-linecap:butt;stroke-linejoin:miter;stroke-dasharray:none;stroke-opacity:1"
     d="m 28.200927,98.883864 c 0,0 -4.29721,-14.912298 -4.784574,-18.420905 -0.487261,-3.508707 -2.241616,-15.788872 -1.072079,-16.568598"
     id="path787" /><path
     style="display:inline;fill:none;stroke:#fff2dc;stroke-width:1.0;stroke-linecap:butt;stroke-linejoin:miter;stroke-dasharray:none;stroke-opacity:1"
     d="m 31.014649,98.842502 c 0,0 0.686004,-7.95108 0.296186,-10.1928 -0.389915,-2.241616 -2.228504,-6.28934 -2.625175,-10.454287 -0.396774,-4.164948 0.490289,-13.618782 0.490289,-13.618782"
     id="path789" /><path
     style="display:inline;fill:none;stroke:#fff2dc;stroke-width:1.0;stroke-linecap:butt;stroke-linejoin:miter;stroke-dasharray:none;stroke-opacity:1"
     d="m 43.894965,100.68473 c 0,0 -0.01106,-2.483641 -0.791225,-2.873551 -0.779722,-0.389812 -3.021339,-1.368475 -3.021339,-1.368475 0,0 -1.072083,-4.892822 -0.877175,-6.294183 0.194915,-1.401262 1.949255,-12.23144 2.046709,-13.486626 0.09788,-1.255183 0.389811,-11.077441 0.779725,-12.132374 0.389812,-1.05483 3.3137,-9.309268 3.216246,-10.576255"
     id="path791" /><path
     style="display:inline;fill:#fff2dc;stroke:none;stroke-width:1.0;stroke-linecap:butt;stroke-linejoin:miter;stroke-dasharray:none;stroke-opacity:1"
     d="m 30.287484,22.619152 c 0,0 0.316661,-2.119748 -0.950315,-3.070067 -1.266987,-0.950215 -3.094382,-1.023354 -3.581746,-0.121783 -0.487265,0.901486 0,2.241616 0.24372,2.50956 0.243644,0.268046 2.217203,2.071126 4.288326,0.682271 z"
     id="path793" /><path
     style="display:inline;fill:#fff2dc;stroke:none;stroke-width:1.0;stroke-linecap:butt;stroke-linejoin:miter;stroke-dasharray:none;stroke-opacity:1"
     d="m 37.913821,23.106418 c 0,0 0.02402,-1.51062 0.341178,-1.900431 0.316661,-0.389915 1.120808,-1.364544 1.632483,-1.510723 0.511679,-0.146186 3.143107,-0.46295 2.996928,0.609133 -0.146186,1.072079 -0.12186,2.095438 -0.925904,2.558388 -0.804037,0.46295 -2.460934,1.145222 -4.044696,0.243644 z"
     id="path795" /><path
     id="path366-4"
     style="fill:none;stroke:#fff2dc;stroke-width:1.0;stroke-linecap:butt;stroke-linejoin:miter;stroke-dasharray:none;stroke-opacity:1"
     d="m 38.959469,32.180187 c 0,0 -1.163894,1.315738 -2.38786,1.36447 -1.223966,0.04872 -2.39351,-0.389849 -2.685895,-0.925891 -0.292372,-0.536041 -0.438582,-0.828428 -0.438582,-0.828428 m -5.512337,0.389849 c 0,0 1.163896,1.315738 2.387861,1.36447 1.223965,0.04872 2.39351,-0.389849 2.685896,-0.925891 0.292388,-0.536041 0.43858,-0.828428 0.43858,-0.828428" /></svg>
