<?xml version="1.0" encoding="UTF-8" standalone="no"?>
<!-- Created with Inkscape (http://www.inkscape.org/) -->

<svg
   width="256"
   height="256"
   viewBox="0 0 67.733332 67.733333"
   version="1.1"
   id="svg424"
   inkscape:version="1.2 (dc2aedaf03, 2022-05-15)"
   sodipodi:docname="icon.svg"
   xmlns:inkscape="http://www.inkscape.org/namespaces/inkscape"
   xmlns:sodipodi="http://sodipodi.sourceforge.net/DTD/sodipodi-0.dtd"
   xmlns="http://www.w3.org/2000/svg"
   xmlns:svg="http://www.w3.org/2000/svg">
  <sodipodi:namedview
     id="namedview426"
     pagecolor="#ffffff"
     bordercolor="#666666"
     borderopacity="1.0"
     inkscape:showpageshadow="2"
     inkscape:pageopacity="0.0"
     inkscape:pagecheckerboard="0"
     inkscape:deskcolor="#d1d1d1"
     inkscape:document-units="mm"
     showgrid="false"
     inkscape:zoom="3.1521606"
     inkscape:cx="121.50396"
     inkscape:cy="131.65573"
     inkscape:window-width="3840"
     inkscape:window-height="2126"
     inkscape:window-x="2149"
     inkscape:window-y="858"
     inkscape:window-maximized="1"
     inkscape:current-layer="layer1" />
  <defs
     id="defs421" />
  <g
     inkscape:label="Layer 1"
     inkscape:groupmode="layer"
     id="layer1">
    <g
       id="g5519"
       transform="translate(-0.02078503,1.6155719)">
      <path
         id="path2937"
         style="display:inline;fill:#1f1b20;fill-opacity:1;stroke:#fff2dc;stroke-width:3.51368;stroke-linecap:round;stroke-linejoin:round;stroke-dasharray:none;stroke-opacity:1;paint-order:stroke fill markers"
         d="m 13.218392,60.521581 -1.575827,-5.364977 -2.2286467,-2.228762 -5.3650591,-1.575961 5.3650591,-1.575948 2.2286467,-2.22878 1.575827,-5.365003 1.576179,5.365003 2.228666,2.22878 5.36504,1.575948 -5.36504,1.575961 -2.228666,2.228762 z"
         sodipodi:nodetypes="ccccccccccccc"
         inkscape:spray-origin="#use14788" />
      <path
         id="path10672"
         style="fill:#1f1b20;stroke:#fff2dc;stroke-width:3.89093;stroke-linecap:butt;stroke-linejoin:round;stroke-dasharray:none;stroke-opacity:1;paint-order:stroke fill markers"
         d="M 31.179891,4.1691487 A 23.33568,23.33568 0 0 0 20.903927,23.468402 23.33568,23.33568 0 0 0 44.239858,46.804351 23.33568,23.33568 0 0 0 63.537504,36.529043 23.33568,23.33568 0 0 1 50.47915,40.564975 23.33568,23.33568 0 0 1 27.143299,17.229036 23.33568,23.33568 0 0 1 31.179891,4.1691487 Z" />
    </g>
  </g>
</svg>
